<?xml version="1.0" standalone="no"?>
<!DOCTYPE svg PUBLIC "-//W3C//DTD SVG 1.1//EN" "http://www.w3.org/Graphics/SVG/1.1/DTD/svg11.dtd" >
<svg>
<metadata>
Created by FontForge 20090622 at Wed Nov 23 16:55:34 2016
 By ffonts
1.2, Copyright Copr. Castcraft Software, Inc. 1990-1993.
</metadata>
<defs>
<font id="OPTINonoy-Bold" horiz-adv-x="292" >
  <font-face 
    font-family="OPTINonoy"
    font-weight="700"
    font-stretch="normal"
    units-per-em="1000"
    panose-1="2 0 8 3 6 0 0 2 0 4"
    ascent="800"
    descent="-200"
    x-height="507"
    cap-height="707"
    bbox="-41 -324 1172 1001"
    underline-thickness="57"
    underline-position="-49"
    stemh="92"
    stemv="153"
    unicode-range="U+0020-U+FB02"
  />
<missing-glyph 
 />
    <glyph glyph-name=".notdef" 
 />
    <glyph glyph-name="eth" unicode="&#xf0;" 
 />
    <glyph glyph-name="Scaron" unicode="&#x160;" 
 />
    <glyph glyph-name="scaron" unicode="&#x161;" 
 />
    <glyph glyph-name="Yacute" unicode="&#xdd;" 
 />
    <glyph glyph-name="yacute" unicode="&#xfd;" 
 />
    <glyph glyph-name="Thorn" unicode="&#xde;" 
 />
    <glyph glyph-name="thorn" unicode="&#xfe;" 
 />
    <glyph glyph-name="onehalf" unicode="&#xbd;" 
 />
    <glyph glyph-name="onequarter" unicode="&#xbc;" 
 />
    <glyph glyph-name="onesuperior" unicode="&#xb9;" 
 />
    <glyph glyph-name="threequarters" unicode="&#xbe;" 
 />
    <glyph glyph-name="threesuperior" unicode="&#xb3;" 
 />
    <glyph glyph-name="twosuperior" unicode="&#xb2;" 
 />
    <glyph glyph-name="brokenbar" unicode="&#xa6;" 
 />
    <glyph glyph-name="minus" unicode="&#x2212;" 
 />
    <glyph glyph-name="multiply" unicode="&#xd7;" 
 />
    <glyph glyph-name="space" unicode=" " 
 />
    <glyph glyph-name="exclam" unicode="!" horiz-adv-x="222" 
d="M206 707l-38 -491h-58l-44 491h140zM228 77c0 -48 -39 -87 -89 -87c-48 0 -87 39 -87 87s39 87 87 87c50 0 89 -39 89 -87z" />
    <glyph glyph-name="quotedbl" unicode="&#x22;" horiz-adv-x="258" 
d="M256 588l-22 -193h-23l-23 191c-4 30 -31 146 31 146c67 0 41 -111 37 -144zM133 588l-22 -193h-23l-23 191c-4 30 -32 146 31 146c67 0 41 -111 37 -144z" />
    <glyph glyph-name="numbersign" unicode="#" horiz-adv-x="555" 
d="M569 372l-14 -35h-122c0 0 -40 -92 -41 -92h120l-15 -35h-121c1 0 -55 -128 -55 -128h-58l57 128h-88l-58 -128h-57l56 128h-120l16 35h120l41 92h-119l14 35h119l57 130h58l-57 -130h89l56 130h58l-57 -130h121zM375 337h-89l-40 -92h88z" />
    <glyph glyph-name="dollar" unicode="$" horiz-adv-x="494" 
d="M507 264c0 -111 -95 -175 -197 -184v-106h-69v106c-73 3 -125 14 -170 31c1 53 -7 176 -7 176h15c18 -86 68 -135 174 -135c71 0 126 26 126 82c0 117 -326 47 -326 258c0 92 78 157 188 170v93h69v-91c57 -2 104 -12 155 -30c-1 -56 8 -159 8 -159h-15
c-24 75 -73 116 -166 116c-78 0 -116 -27 -116 -73c0 -113 331 -60 331 -254z" />
    <glyph glyph-name="percent" unicode="%" horiz-adv-x="688" 
d="M397 522c0 -94 -78 -170 -172 -170s-172 76 -172 170s77 171 172 171s172 -77 172 -171zM568 674l-327 -703l-43 23l327 702zM706 146c0 -95 -78 -172 -172 -172c-93 0 -171 77 -171 172c0 94 77 171 171 171c95 0 172 -77 172 -171zM290 522c-7 64 -28 116 -80 116
c-41 0 -58 -52 -50 -116c8 -65 33 -116 80 -116c39 0 58 51 50 116zM600 146c-8 63 -29 115 -80 115c-41 0 -59 -52 -51 -115c8 -65 33 -116 80 -116c39 0 59 51 51 116z" />
    <glyph glyph-name="ampersand" unicode="&#x26;" horiz-adv-x="742" 
d="M783 359c-9 -76 -46 -129 -117 -136c-10 -145 -116 -249 -313 -249c-171 0 -300 87 -300 223c0 118 121 190 205 190c-83 15 -140 64 -140 145c0 109 105 174 276 174c86 0 148 -22 180 -35l8 -148h-25c-34 69 -79 103 -150 103c-82 0 -136 -39 -136 -108
c0 -79 64 -110 159 -110c38 0 39 -50 3 -50c-111 0 -222 -33 -222 -141c0 -84 47 -158 160 -158c115 0 176 56 181 171c-19 2 -37 3 -58 3c-48 0 -64 -23 -79 -59h-23c7 104 64 132 139 132h120c54 0 79 6 113 53h19z" />
    <glyph glyph-name="quotesingle" unicode="'" horiz-adv-x="138" 
d="M133 588l-22 -193h-23l-23 191c-4 30 -32 146 31 146c67 0 41 -111 37 -144z" />
    <glyph glyph-name="parenleft" unicode="(" horiz-adv-x="284" 
d="M291 714c-81 -52 -93 -147 -93 -199v-404c0 -72 11 -160 87 -232l-11 -17c-203 114 -221 290 -221 458c0 153 55 339 229 412z" />
    <glyph glyph-name="parenright" unicode=")" horiz-adv-x="284" 
d="M291 320c0 -168 -16 -344 -219 -458l-13 17c76 72 89 160 89 232v404c-5 52 -14 147 -95 199l11 18c174 -73 227 -259 227 -412z" />
    <glyph glyph-name="asterisk" unicode="*" horiz-adv-x="358" 
d="M367 493l-34 -57l-101 72l12 -124h-68l14 124l-103 -72l-34 58l114 52l-114 52l34 57l103 -72l-14 124h68l-12 -124l101 72l34 -58l-114 -52z" />
    <glyph glyph-name="plus" unicode="+" horiz-adv-x="602" 
d="M617 229h-229v-229h-105v229h-230v106h230v229h105v-229h229v-106z" />
    <glyph glyph-name="comma" unicode="," horiz-adv-x="155" 
d="M159 104c0 -113 -48 -190 -129 -216c33 82 34 146 23 216c32 -5 79 -5 106 0z" />
    <glyph glyph-name="hyphen" unicode="-" horiz-adv-x="419" 
d="M430 322l-17 -144h-265c-47 0 -58 -6 -77 -50h-18l18 144h265c47 0 58 6 77 50h17z" />
    <glyph glyph-name="period" unicode="." horiz-adv-x="202" 
d="M207 70c0 -42 -35 -77 -77 -77s-77 35 -77 77s35 77 77 77s77 -35 77 -77z" />
    <glyph glyph-name="slash" unicode="/" horiz-adv-x="634" 
d="M650 797l-540 -881h-57l541 881h56z" />
    <glyph glyph-name="zero" unicode="0" horiz-adv-x="585" 
d="M600 354c0 -224 -124 -368 -268 -368c-175 0 -279 149 -279 378c0 223 124 368 268 368c175 0 279 -150 279 -378zM432 371c0 212 -37 274 -102 274c-71 0 -106 -97 -106 -298c0 -212 37 -273 101 -273c71 0 107 96 107 297z" />
    <glyph glyph-name="one" unicode="1" horiz-adv-x="585" 
d="M462 0c0 0 -76 5 -130 5c-52 0 -142 -5 -142 -5v17c55 15 65 27 65 64v479c0 69 -12 79 -83 86v22c86 12 159 30 235 64h8c-2 -50 -5 -126 -5 -171v-480c0 -37 12 -52 52 -64v-17z" />
    <glyph glyph-name="two" unicode="2" horiz-adv-x="585" 
d="M564 508c0 -161 -189 -300 -336 -379c34 2 62 3 106 3h229l-16 -132h-458v96c142 86 307 255 307 398c0 84 -52 144 -121 144c-59 0 -110 -44 -141 -118h-20c5 64 8 125 7 173c46 23 113 39 176 39c165 0 267 -88 267 -224z" />
    <glyph glyph-name="three" unicode="3" horiz-adv-x="585" 
d="M535 240c0 -153 -165 -254 -357 -254c-23 0 -48 1 -77 4l-26 66c132 -6 289 43 289 169c0 62 -72 105 -159 111l-58 5l8 64c62 1 199 25 199 144c0 56 -43 88 -104 88c-46 0 -97 -32 -136 -109h-27c9 44 23 128 26 173c43 16 106 31 172 31c145 0 226 -67 226 -156
c0 -80 -65 -154 -157 -177c92 -8 181 -53 181 -159z" />
    <glyph glyph-name="four" unicode="4" horiz-adv-x="585" 
d="M578 158h-86v-158h-148v155h-278v86c46 100 218 334 336 466h94c-1 -33 -4 -121 -4 -146v-316h86v-87zM344 246v274c-60 -69 -153 -203 -188 -274h188z" />
    <glyph glyph-name="five" unicode="5" horiz-adv-x="585" 
d="M536 301c0 -172 -182 -308 -390 -315l-22 69c145 15 252 116 252 224c0 71 -61 116 -136 116c-29 0 -76 -10 -114 -26l27 338h368l-13 -126h-281l-15 -133c26 11 82 26 116 26c121 0 208 -74 208 -173z" />
    <glyph glyph-name="six" unicode="6" horiz-adv-x="585" 
d="M588 258c0 -157 -124 -272 -272 -272c-161 0 -263 111 -263 268c0 81 27 168 80 245c69 101 187 193 283 233l19 -31c-94 -86 -145 -158 -190 -262c39 28 85 41 129 41c104 0 214 -83 214 -222zM426 238c0 96 -54 139 -107 139c-57 0 -114 -53 -114 -163
c0 -96 53 -139 108 -139c56 0 113 53 113 163z" />
    <glyph glyph-name="seven" unicode="7" horiz-adv-x="585" 
d="M564 707l-96 -258c-103 -275 -113 -341 -113 -449h-172c0 118 63 283 161 424l104 149h-213c-94 0 -107 -8 -127 -94h-31l14 86c8 47 17 99 17 123v19h456z" />
    <glyph glyph-name="eight" unicode="8" horiz-adv-x="585" 
d="M587 204c0 -123 -94 -218 -275 -218c-142 0 -242 80 -242 209c0 86 54 155 144 186c-66 56 -105 106 -105 168c0 104 82 183 233 183c126 0 226 -70 226 -177c0 -76 -43 -123 -116 -157c111 -80 135 -117 135 -194zM426 563c0 53 -32 84 -85 84c-46 0 -78 -37 -78 -71
c0 -45 43 -82 103 -122c46 50 60 75 60 109zM433 176c0 70 -68 110 -135 151c-65 -49 -91 -83 -91 -132c0 -68 49 -120 118 -120c66 0 108 47 108 101z" />
    <glyph glyph-name="nine" unicode="9" horiz-adv-x="585" 
d="M581 455c0 -223 -174 -399 -408 -469l-25 48c105 70 211 177 256 282c-39 -29 -89 -43 -133 -43c-104 0 -218 83 -218 220s113 239 265 239c157 0 263 -108 263 -277zM429 498c0 98 -57 153 -115 153c-61 0 -104 -40 -104 -136c0 -98 54 -149 108 -149
c56 0 111 38 111 132z" />
    <glyph glyph-name="colon" unicode=":" horiz-adv-x="202" 
d="M207 368c0 -42 -35 -77 -77 -77s-77 35 -77 77s35 77 77 77s77 -35 77 -77zM207 70c0 -42 -35 -77 -77 -77s-77 35 -77 77s35 77 77 77s77 -35 77 -77z" />
    <glyph glyph-name="semicolon" unicode=";" horiz-adv-x="202" 
d="M207 368c0 -42 -35 -77 -77 -77s-77 35 -77 77s35 77 77 77s77 -35 77 -77zM176 104c0 -113 -48 -190 -129 -216c33 82 34 146 25 216c32 -5 79 -5 104 0z" />
    <glyph glyph-name="less" unicode="&#x3c;" horiz-adv-x="492" 
d="M505 146l-452 168v110l452 168v-102l-345 -122l345 -121v-101z" />
    <glyph glyph-name="equal" unicode="=" horiz-adv-x="640" 
d="M656 436h-603v95h603v-95zM656 213h-603v96h603v-96z" />
    <glyph glyph-name="greater" unicode="&#x3e;" horiz-adv-x="491" 
d="M504 314l-451 -168v101l346 121l-346 122v102l451 -168v-110z" />
    <glyph glyph-name="question" unicode="?" horiz-adv-x="502" 
d="M515 520c0 -124 -85 -163 -190 -197l-26 -8c-59 -19 -76 -46 -88 -107h-23v192c47 4 176 22 176 128c0 76 -58 115 -129 115c-83 0 -155 -72 -165 -125h-18s26 137 26 177c39 16 91 26 146 26c158 0 291 -63 291 -201zM279 79c0 -48 -39 -87 -87 -87c-49 0 -87 39 -87 87
s38 87 87 87c48 0 87 -39 87 -87z" />
    <glyph glyph-name="at" unicode="@" horiz-adv-x="969" 
d="M994 408c0 -183 -106 -334 -258 -334c-71 0 -112 35 -121 99c-48 -77 -103 -100 -167 -100c-96 0 -166 74 -165 181c2 150 121 299 244 299c54 0 111 -8 142 -84l19 65h129l-67 -239c-10 -34 -54 -153 19 -153c64 0 167 92 167 265c0 221 -171 301 -349 301
c-210 0 -432 -146 -432 -433c0 -240 175 -383 368 -383c120 0 241 28 360 102l26 -43c-124 -80 -268 -117 -401 -117c-308 0 -455 237 -455 453c0 269 226 477 534 477c203 0 407 -99 407 -356zM635 395c6 43 -11 89 -65 89c-105 0 -149 -231 -149 -273c0 -36 18 -74 61 -74
c107 0 146 210 153 258z" />
    <glyph glyph-name="A" unicode="A" horiz-adv-x="722" 
d="M767 0c0 0 -92 3 -150 3c-52 0 -133 -3 -133 -3v17c51 8 64 23 49 64l-49 137h-223l-49 -126c-18 -47 -4 -66 46 -75v-17s-70 2 -116 2s-114 -2 -114 -2v17c26 0 42 13 53 41l212 573c14 37 6 54 -32 58v18s69 -5 113 -5c40 0 96 6 96 6l243 -652c10 -28 25 -34 54 -39
v-17zM455 306l-66 200c-11 30 -13 36 -17 66c-5 -29 -8 -35 -17 -63l-67 -203h167z" />
    <glyph glyph-name="B" unicode="B" horiz-adv-x="676" 
d="M693 204c0 -129 -103 -204 -285 -204h-355v17c43 6 56 17 56 64v545c0 47 -13 59 -56 63v18h362c155 0 233 -72 233 -168c0 -80 -49 -136 -142 -165c131 -16 187 -76 187 -170zM487 515c0 68 -52 103 -141 103h-74v-212h74c87 0 141 43 141 109zM529 208
c0 71 -48 112 -136 112h-121v-231h122c67 0 135 36 135 119z" />
    <glyph glyph-name="C" unicode="C" horiz-adv-x="646" 
d="M671 155l-16 -115c-59 -40 -135 -66 -222 -66c-212 0 -380 156 -380 369c0 226 172 389 396 389c71 0 140 -16 202 -44c0 0 -3 -62 -3 -101c0 -42 3 -107 3 -107h-22c-14 86 -77 149 -185 149c-146 0 -223 -121 -223 -242c0 -195 123 -299 255 -299c53 0 117 17 195 67z
" />
    <glyph glyph-name="D" unicode="D" horiz-adv-x="747" 
d="M766 362c0 -210 -157 -362 -427 -362h-286v17c43 6 56 17 56 64v545c0 47 -13 59 -56 63v18h319c243 0 394 -125 394 -345zM602 332c0 183 -118 277 -285 277h-45v-515h64c157 0 266 85 266 238z" />
    <glyph glyph-name="E" unicode="E" horiz-adv-x="640" 
d="M656 206l-18 -206h-585v17c43 6 56 17 56 64v545c0 47 -13 59 -56 63v18h568l8 -178h-24c-17 73 -37 84 -111 84h-222v-198h132c53 0 77 14 88 58h20s-3 -62 -3 -101c0 -41 3 -104 3 -104h-20c-11 43 -35 56 -88 56h-132v-231h215c100 0 123 14 145 113h24z" />
    <glyph glyph-name="F" unicode="F" horiz-adv-x="589" 
d="M614 529h-24c-17 73 -37 84 -110 84h-208v-215h120c53 0 76 19 88 63h19s-3 -66 -3 -109c0 -45 3 -114 3 -114h-19c-12 43 -35 68 -88 68h-120v-225c0 -42 20 -57 75 -64v-17s-106 5 -159 5c-54 0 -135 -5 -135 -5v17c43 6 56 17 56 64v545c0 47 -13 59 -56 63v18h553z
" />
    <glyph glyph-name="G" unicode="G" horiz-adv-x="773" 
d="M793 314c-41 -4 -55 -17 -55 -64v-250h-66l-28 72c-71 -68 -148 -96 -237 -96c-201 0 -354 148 -354 379c0 216 161 377 434 377c95 0 161 -17 224 -46c0 0 -5 -54 -5 -88c0 -37 5 -115 5 -115h-22c-30 111 -117 150 -200 150c-154 0 -261 -89 -261 -265
c0 -191 109 -282 217 -282c92 0 136 37 136 91v65c0 42 -22 67 -83 72v17s106 -5 158 -5c54 0 137 5 137 5v-17z" />
    <glyph glyph-name="H" unicode="H" horiz-adv-x="756" 
d="M775 0c0 0 -83 5 -136 5s-136 -5 -136 -5v17c43 6 55 17 55 64v238h-286v-238c0 -47 11 -58 54 -64v-17s-83 5 -136 5c-54 0 -137 -5 -137 -5v17c43 6 56 17 56 64v545c0 47 -13 59 -56 63v18s83 -5 137 -5c53 0 136 5 136 5v-18c-43 -4 -54 -16 -54 -63v-203h286v203
c0 47 -12 59 -55 63v18s83 -5 136 -5s136 5 136 5v-18c-43 -4 -54 -16 -54 -63v-545c0 -47 11 -58 54 -64v-17z" />
    <glyph glyph-name="I" unicode="I" horiz-adv-x="318" 
d="M326 0c0 0 -83 5 -136 5c-54 0 -137 -5 -137 -5v17c43 6 56 17 56 64v545c0 47 -13 59 -56 63v18s83 -5 137 -5c53 0 136 5 136 5v-18c-43 -4 -54 -16 -54 -63v-545c0 -47 11 -58 54 -64v-17z" />
    <glyph glyph-name="J" unicode="J" horiz-adv-x="333" 
d="M342 689c-44 -4 -55 -16 -55 -63v-501c0 -102 -24 -194 -108 -249c-33 -22 -66 -31 -109 -34l-21 37c59 34 75 62 75 165v582c0 44 -17 58 -71 63v18s100 -5 152 -5c53 0 137 5 137 5v-18z" />
    <glyph glyph-name="K" unicode="K" horiz-adv-x="697" 
d="M736 0c0 0 -66 5 -109 5s-110 -5 -110 -5s-66 105 -112 172c-49 73 -131 185 -131 185l191 249c38 51 31 79 -16 83v18s73 -5 125 -5c54 0 127 5 127 5v-18c-29 -2 -40 -9 -85 -64l-184 -229s70 -89 116 -153c62 -87 107 -161 107 -161c34 -50 50 -59 81 -65v-17zM326 0
c0 0 -83 5 -136 5c-54 0 -137 -5 -137 -5v17c43 6 56 17 56 64v545c0 47 -13 59 -56 63v18s83 -5 137 -5c53 0 136 5 136 5v-18c-43 -4 -54 -16 -54 -63v-545c0 -47 11 -58 54 -64v-17z" />
    <glyph glyph-name="L" unicode="L" horiz-adv-x="609" 
d="M623 213c0 0 -14 -67 -20 -120c-4 -33 -6 -93 -6 -93h-544v17c43 6 56 17 56 64v545c0 47 -13 59 -56 63v18s89 -5 145 -5c55 0 143 5 143 5v-18c-50 -4 -69 -20 -69 -63v-533h172c91 0 130 25 153 120h26z" />
    <glyph glyph-name="M" unicode="M" horiz-adv-x="933" 
d="M957 0c0 0 -85 5 -139 5c-56 0 -145 -5 -145 -5v17c57 8 74 22 70 89l-27 432l-191 -538h-88l-202 539l-19 -464c-1 -36 14 -51 70 -58v-17s-67 4 -109 4c-48 0 -124 -4 -124 -4v17c48 7 60 16 63 65l33 530c4 63 -4 72 -50 77v18s77 -5 126 -5c39 0 99 6 99 6l186 -483
l177 483s67 -6 110 -6s110 5 110 5v-18c-42 -10 -46 -24 -43 -68l37 -533c3 -56 15 -64 56 -71v-17z" />
    <glyph glyph-name="N" unicode="N" horiz-adv-x="752" 
d="M771 689c-45 -5 -56 -16 -56 -57v-632s-36 1 -61 1c-23 0 -60 -1 -60 -1l-386 561l5 -470c1 -50 17 -65 74 -74v-17s-77 5 -125 5c-42 0 -109 -5 -109 -5v17c45 7 57 17 57 58v547c0 62 -16 62 -52 67v18s71 -5 115 -5c45 0 117 6 117 6l327 -476l-6 383
c-1 51 -15 67 -74 74v18s76 -5 125 -5c43 0 109 5 109 5v-18z" />
    <glyph glyph-name="O" unicode="O" horiz-adv-x="783" 
d="M803 354c0 -218 -156 -380 -375 -380s-375 164 -375 380c0 213 156 378 375 378s375 -162 375 -378zM628 372c-32 201 -132 262 -227 257c-116 -6 -201 -123 -177 -291c28 -201 138 -261 227 -256c116 6 203 123 177 290z" />
    <glyph glyph-name="P" unicode="P" horiz-adv-x="658" 
d="M675 484c0 -142 -114 -218 -232 -218c-93 0 -153 30 -153 49c0 17 25 8 65 8c90 0 157 44 157 155c0 89 -65 134 -150 134h-90v-531c0 -47 11 -58 54 -64v-17s-83 5 -135 5c-55 0 -138 -5 -138 -5v17c43 6 56 17 56 64v545c0 47 -13 59 -56 63v18s102 -2 165 -2
c62 0 156 2 156 2c200 2 301 -93 301 -223z" />
    <glyph glyph-name="Q" unicode="Q" horiz-adv-x="783" 
d="M821 49l-22 -47c-62 -19 -133 -32 -207 7c-49 -21 -104 -35 -164 -35c-219 0 -375 164 -375 380c0 213 156 378 375 378s375 -162 375 -378c0 -107 -37 -199 -101 -267c53 -41 79 -36 119 -38zM628 372c-32 201 -132 262 -227 257c-116 -6 -201 -123 -177 -291
c28 -201 138 -261 227 -256c116 6 203 123 177 290z" />
    <glyph glyph-name="R" unicode="R" horiz-adv-x="698" 
d="M727 0h-220s-57 94 -98 155c-37 57 -100 146 -100 146c-25 35 -23 46 5 46c86 0 190 25 190 138c0 88 -55 128 -130 128h-102v-532c0 -47 11 -58 54 -64v-17s-83 5 -135 5c-55 0 -138 -5 -138 -5v17c43 6 56 17 56 64v545c0 47 -13 59 -56 63v18h380
c153 0 237 -76 237 -196c0 -106 -71 -168 -186 -200l84 -117l86 -130c21 -32 35 -42 73 -47v-17z" />
    <glyph glyph-name="S" unicode="S" horiz-adv-x="622" 
d="M638 213c0 -141 -118 -239 -325 -239c-66 0 -164 16 -241 43c4 48 -1 181 -3 225h19c24 -111 98 -175 221 -175c104 0 162 37 162 99c0 64 -68 92 -126 108l-65 17c-98 27 -227 80 -227 218c0 125 113 223 311 223c81 0 177 -23 221 -40c-1 -43 6 -157 11 -203h-21
c-24 102 -104 149 -208 149c-103 0 -154 -35 -154 -91c0 -60 59 -81 128 -101l64 -18c131 -38 233 -86 233 -215z" />
    <glyph glyph-name="T" unicode="T" horiz-adv-x="592" 
d="M639 498h-20c-32 129 -51 118 -158 118h-50v-535c0 -47 17 -56 76 -64v-17s-104 5 -158 5c-52 0 -157 -5 -157 -5v17c61 8 76 17 76 64v535h-49c-108 0 -126 11 -159 -118h-18c6 41 16 163 16 209h584c0 -46 10 -168 17 -209z" />
    <glyph glyph-name="U" unicode="U" horiz-adv-x="745" 
d="M764 689c-43 -4 -55 -16 -55 -63v-367c0 -179 -68 -285 -300 -285c-236 0 -300 106 -300 285v367c0 47 -13 59 -56 63v18s83 -5 137 -5c53 0 136 5 136 5v-18c-43 -4 -54 -16 -54 -63v-408c0 -95 38 -150 137 -150c100 0 137 55 137 150v408c0 47 -12 59 -55 63v18
s83 -5 136 -5c54 0 137 5 137 5v-18z" />
    <glyph glyph-name="V" unicode="V" horiz-adv-x="688" 
d="M732 689c-35 -3 -43 -17 -61 -67l-227 -622h-128l-228 622c-15 40 -23 64 -60 67v18s83 -5 135 -5c53 0 150 5 150 5v-18c-60 -6 -69 -28 -56 -63l151 -413l145 399c17 49 8 72 -47 77v18s57 -5 110 -5s116 5 116 5v-18z" />
    <glyph glyph-name="W" unicode="W" horiz-adv-x="946" 
d="M996 689c-35 -3 -49 -24 -61 -63l-186 -626h-126l-109 389l-110 -389h-128l-188 626c-11 39 -25 60 -60 63v18s83 -5 135 -5c53 0 136 5 136 5v-18c-48 -4 -57 -20 -45 -64l129 -444l93 341l-29 104c-13 47 -26 59 -77 63v18s94 -5 152 -5c55 0 144 5 144 5v-18
c-54 -4 -73 -28 -61 -78l110 -430l114 444c10 41 1 60 -45 64v18s54 -5 104 -5c45 0 108 5 108 5v-18z" />
    <glyph glyph-name="X" unicode="X" horiz-adv-x="687" 
d="M731 0c0 0 -97 5 -149 5c-54 0 -168 -5 -168 -5v17c62 7 71 27 50 65l-103 184l-120 -184c-28 -42 -23 -58 40 -65v-17s-74 5 -127 5s-126 -5 -126 -5v17c43 6 60 21 90 64l185 271l-162 274c-27 44 -36 59 -80 63v18s106 -5 158 -5c55 0 143 5 143 5v-18
c-47 -4 -57 -23 -35 -64l76 -138l90 138c28 42 18 60 -29 64v18s63 -5 117 -5c52 0 117 5 117 5v-18c-41 -4 -51 -19 -82 -63l-154 -226l188 -319c24 -39 40 -58 81 -64v-17z" />
    <glyph glyph-name="Y" unicode="Y" horiz-adv-x="634" 
d="M676 689c-34 -3 -47 -18 -70 -67l-172 -370v-171c0 -47 11 -58 54 -64v-17s-83 5 -136 5c-54 0 -137 -5 -137 -5v17c43 6 56 17 56 64v171l-166 370c-22 48 -34 63 -77 67v18s86 -5 138 -5c53 0 147 5 147 5v-18c-48 -4 -57 -23 -39 -63l110 -252l106 238
c21 47 13 72 -40 77v18s57 -5 111 -5c52 0 115 5 115 5v-18z" />
    <glyph glyph-name="Z" unicode="Z" horiz-adv-x="650" 
d="M667 197c0 0 -15 -151 -12 -197h-603l357 611h-179c-70 0 -102 -13 -112 -76h-17s17 118 19 172h535l-354 -611h216c92 0 114 28 133 101h17z" />
    <glyph glyph-name="bracketleft" unicode="[" horiz-adv-x="295" 
d="M302 -223h-249v955h249v-35h-135v-886h135v-34z" />
    <glyph glyph-name="backslash" unicode="\" horiz-adv-x="546" 
d="M559 0h-56l-450 732h57z" />
    <glyph glyph-name="bracketright" unicode="]" horiz-adv-x="295" 
d="M302 -223h-249v34h136v886h-136v35h249v-955z" />
    <glyph glyph-name="asciicircum" unicode="^" horiz-adv-x="410" 
d="M421 582h-68l-116 103l-117 -103h-67l144 195h80z" />
    <glyph glyph-name="underscore" unicode="_" horiz-adv-x="589" 
d="M604 -138h-614v50h614v-50z" />
    <glyph glyph-name="grave" unicode="`" horiz-adv-x="315" 
d="M323 582h-74l-90 58c-84 54 -106 69 -106 98c0 27 21 47 46 47c34 0 54 -25 117 -92z" />
    <glyph glyph-name="a" unicode="a" horiz-adv-x="575" 
d="M601 0c0 0 -69 5 -119 5c-49 0 -87 -5 -87 -5c3 25 4 45 5 74c-50 -65 -99 -88 -172 -88c-103 0 -175 53 -175 152c0 93 57 145 186 166l114 18c32 5 38 12 38 45c0 45 -38 77 -96 77c-89 0 -136 -34 -161 -99h-22c3 28 10 121 10 146c43 19 114 32 182 32
c189 0 239 -73 239 -192v-254c0 -41 17 -55 58 -61v-16zM392 229v21l-55 -10c-93 -18 -134 -44 -134 -91c0 -40 33 -68 65 -68c76 0 124 53 124 148z" />
    <glyph glyph-name="b" unicode="b" horiz-adv-x="623" 
d="M639 278c0 -199 -132 -292 -279 -292c-69 0 -123 25 -169 87c-20 -24 -38 -42 -73 -73h-20c7 37 14 79 14 125v531c0 43 -16 56 -59 60v17c83 14 139 31 219 64c-2 -50 -6 -126 -6 -171v-168c37 43 84 65 145 65c124 0 228 -90 228 -245zM483 240c0 117 -36 179 -113 179
c-60 0 -112 -44 -112 -158c0 -139 40 -184 116 -184c53 0 109 58 109 163z" />
    <glyph glyph-name="c" unicode="c" horiz-adv-x="480" 
d="M493 116l-25 -105c-39 -17 -91 -25 -146 -25c-184 0 -269 123 -269 263c0 154 107 274 294 274c50 0 99 -11 140 -31c-2 -37 -2 -113 0 -156h-23c-22 69 -66 98 -113 98c-67 0 -142 -61 -142 -169c0 -124 78 -186 167 -186c30 0 69 10 117 37z" />
    <glyph glyph-name="d" unicode="d" horiz-adv-x="627" 
d="M643 0c0 0 -75 5 -125 5s-88 -5 -88 -5c4 25 5 45 6 74c-43 -65 -88 -88 -149 -88c-129 0 -234 86 -234 273c0 170 114 264 244 264c54 0 89 -13 133 -55v188c0 43 -15 56 -58 60v17c83 14 138 31 218 64c-2 -50 -5 -126 -5 -171v-549c0 -41 17 -55 58 -61v-16zM434 268
c0 117 -38 158 -108 158c-77 0 -117 -70 -117 -180c0 -111 56 -163 109 -163c59 0 116 46 116 185z" />
    <glyph glyph-name="e" unicode="e" horiz-adv-x="547" 
d="M561 284c0 -12 0 -26 -2 -35l-352 -6c10 -97 81 -158 181 -158c38 0 95 24 160 66l-17 -105c-66 -43 -136 -60 -203 -60c-161 0 -275 108 -275 273c0 159 114 264 276 264c120 0 232 -74 232 -239zM410 327c0 75 -54 111 -97 111c-60 0 -95 -43 -106 -111h203z" />
    <glyph glyph-name="f" unicode="f" horiz-adv-x="373" 
d="M415 661h-14c-12 19 -31 30 -50 30c-49 0 -76 -29 -76 -117v-66h129v-80h-129v-351c0 -42 10 -51 91 -61v-16s-119 5 -169 5c-49 0 -144 -5 -144 -5v16c51 1 67 20 67 61v353h-81v39c69 8 84 22 84 91c0 145 81 224 222 224c21 0 42 -2 61 -6z" />
    <glyph glyph-name="g" unicode="g" horiz-adv-x="608" 
d="M624 499l-24 -71c-42 -2 -51 -2 -69 0c7 -18 15 -49 15 -75c0 -109 -81 -185 -235 -185c-52 0 -70 4 -111 23c-23 -20 -38 -34 -32 -49c11 -27 45 -28 79 -28h98c144 0 249 -36 249 -144c0 -101 -106 -189 -270 -189c-107 0 -211 29 -211 112c0 23 7 39 22 54
c28 3 65 11 78 15l39 11c-7 -17 -13 -37 -13 -54c0 -40 41 -71 115 -71c54 0 107 29 107 81c0 39 -49 56 -137 56h-89c-124 0 -183 51 -183 127c0 17 4 36 12 46c6 8 93 50 102 54c-41 42 -55 86 -55 131c0 108 92 180 225 180c49 0 69 -3 108 -15l24 -7c14 -5 78 -6 156 -2
zM417 345c0 49 -29 104 -92 104c-49 0 -82 -44 -82 -98c0 -64 41 -104 90 -104c51 0 84 43 84 98z" />
    <glyph glyph-name="h" unicode="h" horiz-adv-x="621" 
d="M637 0c0 0 -65 5 -115 5c-49 0 -103 -5 -103 -5l9 294c2 71 -1 116 -61 116c-66 0 -101 -45 -101 -156v-177c0 -41 17 -55 58 -61v-16s-85 5 -135 5c-51 0 -136 -5 -136 -5v16c41 6 59 20 59 61v579c0 43 -16 56 -59 60v17c83 14 139 31 219 64c-2 -50 -6 -126 -6 -171
v-186c47 61 87 83 157 83c98 0 155 -53 155 -173v-273c0 -41 18 -55 59 -61v-16z" />
    <glyph glyph-name="i" unicode="i" horiz-adv-x="316" 
d="M261 653c0 -48 -39 -86 -88 -86c-48 0 -87 38 -87 86c0 49 39 88 87 88c49 0 88 -39 88 -88zM324 0c0 0 -85 5 -135 5c-51 0 -136 -5 -136 -5v16c41 6 59 20 59 61v327c0 43 -16 55 -59 60v17c83 13 139 30 219 64c-2 -51 -6 -127 -6 -172v-296c0 -41 17 -55 58 -61v-16z
" />
    <glyph glyph-name="j" unicode="j" horiz-adv-x="316" 
d="M261 653c0 -48 -39 -86 -88 -86c-48 0 -87 38 -87 86c0 49 39 88 87 88c49 0 88 -39 88 -88zM272 545c-2 -51 -6 -127 -6 -172v-379c0 -137 -67 -193 -213 -187v19c45 9 59 23 59 96v482c0 43 -16 55 -59 60v17c83 13 139 30 219 64z" />
    <glyph glyph-name="k" unicode="k" horiz-adv-x="615" 
d="M324 0c0 0 -85 5 -135 5c-51 0 -136 -5 -136 -5v16c41 6 59 20 59 61v579c0 43 -16 56 -59 60v17c83 14 139 31 219 64c-2 -50 -6 -126 -6 -171v-549c0 -41 17 -55 58 -61v-16zM652 0c0 0 -64 5 -115 5c-49 0 -93 -5 -93 -5l-171 279l68 75c100 111 99 122 28 137v17
s85 -5 136 -5c50 0 107 5 107 5c-2 -5 -20 -24 -22 -26l-173 -166l128 -202c53 -86 66 -92 107 -98v-16z" />
    <glyph glyph-name="l" unicode="l" horiz-adv-x="316" 
d="M324 0c0 0 -85 5 -135 5c-51 0 -136 -5 -136 -5v16c41 6 59 20 59 61v579c0 43 -16 56 -59 60v17c83 14 139 31 219 64c-2 -50 -6 -126 -6 -171v-549c0 -41 17 -55 58 -61v-16z" />
    <glyph glyph-name="m" unicode="m" horiz-adv-x="911" 
d="M934 0c0 0 -64 5 -115 5c-49 0 -102 -5 -102 -5l9 294c2 71 -1 116 -61 116c-62 0 -94 -45 -94 -156v-177c0 -41 17 -55 58 -61v-16s-85 5 -136 5c-49 0 -124 -5 -124 -5v16c38 6 47 20 47 61v217c0 91 -5 116 -56 116c-63 0 -94 -45 -94 -156v-177c0 -41 8 -55 48 -61
v-16s-75 5 -125 5c-51 0 -136 -5 -136 -5v16c41 6 59 20 59 61v327c0 43 -16 55 -59 60v17c83 13 139 30 219 64c-3 -51 -6 -60 -6 -105c43 63 79 83 149 83c73 0 127 -34 143 -91c34 63 92 91 163 91c97 0 155 -53 155 -173v-273c0 -41 17 -55 58 -61v-16z" />
    <glyph glyph-name="n" unicode="n" horiz-adv-x="621" 
d="M637 0c0 0 -65 5 -115 5c-49 0 -103 -5 -103 -5l9 294c2 71 -1 116 -61 116c-66 0 -101 -45 -101 -156v-177c0 -41 7 -55 48 -61v-16s-75 5 -125 5c-51 0 -136 -5 -136 -5v16c41 6 59 20 59 61v327c0 43 -16 55 -59 60v17c83 13 139 30 219 64c-3 -51 -6 -60 -6 -105
c47 61 87 83 157 83c98 0 155 -53 155 -173v-273c0 -41 18 -55 59 -61v-16z" />
    <glyph glyph-name="o" unicode="o" horiz-adv-x="589" 
d="M604 255c0 -161 -119 -269 -283 -269c-160 0 -268 112 -268 266c0 161 119 271 283 271c160 0 268 -114 268 -268zM450 231c0 102 -38 201 -129 201c-73 0 -114 -62 -114 -153c0 -104 38 -202 129 -202c73 0 114 61 114 154z" />
    <glyph glyph-name="p" unicode="p" horiz-adv-x="627" 
d="M643 248c0 -169 -114 -262 -244 -262c-53 0 -88 12 -133 54v-161c0 -41 17 -55 58 -60v-17s-85 5 -135 5c-51 0 -136 -5 -136 -5v17c41 5 59 19 59 60v507c0 43 -16 56 -59 60v17c83 14 139 30 219 64c-4 -25 -9 -63 -11 -92c38 63 87 88 148 88c129 0 234 -86 234 -275z
M487 262c0 110 -55 163 -109 163c-59 0 -115 -47 -115 -184c0 -118 38 -159 107 -159c77 0 117 71 117 180z" />
    <glyph glyph-name="q" unicode="q" horiz-adv-x="623" 
d="M639 -201c0 0 -86 5 -136 5s-135 -5 -135 -5v17c41 5 58 19 58 60v173c-37 -42 -83 -63 -145 -63c-124 0 -228 90 -228 245c0 198 133 292 279 292c69 0 123 -27 170 -87c20 22 34 40 65 72h22c-5 -37 -8 -79 -8 -125v-507c0 -41 17 -55 58 -60v-17zM434 247
c0 139 -40 185 -116 185c-53 0 -109 -60 -109 -163c0 -117 36 -181 113 -181c61 0 112 44 112 159z" />
    <glyph glyph-name="r" unicode="r" horiz-adv-x="458" 
d="M480 360h-22c-26 35 -51 48 -87 48c-54 0 -105 -46 -105 -144v-187c0 -41 17 -55 58 -61v-16s-85 5 -135 5c-51 0 -136 -5 -136 -5v16c41 6 59 20 59 61v327c0 43 -16 55 -59 60v17c83 13 131 26 210 60l-9 -107c41 57 91 89 155 89c18 0 40 -3 71 -12
c-4 -50 -4 -96 0 -151z" />
    <glyph glyph-name="s" unicode="s" horiz-adv-x="475" 
d="M487 168c0 -126 -104 -182 -232 -182c-54 0 -134 14 -202 49c4 37 3 111 0 141h22c38 -84 96 -123 179 -123c52 0 97 30 97 69c0 27 -25 49 -97 67l-29 7c-116 28 -160 74 -160 155c0 96 77 172 228 172c70 0 129 -14 174 -35c-3 -39 -3 -109 0 -140h-21
c-30 70 -81 101 -160 101c-61 0 -90 -24 -90 -57c0 -39 66 -58 98 -66l30 -7c116 -28 163 -80 163 -151z" />
    <glyph glyph-name="t" unicode="t" horiz-adv-x="395" 
d="M417 105l-11 -93c-43 -15 -91 -26 -135 -26c-99 0 -159 47 -159 179v265h-59v78h59v71c51 22 77 37 130 87h24v-158h139v-80h-139v-236c0 -83 27 -112 70 -112c27 0 52 8 81 25z" />
    <glyph glyph-name="u" unicode="u" horiz-adv-x="621" 
d="M637 0c0 0 -65 5 -115 5c-49 0 -87 -5 -87 -5c3 25 4 73 5 101c-44 -85 -104 -115 -172 -115c-99 0 -156 52 -156 173v245c0 43 -16 55 -59 60v17c83 13 139 30 219 64c-2 -51 -5 -127 -6 -172l-4 -160c-2 -70 1 -116 61 -116c66 0 101 46 101 156v151
c0 43 -15 55 -58 60v17c83 13 138 30 218 64c-2 -51 -6 -127 -6 -172v-296c0 -41 18 -55 59 -61v-16z" />
    <glyph glyph-name="v" unicode="v" horiz-adv-x="532" 
d="M572 491c-40 -11 -44 -16 -67 -82l-147 -409h-120l-156 442c-12 34 -19 42 -54 49v17s74 -5 125 -5c49 0 137 5 137 5v-17c-49 -4 -64 -25 -50 -65l91 -269l83 254c18 56 11 74 -39 80v17s48 -5 99 -5c49 0 98 5 98 5v-17z" />
    <glyph glyph-name="w" unicode="w" horiz-adv-x="769" 
d="M815 491c-40 -11 -48 -21 -67 -82l-129 -409h-98l-95 289l-87 -289h-92l-151 426c-17 50 -25 56 -68 65v17s70 -5 122 -5c49 0 118 5 118 5v-17c-39 -4 -48 -14 -31 -65l87 -262l70 214l-24 62c-15 39 -22 45 -64 51v17s71 -5 122 -5c50 0 136 5 136 5v-17
c-52 -3 -66 -22 -49 -70l84 -246l64 236c16 60 10 76 -30 80v17s39 -5 90 -5c49 0 92 5 92 5v-17z" />
    <glyph glyph-name="x" unicode="x" horiz-adv-x="549" 
d="M589 0c0 0 -85 5 -136 5c-49 0 -134 -5 -134 -5v16c41 6 46 21 29 51l-64 111l-77 -107c-24 -34 -18 -49 23 -55v-16s-49 5 -100 5c-49 0 -102 -5 -102 -5v16c20 7 46 22 86 75l116 156l-107 181c-23 39 -48 58 -77 63v17s72 -5 122 -5c49 0 135 5 135 5v-17
c-38 -4 -41 -15 -19 -52l42 -70l55 80c21 31 19 38 -22 42v17s56 -5 107 -5c50 0 103 5 103 5v-17c-44 -11 -60 -24 -95 -72l-95 -126l133 -213c29 -47 49 -57 77 -64v-16z" />
    <glyph glyph-name="y" unicode="y" horiz-adv-x="544" 
d="M584 490c-25 -9 -45 -20 -59 -60l-162 -463c-36 -101 -102 -176 -184 -176c-21 0 -41 5 -70 19c0 32 -7 131 -12 152h24c10 -34 24 -54 62 -54c24 0 57 15 71 39l25 39l-193 444c-17 39 -34 51 -58 60v17s85 -5 134 -5c50 0 135 5 135 5v-17c-57 -10 -66 -20 -46 -73
l99 -258l76 258c16 56 12 63 -47 73v17s62 -5 112 -5s93 5 93 5v-17z" />
    <glyph glyph-name="z" unicode="z" horiz-adv-x="497" 
d="M510 172c-7 -29 -25 -142 -25 -172h-432l234 422c-15 1 -36 2 -56 2c-85 0 -112 -19 -129 -79h-21c7 29 24 134 24 163h401l-233 -422c15 -1 36 -2 56 -2c112 0 142 14 160 88h21z" />
    <glyph glyph-name="braceleft" unicode="{" horiz-adv-x="489" 
d="M502 -324c-171 0 -270 80 -270 193v118c0 146 -63 181 -179 194v54c121 14 182 43 182 179v129c0 98 74 189 267 189v-39c-125 -21 -170 -62 -170 -150v-128c0 -186 -137 -199 -227 -210c105 -12 223 -23 223 -227v-110c0 -97 91 -150 174 -150v-42z" />
    <glyph glyph-name="bar" unicode="|" horiz-adv-x="102" 
d="M105 -138h-52v870h52v-870z" />
    <glyph glyph-name="braceright" unicode="}" horiz-adv-x="489" 
d="M502 181c-116 -13 -178 -48 -178 -194v-118c0 -113 -100 -193 -271 -193v42c82 0 175 53 175 150v110c0 204 117 215 223 227c-90 11 -228 24 -228 210v128c0 88 -46 129 -170 150v39c194 0 268 -91 268 -189v-129c0 -136 60 -165 181 -179v-54z" />
    <glyph glyph-name="asciitilde" unicode="~" horiz-adv-x="423" 
d="M434 721c-25 -99 -71 -139 -130 -139c-50 0 -106 50 -150 50c-23 0 -34 -16 -47 -51h-54c20 83 60 135 128 135c57 0 106 -49 150 -49c23 0 33 17 50 54h53z" />
    <glyph glyph-name="Adieresis" unicode="&#xc4;" horiz-adv-x="722" 
d="M543 835c0 -37 -28 -65 -65 -65s-66 28 -66 65s29 66 66 66s65 -29 65 -66zM332 835c0 -37 -28 -65 -64 -65c-37 0 -66 28 -66 65s29 66 66 66c36 0 64 -29 64 -66zM767 0c0 0 -92 3 -150 3c-52 0 -133 -3 -133 -3v17c51 8 64 23 49 64l-49 137h-223l-49 -126
c-18 -47 -4 -66 46 -75v-17s-70 2 -116 2s-114 -2 -114 -2v17c26 0 42 13 53 41l212 573c14 37 6 54 -32 58v18s69 -5 113 -5c40 0 96 6 96 6l243 -652c10 -28 25 -34 54 -39v-17zM455 306l-66 200c-11 30 -13 36 -17 66c-5 -29 -8 -35 -17 -63l-67 -203h167z" />
    <glyph glyph-name="Aring" unicode="&#xc5;" horiz-adv-x="722" 
d="M488 886c0 -64 -51 -116 -116 -116c-63 0 -116 52 -116 116s53 115 116 115c65 0 116 -51 116 -115zM767 0c0 0 -92 3 -150 3c-52 0 -133 -3 -133 -3v17c51 8 64 23 49 64l-49 137h-223l-49 -126c-18 -47 -4 -66 46 -75v-17s-70 2 -116 2s-114 -2 -114 -2v17
c26 0 42 13 53 41l212 573c14 37 6 54 -32 58v18s69 -5 113 -5c40 0 96 6 96 6l243 -652c10 -28 25 -34 54 -39v-17zM428 886c0 30 -25 56 -56 56c-30 0 -55 -26 -55 -56c0 -31 25 -56 55 -56c31 0 56 25 56 56zM455 306l-66 200c-11 30 -13 36 -17 66
c-5 -29 -8 -35 -17 -63l-67 -203h167z" />
    <glyph glyph-name="Ccedilla" unicode="&#xc7;" horiz-adv-x="646" 
d="M671 155l-16 -115c-58 -40 -133 -65 -219 -66l-21 -42h18c64 0 110 -34 110 -90c0 -77 -85 -125 -197 -131l-5 39c84 14 128 45 128 80c0 32 -27 50 -61 50c-22 0 -42 -7 -85 -25l56 122c-185 24 -326 172 -326 366c0 226 172 389 396 389c71 0 140 -16 202 -44
c0 0 -3 -62 -3 -101c0 -42 3 -107 3 -107h-22c-14 86 -77 149 -185 149c-146 0 -223 -121 -223 -242c0 -195 123 -299 255 -299c53 0 117 17 195 67z" />
    <glyph glyph-name="Eacute" unicode="&#xc9;" horiz-adv-x="640" 
d="M567 935c0 -29 -20 -46 -105 -99l-92 -57h-72l106 111c63 66 83 92 117 92c26 0 46 -21 46 -47zM656 206l-18 -206h-585v17c43 6 56 17 56 64v545c0 47 -13 59 -56 63v18h568l8 -178h-24c-17 73 -37 84 -111 84h-222v-198h132c53 0 77 14 88 58h20s-3 -62 -3 -101
c0 -41 3 -104 3 -104h-20c-11 43 -35 56 -88 56h-132v-231h215c100 0 123 14 145 113h24z" />
    <glyph glyph-name="Ntilde" unicode="&#xd1;" horiz-adv-x="752" 
d="M619 918c-23 -99 -70 -139 -129 -139c-49 0 -106 51 -151 51c-21 0 -33 -16 -47 -52h-52c18 84 58 136 127 136c57 0 107 -49 151 -49c21 0 32 16 49 53h52zM771 689c-45 -5 -56 -16 -56 -57v-632s-36 1 -61 1c-23 0 -60 -1 -60 -1l-386 561l5 -470c1 -50 17 -65 74 -74
v-17s-77 5 -125 5c-42 0 -109 -5 -109 -5v17c45 7 57 17 57 58v547c0 62 -16 62 -52 67v18s71 -5 115 -5c45 0 117 6 117 6l327 -476l-6 383c-1 51 -15 67 -74 74v18s76 -5 125 -5c43 0 109 5 109 5v-18z" />
    <glyph glyph-name="Odieresis" unicode="&#xd6;" horiz-adv-x="783" 
d="M594 846c0 -37 -28 -65 -65 -65s-65 28 -65 65s28 65 65 65s65 -28 65 -65zM384 846c0 -37 -28 -65 -65 -65s-66 28 -66 65s29 65 66 65s65 -28 65 -65zM803 354c0 -218 -156 -380 -375 -380s-375 164 -375 380c0 213 156 378 375 378s375 -162 375 -378zM628 372
c-32 201 -132 262 -227 257c-116 -6 -201 -123 -177 -291c28 -201 138 -261 227 -256c116 6 203 123 177 290z" />
    <glyph glyph-name="Udieresis" unicode="&#xdc;" horiz-adv-x="745" 
d="M579 846c0 -37 -28 -65 -64 -65c-37 0 -66 28 -66 65s29 65 66 65c36 0 64 -28 64 -65zM369 846c0 -37 -28 -65 -65 -65c-36 0 -65 28 -65 65s29 65 65 65c37 0 65 -28 65 -65zM764 689c-43 -4 -55 -16 -55 -63v-367c0 -179 -68 -285 -300 -285c-236 0 -300 106 -300 285
v367c0 47 -13 59 -56 63v18s83 -5 137 -5c53 0 136 5 136 5v-18c-43 -4 -54 -16 -54 -63v-408c0 -95 38 -150 137 -150c100 0 137 55 137 150v408c0 47 -12 59 -55 63v18s83 -5 136 -5c54 0 137 5 137 5v-18z" />
    <glyph glyph-name="aacute" unicode="&#xe1;" horiz-adv-x="575" 
d="M519 728c0 -30 -20 -46 -106 -99l-91 -57l-72 -1l106 112c63 67 83 91 117 91c25 0 46 -20 46 -46zM601 0c0 0 -69 5 -119 5c-49 0 -87 -5 -87 -5c3 25 4 45 5 74c-50 -65 -99 -88 -172 -88c-103 0 -175 53 -175 152c0 93 57 145 186 166l114 18c32 5 38 12 38 45
c0 45 -38 77 -96 77c-89 0 -136 -34 -161 -99h-22c3 28 10 121 10 146c43 19 114 32 182 32c189 0 239 -73 239 -192v-254c0 -41 17 -55 58 -61v-16zM392 229v21l-55 -10c-93 -18 -134 -44 -134 -91c0 -40 33 -68 65 -68c76 0 124 53 124 148z" />
    <glyph glyph-name="agrave" unicode="&#xe0;" horiz-adv-x="575" 
d="M365 571l-75 2l-90 56c-84 51 -105 69 -105 99c0 26 21 46 47 46c33 0 53 -25 117 -92zM601 0c0 0 -69 5 -119 5c-49 0 -87 -5 -87 -5c3 25 4 45 5 74c-50 -65 -99 -88 -172 -88c-103 0 -175 53 -175 152c0 93 57 145 186 166l114 18c32 5 38 12 38 45
c0 45 -38 77 -96 77c-89 0 -136 -34 -161 -99h-22c3 28 10 121 10 146c43 19 114 32 182 32c189 0 239 -73 239 -192v-254c0 -41 17 -55 58 -61v-16zM392 229v21l-55 -10c-93 -18 -134 -44 -134 -91c0 -40 33 -68 65 -68c76 0 124 53 124 148z" />
    <glyph glyph-name="acircumflex" unicode="&#xe2;" horiz-adv-x="575" 
d="M493 573h-68l-115 100l-118 -101l-65 -1l142 196h82zM601 0c0 0 -69 5 -119 5c-49 0 -87 -5 -87 -5c3 25 4 45 5 74c-50 -65 -99 -88 -172 -88c-103 0 -175 53 -175 152c0 93 57 145 186 166l114 18c32 5 38 12 38 45c0 45 -38 77 -96 77c-89 0 -136 -34 -161 -99h-22
c3 28 10 121 10 146c43 19 114 32 182 32c189 0 239 -73 239 -192v-254c0 -41 17 -55 58 -61v-16zM392 229v21l-55 -10c-93 -18 -134 -44 -134 -91c0 -40 33 -68 65 -68c76 0 124 53 124 148z" />
    <glyph glyph-name="adieresis" unicode="&#xe4;" horiz-adv-x="575" 
d="M490 637c0 -37 -28 -66 -65 -66s-65 29 -65 66c0 36 28 65 65 65s65 -29 65 -65zM280 637c0 -37 -29 -66 -66 -66s-64 29 -64 66c0 36 27 65 64 65s66 -29 66 -65zM601 0c0 0 -69 5 -119 5c-49 0 -87 -5 -87 -5c3 25 4 45 5 74c-50 -65 -99 -88 -172 -88
c-103 0 -175 53 -175 152c0 93 57 145 186 166l114 18c32 5 38 12 38 45c0 45 -38 77 -96 77c-89 0 -136 -34 -161 -99h-22c3 28 10 121 10 146c43 19 114 32 182 32c189 0 239 -73 239 -192v-254c0 -41 17 -55 58 -61v-16zM392 229v21l-55 -10c-93 -18 -134 -44 -134 -91
c0 -40 33 -68 65 -68c76 0 124 53 124 148z" />
    <glyph glyph-name="atilde" unicode="&#xe3;" horiz-adv-x="575" 
d="M512 710c-23 -99 -69 -139 -128 -139c-50 0 -106 51 -150 51c-23 0 -33 -16 -45 -52h-55c20 84 60 136 127 136c57 0 106 -50 150 -50c23 0 33 17 47 54h54zM601 0c0 0 -69 5 -119 5c-49 0 -87 -5 -87 -5c3 25 4 45 5 74c-50 -65 -99 -88 -172 -88
c-103 0 -175 53 -175 152c0 93 57 145 186 166l114 18c32 5 38 12 38 45c0 45 -38 77 -96 77c-89 0 -136 -34 -161 -99h-22c3 28 10 121 10 146c43 19 114 32 182 32c189 0 239 -73 239 -192v-254c0 -41 17 -55 58 -61v-16zM392 229v21l-55 -10c-93 -18 -134 -44 -134 -91
c0 -40 33 -68 65 -68c76 0 124 53 124 148z" />
    <glyph glyph-name="aring" unicode="&#xe5;" horiz-adv-x="575" 
d="M433 687c0 -64 -52 -116 -116 -116c-65 0 -116 52 -116 116s51 116 116 116c64 0 116 -52 116 -116zM601 0c0 0 -69 5 -119 5c-49 0 -87 -5 -87 -5c3 25 4 45 5 74c-50 -65 -99 -88 -172 -88c-103 0 -175 53 -175 152c0 93 57 145 186 166l114 18c32 5 38 12 38 45
c0 45 -38 77 -96 77c-89 0 -136 -34 -161 -99h-22c3 28 10 121 10 146c43 19 114 32 182 32c189 0 239 -73 239 -192v-254c0 -41 17 -55 58 -61v-16zM372 687c0 29 -26 56 -55 56c-30 0 -56 -27 -56 -56c0 -30 26 -56 56 -56c29 0 55 26 55 56zM392 229v21l-55 -10
c-93 -18 -134 -44 -134 -91c0 -40 33 -68 65 -68c76 0 124 53 124 148z" />
    <glyph glyph-name="ccedilla" unicode="&#xe7;" horiz-adv-x="480" 
d="M493 116l-25 -105c-38 -17 -89 -25 -143 -25l-16 -36h13c55 0 93 -30 93 -77c0 -66 -71 -107 -167 -112l-4 33c72 12 110 39 110 69c0 25 -24 43 -52 43c-19 0 -36 -7 -72 -22l48 104c-153 18 -225 132 -225 261c0 154 107 274 294 274c50 0 99 -11 140 -31
c-2 -37 -2 -113 0 -156h-23c-22 69 -66 98 -113 98c-67 0 -142 -61 -142 -169c0 -124 78 -186 167 -186c30 0 69 10 117 37z" />
    <glyph glyph-name="eacute" unicode="&#xe9;" horiz-adv-x="547" 
d="M539 738c0 -29 -19 -45 -104 -98l-92 -57l-71 -1l104 111c64 68 83 92 117 92c27 0 46 -20 46 -47zM561 284c0 -12 0 -26 -2 -35l-352 -6c10 -97 81 -158 181 -158c38 0 95 24 160 66l-17 -105c-66 -43 -136 -60 -203 -60c-161 0 -275 108 -275 273
c0 159 114 264 276 264c120 0 232 -74 232 -239zM410 327c0 75 -54 111 -97 111c-60 0 -95 -43 -106 -111h203z" />
    <glyph glyph-name="egrave" unicode="&#xe8;" horiz-adv-x="547" 
d="M365 582h-74l-90 58c-84 54 -106 69 -106 98c0 27 21 47 47 47c33 0 53 -25 116 -92zM561 284c0 -12 0 -26 -2 -35l-352 -6c10 -97 81 -158 181 -158c38 0 95 24 160 66l-17 -105c-66 -43 -136 -60 -203 -60c-161 0 -275 108 -275 273c0 159 114 264 276 264
c120 0 232 -74 232 -239zM410 327c0 75 -54 111 -97 111c-60 0 -95 -43 -106 -111h203z" />
    <glyph glyph-name="ecircumflex" unicode="&#xea;" horiz-adv-x="547" 
d="M515 582h-69l-116 103l-117 -103h-65l142 195h80zM561 284c0 -12 0 -26 -2 -35l-352 -6c10 -97 81 -158 181 -158c38 0 95 24 160 66l-17 -105c-66 -43 -136 -60 -203 -60c-161 0 -275 108 -275 273c0 159 114 264 276 264c120 0 232 -74 232 -239zM410 327
c0 75 -54 111 -97 111c-60 0 -95 -43 -106 -111h203z" />
    <glyph glyph-name="edieresis" unicode="&#xeb;" horiz-adv-x="547" 
d="M501 647c0 -37 -28 -65 -65 -65s-66 28 -66 65s29 65 66 65s65 -28 65 -65zM290 647c0 -37 -28 -65 -65 -65c-36 0 -65 28 -65 65s29 65 65 65c37 0 65 -28 65 -65zM561 284c0 -12 0 -26 -2 -35l-352 -6c10 -97 81 -158 181 -158c38 0 95 24 160 66l-17 -105
c-66 -43 -136 -60 -203 -60c-161 0 -275 108 -275 273c0 159 114 264 276 264c120 0 232 -74 232 -239zM410 327c0 75 -54 111 -97 111c-60 0 -95 -43 -106 -111h203z" />
    <glyph glyph-name="iacute" unicode="&#xed;" horiz-adv-x="316" 
d="M393 738c0 -29 -22 -44 -106 -98l-91 -58h-72l106 111c63 67 83 92 116 92c26 0 47 -20 47 -47zM324 0c0 0 -85 5 -135 5c-51 0 -136 -5 -136 -5v16c41 6 59 20 59 61v327c0 43 -16 55 -59 60v17c83 13 139 30 219 64c-2 -51 -6 -127 -6 -172v-296c0 -41 17 -55 58 -61
v-16z" />
    <glyph glyph-name="igrave" unicode="&#xec;" horiz-adv-x="316" 
d="M239 582h-74l-90 57c-84 54 -106 69 -106 98c0 27 21 47 46 47c34 0 53 -25 117 -92zM324 0c0 0 -85 5 -135 5c-51 0 -136 -5 -136 -5v16c41 6 59 20 59 61v327c0 43 -16 55 -59 60v17c83 13 139 30 219 64c-2 -51 -6 -127 -6 -172v-296c0 -41 17 -55 58 -61v-16z" />
    <glyph glyph-name="icircumflex" unicode="&#xee;" horiz-adv-x="316" 
d="M367 582h-69l-115 103l-116 -103h-67l143 195h80zM324 0c0 0 -85 5 -135 5c-51 0 -136 -5 -136 -5v16c41 6 59 20 59 61v327c0 43 -16 55 -59 60v17c83 13 139 30 219 64c-2 -51 -6 -127 -6 -172v-296c0 -41 17 -55 58 -61v-16z" />
    <glyph glyph-name="idieresis" unicode="&#xef;" horiz-adv-x="316" 
d="M354 647c0 -37 -29 -65 -66 -65s-65 28 -65 65s28 65 65 65s66 -28 66 -65zM143 647c0 -37 -28 -65 -65 -65s-66 28 -66 65s29 65 66 65s65 -28 65 -65zM324 0c0 0 -85 5 -135 5c-51 0 -136 -5 -136 -5v16c41 6 59 20 59 61v327c0 43 -16 55 -59 60v17
c83 13 139 30 219 64c-2 -51 -6 -127 -6 -172v-296c0 -41 17 -55 58 -61v-16z" />
    <glyph glyph-name="ntilde" unicode="&#xf1;" horiz-adv-x="621" 
d="M545 721c-24 -99 -70 -139 -130 -139c-49 0 -105 50 -150 50c-22 0 -33 -16 -48 -51h-52c19 83 59 135 127 135c58 0 107 -49 151 -49c22 0 33 17 49 54h53zM637 0c0 0 -65 5 -115 5c-49 0 -103 -5 -103 -5l9 294c2 71 -1 116 -61 116c-66 0 -101 -45 -101 -156v-177
c0 -41 7 -55 48 -61v-16s-75 5 -125 5c-51 0 -136 -5 -136 -5v16c41 6 59 20 59 61v327c0 43 -16 55 -59 60v17c83 13 139 30 219 64c-3 -51 -6 -60 -6 -105c47 61 87 83 157 83c98 0 155 -53 155 -173v-273c0 -41 18 -55 59 -61v-16z" />
    <glyph glyph-name="oacute" unicode="&#xf3;" horiz-adv-x="589" 
d="M560 738c0 -29 -22 -44 -106 -98l-91 -58h-72l106 111c63 67 83 92 117 92c25 0 46 -20 46 -47zM604 255c0 -161 -119 -269 -283 -269c-160 0 -268 112 -268 266c0 161 119 271 283 271c160 0 268 -114 268 -268zM450 231c0 102 -38 201 -129 201
c-73 0 -114 -62 -114 -153c0 -104 38 -202 129 -202c73 0 114 61 114 154z" />
    <glyph glyph-name="ograve" unicode="&#xf2;" horiz-adv-x="589" 
d="M374 582h-73l-91 57c-84 54 -104 69 -104 98c0 27 19 47 46 47c34 0 53 -24 117 -92zM604 255c0 -161 -119 -269 -283 -269c-160 0 -268 112 -268 266c0 161 119 271 283 271c160 0 268 -114 268 -268zM450 231c0 102 -38 201 -129 201c-73 0 -114 -62 -114 -153
c0 -104 38 -202 129 -202c73 0 114 61 114 154z" />
    <glyph glyph-name="ocircumflex" unicode="&#xf4;" horiz-adv-x="589" 
d="M524 582h-69l-116 103l-116 -104l-66 1l142 195h80zM604 255c0 -161 -119 -269 -283 -269c-160 0 -268 112 -268 266c0 161 119 271 283 271c160 0 268 -114 268 -268zM450 231c0 102 -38 201 -129 201c-73 0 -114 -62 -114 -153c0 -104 38 -202 129 -202
c73 0 114 61 114 154z" />
    <glyph glyph-name="odieresis" unicode="&#xf6;" horiz-adv-x="589" 
d="M510 647c0 -37 -28 -65 -65 -65s-66 28 -66 65s29 65 66 65s65 -28 65 -65zM299 647c0 -37 -27 -65 -64 -65s-66 28 -66 65s29 65 66 65s64 -28 64 -65zM604 255c0 -161 -119 -269 -283 -269c-160 0 -268 112 -268 266c0 161 119 271 283 271c160 0 268 -114 268 -268z
M450 231c0 102 -38 201 -129 201c-73 0 -114 -62 -114 -153c0 -104 38 -202 129 -202c73 0 114 61 114 154z" />
    <glyph glyph-name="otilde" unicode="&#xf5;" horiz-adv-x="589" 
d="M533 721c-24 -99 -70 -139 -129 -139c-49 0 -107 50 -151 50c-21 0 -34 -16 -47 -51h-52c18 83 58 135 127 135c56 0 106 -49 151 -49c21 0 32 17 49 54h52zM604 255c0 -161 -119 -269 -283 -269c-160 0 -268 112 -268 266c0 161 119 271 283 271
c160 0 268 -114 268 -268zM450 231c0 102 -38 201 -129 201c-73 0 -114 -62 -114 -153c0 -104 38 -202 129 -202c73 0 114 61 114 154z" />
    <glyph glyph-name="uacute" unicode="&#xfa;" horiz-adv-x="621" 
d="M571 738c0 -29 -21 -44 -105 -98l-92 -58h-71l105 111c64 67 83 92 117 92c26 0 46 -20 46 -47zM637 0c0 0 -65 5 -115 5c-49 0 -87 -5 -87 -5c3 25 4 73 5 101c-44 -85 -104 -115 -172 -115c-99 0 -156 52 -156 173v245c0 43 -16 55 -59 60v17c83 13 139 30 219 64
c-2 -51 -5 -127 -6 -172l-4 -160c-2 -70 1 -116 61 -116c66 0 101 46 101 156v151c0 43 -15 55 -58 60v17c83 13 138 30 218 64c-2 -51 -6 -127 -6 -172v-296c0 -41 18 -55 59 -61v-16z" />
    <glyph glyph-name="ugrave" unicode="&#xf9;" horiz-adv-x="621" 
d="M417 582h-73l-91 58c-84 54 -104 69 -104 98c0 27 19 47 46 47c34 0 53 -24 117 -92zM637 0c0 0 -65 5 -115 5c-49 0 -87 -5 -87 -5c3 25 4 73 5 101c-44 -85 -104 -115 -172 -115c-99 0 -156 52 -156 173v245c0 43 -16 55 -59 60v17c83 13 139 30 219 64
c-2 -51 -5 -127 -6 -172l-4 -160c-2 -70 1 -116 61 -116c66 0 101 46 101 156v151c0 43 -15 55 -58 60v17c83 13 138 30 218 64c-2 -51 -6 -127 -6 -172v-296c0 -41 18 -55 59 -61v-16z" />
    <glyph glyph-name="ucircumflex" unicode="&#xfb;" horiz-adv-x="621" 
d="M535 582h-68l-115 103l-117 -103h-67l144 195h80zM637 0c0 0 -65 5 -115 5c-49 0 -87 -5 -87 -5c3 25 4 73 5 101c-44 -85 -104 -115 -172 -115c-99 0 -156 52 -156 173v245c0 43 -16 55 -59 60v17c83 13 139 30 219 64c-2 -51 -5 -127 -6 -172l-4 -160
c-2 -70 1 -116 61 -116c66 0 101 46 101 156v151c0 43 -15 55 -58 60v17c83 13 138 30 218 64c-2 -51 -6 -127 -6 -172v-296c0 -41 18 -55 59 -61v-16z" />
    <glyph glyph-name="udieresis" unicode="&#xfc;" horiz-adv-x="621" 
d="M522 647c0 -37 -29 -65 -66 -65s-64 28 -64 65s27 65 64 65s66 -28 66 -65zM312 647c0 -37 -29 -65 -66 -65s-65 28 -65 65s28 65 65 65s66 -28 66 -65zM637 0c0 0 -65 5 -115 5c-49 0 -87 -5 -87 -5c3 25 4 73 5 101c-44 -85 -104 -115 -172 -115
c-99 0 -156 52 -156 173v245c0 43 -16 55 -59 60v17c83 13 139 30 219 64c-2 -51 -5 -127 -6 -172l-4 -160c-2 -70 1 -116 61 -116c66 0 101 46 101 156v151c0 43 -15 55 -58 60v17c83 13 138 30 218 64c-2 -51 -6 -127 -6 -172v-296c0 -41 18 -55 59 -61v-16z" />
    <glyph glyph-name="dagger" unicode="&#x2020;" 
 />
    <glyph glyph-name="degree" unicode="&#xb0;" horiz-adv-x="350" 
d="M359 274c0 -73 -55 -128 -162 -128c-83 0 -144 47 -144 123c0 51 33 91 86 109c-40 33 -62 63 -62 100c0 60 48 108 137 108c75 0 134 -42 134 -105c0 -45 -25 -73 -68 -93c65 -47 79 -68 79 -114zM264 486c0 32 -19 49 -51 49c-25 0 -45 -21 -45 -42
c0 -26 26 -48 61 -71c26 29 35 44 35 64zM269 257c0 41 -40 65 -79 89c-39 -28 -56 -49 -56 -77c0 -40 30 -71 70 -71c39 0 65 27 65 59z" />
    <glyph glyph-name="cent" unicode="&#xa2;" horiz-adv-x="441" 
d="M453 269l-23 -96c-32 -14 -75 -22 -123 -23v-103h-73v109c-122 25 -181 124 -181 235c0 112 65 206 181 237v117h73v-106c60 0 100 -9 141 -28c-2 -34 -2 -103 0 -142h-21c-20 62 -61 89 -103 89c-61 0 -128 -55 -128 -154c0 -113 70 -169 151 -169c27 0 62 9 106 34z
" />
    <glyph glyph-name="sterling" unicode="&#xa3;" horiz-adv-x="612" 
d="M625 228c0 0 -25 -158 -23 -228h-492c33 37 91 131 91 209c0 41 -8 77 -19 111h-129v86h99c-9 26 -15 49 -15 76c0 146 147 245 278 245c70 0 142 -28 167 -49c-3 -32 8 -169 8 -169h-20c-29 80 -76 129 -169 129c-68 0 -111 -38 -111 -93c0 -56 16 -99 32 -139h183v-86
h-155c1 -7 2 -14 2 -22c0 -68 -50 -127 -99 -170h227c77 0 97 17 125 100h20z" />
    <glyph glyph-name="section" unicode="&#xa7;" 
 />
    <glyph glyph-name="bullet" unicode="&#x2022;" horiz-adv-x="239" 
d="M245 317c0 -53 -43 -95 -95 -95c-54 0 -97 42 -97 95c0 52 43 95 97 95c52 0 95 -43 95 -95z" />
    <glyph glyph-name="paragraph" unicode="&#xb6;" 
 />
    <glyph glyph-name="germandbls" unicode="&#xdf;" horiz-adv-x="638" 
d="M653 200c0 -144 -108 -214 -223 -214c-46 0 -82 12 -128 47c-7 23 -18 85 -21 117h21c27 -62 68 -97 106 -97c61 0 91 36 91 147c0 83 -58 160 -193 193v25c85 30 135 77 135 153c0 66 -40 120 -93 120c-59 0 -84 -36 -84 -125v-567c-22 2 -65 6 -107 6
c-44 0 -114 -5 -114 -5v16c49 1 67 20 67 61v353h-81v39c67 8 84 22 84 91c0 129 94 224 239 224c141 0 244 -93 244 -207c0 -85 -67 -145 -158 -163c161 -30 215 -123 215 -214z" />
    <glyph glyph-name="registered" unicode="&#xae;" horiz-adv-x="572" 
d="M587 467c0 -147 -116 -269 -264 -269s-270 122 -270 269s124 265 270 265c147 0 264 -118 264 -265zM559 467c0 132 -107 236 -236 236c-130 0 -241 -104 -241 -236c0 -131 110 -238 241 -238c130 0 236 107 236 238zM490 385c-2 -31 -12 -80 -66 -80
c-67 0 -55 82 -61 112c-4 20 -26 40 -48 40h-41v-85c0 -39 6 -43 54 -43v-18h-158v18c37 0 53 1 53 33v207c0 29 -11 34 -53 34v18h116c99 0 165 -19 165 -77c0 -56 -69 -73 -105 -79c96 -27 64 -136 99 -136c20 0 26 30 29 56h16zM388 547c-2 33 -27 57 -74 57
c-31 0 -40 -8 -40 -43v-81h49c58 0 66 44 65 67z" />
    <glyph glyph-name="copyright" unicode="&#xa9;" horiz-adv-x="572" 
d="M587 467c0 -147 -116 -269 -264 -269s-270 122 -270 269s124 265 270 265c147 0 264 -118 264 -265zM559 467c0 132 -107 236 -236 236c-130 0 -241 -104 -241 -236c0 -131 110 -238 241 -238c130 0 236 107 236 238zM452 389c-44 -66 -81 -87 -140 -87
c-79 0 -150 75 -150 168c0 95 82 165 154 165c45 0 69 -19 90 -28c10 -4 17 12 21 25h17v-128h-16c-10 45 -42 112 -105 112c-58 0 -95 -59 -95 -149c0 -76 35 -142 106 -142c41 0 74 30 103 73z" />
    <glyph glyph-name="trademark" unicode="&#x2122;" horiz-adv-x="786" 
d="M806 357c0 0 -43 3 -70 3c-28 0 -72 -3 -72 -3v9c28 3 36 10 34 43l-13 217l-96 -269h-44l-101 270l-8 -232c-1 -19 6 -27 34 -29v-9s-33 2 -55 2c-23 0 -61 -2 -61 -2v9c23 2 29 7 31 32l16 265c2 31 -2 35 -25 39v8s39 -2 64 -2c18 0 49 3 49 3l93 -242l88 242
s34 -3 56 -3c21 0 55 2 55 2v-8c-21 -6 -25 -13 -23 -35l19 -266c3 -29 8 -33 29 -35v-9zM363 603h-9c-18 64 -27 59 -80 59h-25v-264c0 -25 8 -29 38 -32v-9s-52 3 -79 3c-26 0 -79 -3 -79 -3v9c31 3 38 7 38 32v264h-24c-54 0 -63 5 -79 -59h-11c3 20 10 81 10 104h292
c0 -23 5 -84 8 -104z" />
    <glyph glyph-name="acute" unicode="&#xb4;" horiz-adv-x="315" 
d="M323 738c0 -29 -21 -44 -106 -98l-91 -58h-72l106 111c63 67 83 92 117 92c26 0 46 -20 46 -47z" />
    <glyph glyph-name="dieresis" unicode="&#xa8;" horiz-adv-x="385" 
d="M395 647c0 -37 -29 -65 -66 -65s-65 28 -65 65s28 65 65 65s66 -28 66 -65zM184 647c0 -37 -28 -65 -65 -65s-66 28 -66 65s29 65 66 65s65 -28 65 -65z" />
    <glyph glyph-name="notequal" unicode="&#x2260;" horiz-adv-x="325" 
d="M325 271c0 -67 -56 -105 -119 -111v-64h-41v64c-43 2 -75 9 -101 18c1 32 -6 106 -6 106h11c11 -51 40 -81 104 -81c42 0 76 16 76 49c0 70 -196 29 -196 155c0 56 46 95 112 102v56h41v-55c35 -1 64 -6 93 -18c0 -33 5 -95 5 -95h-8c-15 45 -44 70 -99 70
c-47 0 -70 -17 -70 -44c0 -67 198 -36 198 -152z" />
    <glyph glyph-name="AE" unicode="&#xc6;" horiz-adv-x="1017" 
d="M1042 206l-18 -206h-563v17c43 6 55 17 55 64v137h-187l-75 -126c-28 -47 -18 -66 31 -75v-17s-72 2 -117 2s-115 -2 -115 -2v17c28 0 46 12 63 41l334 573c22 36 17 54 -21 58v18h578l8 -178h-24c-17 73 -37 84 -111 84h-201v-198h111c54 0 77 14 88 58h20
s-3 -62 -3 -101c0 -41 3 -104 3 -104h-20c-11 43 -34 56 -88 56h-111v-231h194c100 0 123 14 145 113h24zM516 306v263c-11 -26 -16 -32 -31 -60l-110 -203h141z" />
    <glyph glyph-name="Oslash" unicode="&#xd8;" horiz-adv-x="783" 
d="M803 354c0 -218 -156 -380 -375 -380c-95 0 -178 31 -241 83l-76 -83h-57l102 112c-65 68 -103 162 -103 268c0 213 156 378 375 378c95 0 178 -30 242 -83l76 83h56l-101 -111c64 -66 102 -160 102 -267zM570 539c-46 70 -108 93 -169 90c-116 -6 -201 -123 -177 -291
c7 -54 22 -99 39 -135zM628 372c-8 52 -21 95 -37 130l-305 -335c46 -66 110 -88 165 -85c116 6 203 123 177 290z" />
    <glyph glyph-name="infinity" unicode="&#x221e;" horiz-adv-x="558" 
d="M556 738c0 -29 -22 -44 -106 -98l-91 -58h-72l106 111c63 67 83 92 116 92c26 0 47 -20 47 -47zM584 490c-25 -9 -45 -20 -59 -60l-162 -463c-36 -101 -102 -176 -184 -176c-21 0 -41 5 -70 19c0 32 -7 131 -12 152h24c10 -34 24 -54 62 -54c24 0 57 15 71 39l25 39
l-193 444c-17 39 -34 51 -58 60v17s85 -5 134 -5c50 0 135 5 135 5v-17c-57 -10 -66 -20 -46 -73l99 -258l76 258c16 56 12 63 -47 73v17s62 -5 112 -5s93 5 93 5v-17z" />
    <glyph glyph-name="plusminus" unicode="&#xb1;" horiz-adv-x="286" 
d="M293 245l-14 -56c-20 -10 -45 -15 -74 -16v-60h-44v64c-73 16 -108 75 -108 142s38 123 108 142v70h44v-64c36 0 60 -5 85 -16c-2 -21 -2 -62 0 -85h-12c-13 37 -37 52 -63 52c-37 0 -77 -32 -77 -92c0 -68 43 -101 92 -101c16 0 36 6 63 20z" />
    <glyph glyph-name="yen" unicode="&#xa5;" 
 />
    <glyph glyph-name="mu" unicode="&#xb5;" 
 />
    <glyph glyph-name="mu" unicode="&#x3bc;" 
 />
    <glyph glyph-name="ordfeminine" unicode="&#xaa;" horiz-adv-x="356" 
d="M365 422c0 -132 -103 -234 -241 -276l-14 27c61 41 124 106 151 166c-23 -16 -54 -24 -79 -24c-61 0 -129 48 -129 130c0 80 67 141 156 141c93 0 156 -64 156 -164zM276 448c0 57 -34 89 -69 89c-36 0 -60 -22 -60 -80c0 -57 30 -88 62 -88c34 0 67 24 67 79z" />
    <glyph glyph-name="ordmasculine" unicode="&#xba;" horiz-adv-x="366" 
d="M375 362c0 -131 -72 -216 -158 -216c-102 0 -164 88 -164 222c0 131 74 218 158 218c104 0 164 -90 164 -224zM277 372c0 125 -23 162 -61 162c-41 0 -61 -57 -61 -175c0 -125 20 -162 58 -162c42 0 64 57 64 175z" />
    <glyph glyph-name="ae" unicode="&#xe6;" horiz-adv-x="865" 
d="M887 284c0 -12 0 -26 -2 -35l-352 -6c11 -97 81 -158 181 -158c38 0 95 24 160 66l-17 -105c-66 -43 -136 -60 -203 -60c-70 0 -130 21 -178 58c-17 13 -29 29 -37 45c-75 -82 -137 -103 -211 -103c-103 0 -175 53 -175 152c0 93 57 145 186 166l114 18c32 5 38 12 38 45
c0 45 -38 77 -96 77c-89 0 -136 -34 -161 -99h-22c3 28 10 121 10 146c43 19 114 32 182 32c91 0 148 -17 185 -46c45 29 101 46 166 46c120 0 232 -74 232 -239zM736 327c0 75 -54 111 -97 111c-60 0 -94 -43 -106 -111h203zM392 229v21l-55 -10c-93 -18 -134 -44 -134 -91
c0 -40 33 -68 65 -68c76 0 124 53 124 148z" />
    <glyph glyph-name="oslash" unicode="&#xf8;" horiz-adv-x="589" 
d="M604 255c0 -161 -119 -269 -283 -269c-66 0 -121 18 -165 50l-46 -50h-57l72 78c-45 47 -72 112 -72 188c0 161 119 271 283 271c65 0 120 -19 165 -50l47 51h56l-73 -79c46 -47 73 -114 73 -190zM414 378c-20 32 -51 54 -93 54c-73 0 -114 -62 -114 -153
c0 -38 5 -76 17 -109zM450 231c0 38 -5 75 -16 107l-191 -208c21 -33 51 -53 93 -53c73 0 114 61 114 154z" />
    <glyph glyph-name="questiondown" unicode="&#xbf;" 
 />
    <glyph glyph-name="exclamdown" unicode="&#xa1;" horiz-adv-x="228" 
d="M234 154c0 0 -48 3 -81 3s-88 -3 -88 -3v14c32 7 41 15 41 37v274c0 41 -10 47 -53 51v17c55 8 100 18 146 38h5c-1 -29 -3 -75 -3 -101v-279c0 -22 6 -31 33 -37v-14z" />
    <glyph glyph-name="logicalnot" unicode="&#xac;" 
 />
    <glyph glyph-name="radical" unicode="&#x221a;" horiz-adv-x="419" 
d="M421 778l-144 -196h-80l-144 196h67l117 -104l116 104h68z" />
    <glyph glyph-name="florin" unicode="&#x192;" horiz-adv-x="636" 
d="M589 653c0 -48 -39 -86 -87 -86c-49 0 -88 38 -88 86v9c-11 18 -29 29 -49 29c-48 0 -76 -29 -76 -117v-66h83v-80h-83v-351c0 -42 12 -54 80 -61v-16s-107 5 -158 5c-49 0 -142 -5 -142 -5v16c49 1 65 20 65 61v353h-81v39c69 8 84 22 84 91c0 145 81 224 223 224
c21 0 42 -2 61 -6c0 0 6 -79 6 -80c16 26 43 43 75 43c48 0 87 -39 87 -88zM652 0c0 0 -85 5 -135 5s-122 -5 -122 -5v16c34 7 45 20 45 61v327c0 43 -10 55 -47 60v17c83 13 127 30 207 64c-2 -51 -6 -127 -6 -172v-296c0 -41 17 -55 58 -61v-16z" />
    <glyph glyph-name="guillemotleft" unicode="&#xab;" 
 />
    <glyph glyph-name="guillemotright" unicode="&#xbb;" 
 />
    <glyph glyph-name="ellipsis" unicode="&#x2026;" 
 />
    <glyph glyph-name="nbspace" unicode="&#xa0;" 
 />
    <glyph glyph-name="Agrave" unicode="&#xc0;" horiz-adv-x="722" 
d="M423 781h-73l-92 57c-85 53 -104 70 -104 99c0 26 19 47 46 47c34 0 54 -25 117 -92zM767 0c0 0 -92 3 -150 3c-52 0 -133 -3 -133 -3v17c51 8 64 23 49 64l-49 137h-223l-49 -126c-18 -47 -4 -66 46 -75v-17s-70 2 -116 2s-114 -2 -114 -2v17c26 0 42 13 53 41l212 573
c14 37 6 54 -32 58v18s69 -5 113 -5c40 0 96 6 96 6l243 -652c10 -28 25 -34 54 -39v-17zM455 306l-66 200c-11 30 -13 36 -17 66c-5 -29 -8 -35 -17 -63l-67 -203h167z" />
    <glyph glyph-name="Atilde" unicode="&#xc3;" horiz-adv-x="722" 
d="M582 919c-24 -98 -71 -138 -130 -138c-49 0 -106 50 -150 50c-22 0 -33 -16 -48 -52h-52c19 84 59 136 127 136c57 0 107 -49 151 -49c22 0 32 17 49 53h53zM767 0c0 0 -92 3 -150 3c-52 0 -133 -3 -133 -3v17c51 8 64 23 49 64l-49 137h-223l-49 -126
c-18 -47 -4 -66 46 -75v-17s-70 2 -116 2s-114 -2 -114 -2v17c26 0 42 13 53 41l212 573c14 37 6 54 -32 58v18s69 -5 113 -5c40 0 96 6 96 6l243 -652c10 -28 25 -34 54 -39v-17zM455 306l-66 200c-11 30 -13 36 -17 66c-5 -29 -8 -35 -17 -63l-67 -203h167z" />
    <glyph glyph-name="Otilde" unicode="&#xd5;" horiz-adv-x="783" 
d="M629 919c-24 -98 -70 -138 -130 -138c-49 0 -105 50 -149 50c-23 0 -34 -16 -48 -52h-53c20 84 60 136 127 136c58 0 107 -49 151 -49c22 0 33 17 49 53h53zM803 354c0 -218 -156 -380 -375 -380s-375 164 -375 380c0 213 156 378 375 378s375 -162 375 -378zM628 372
c-32 201 -132 262 -227 257c-116 -6 -201 -123 -177 -291c28 -201 138 -261 227 -256c116 6 203 123 177 290z" />
    <glyph glyph-name="OE" unicode="&#x152;" horiz-adv-x="1143" 
d="M1172 206l-19 -206h-508v39c-60 -41 -134 -65 -217 -65c-219 0 -375 164 -375 380c0 213 156 378 375 378c83 0 157 -23 217 -64c-1 24 -1 39 -1 39h492l9 -178h-25c-16 73 -37 84 -110 84h-202v-198h111c54 0 77 14 89 58h20s-3 -62 -3 -101c0 -41 3 -104 3 -104h-20
c-12 43 -35 56 -89 56h-111v-231h194c101 0 123 14 146 113h24zM628 372c-32 201 -132 262 -227 257c-116 -6 -201 -123 -177 -291c28 -201 138 -261 227 -256c116 6 203 123 177 290z" />
    <glyph glyph-name="oe" unicode="&#x153;" horiz-adv-x="934" 
d="M958 284c0 -12 0 -26 -2 -35l-351 -6c10 -97 81 -158 181 -158c38 0 94 24 160 66l-17 -105c-66 -43 -137 -60 -203 -60c-81 0 -151 27 -200 77c-50 -50 -122 -77 -205 -77c-160 0 -268 112 -268 266c0 161 119 271 283 271c78 0 145 -28 191 -74c48 47 118 74 200 74
c120 0 231 -74 231 -239zM808 327c0 75 -55 111 -98 111c-59 0 -94 -43 -105 -111h203zM450 231c0 102 -38 201 -129 201c-73 0 -114 -62 -114 -153c0 -104 38 -202 129 -202c73 0 114 61 114 154z" />
    <glyph glyph-name="endash" unicode="&#x2013;" horiz-adv-x="627" 
d="M644 368l-17 -143h-479c-47 0 -58 -7 -77 -51h-18l18 144h479c47 0 57 6 77 50h17z" />
    <glyph glyph-name="emdash" unicode="&#x2014;" horiz-adv-x="832" 
d="M854 368l-17 -143h-689c-47 0 -58 -7 -77 -51h-18l18 144h690c46 0 56 6 76 50h17z" />
    <glyph glyph-name="quotedblleft" unicode="&#x201c;" horiz-adv-x="293" 
d="M325 492c-81 26 -129 102 -129 215c26 -3 74 -3 105 0c-10 -69 -9 -133 24 -215zM183 492c-81 26 -130 102 -130 215c27 -3 74 -3 106 0c-9 -69 -8 -133 24 -215z" />
    <glyph glyph-name="quotedblright" unicode="&#x201d;" horiz-adv-x="293" 
d="M301 707c0 -113 -49 -189 -130 -215c33 82 34 146 25 215c32 -3 79 -3 105 0zM159 707c0 -113 -48 -189 -129 -215c33 82 34 146 23 215c32 -3 79 -3 106 0z" />
    <glyph glyph-name="quoteleft" unicode="&#x2018;" horiz-adv-x="155" 
d="M183 492c-81 26 -130 102 -130 215c27 -3 74 -3 106 0c-9 -69 -8 -133 24 -215z" />
    <glyph glyph-name="quoteright" unicode="&#x2019;" horiz-adv-x="155" 
d="M159 707c0 -113 -48 -189 -129 -215c33 82 34 146 23 215c32 -3 79 -3 106 0z" />
    <glyph glyph-name="divide" unicode="&#xf7;" 
 />
    <glyph glyph-name="ydieresis" unicode="&#xff;" horiz-adv-x="544" 
d="M517 647c0 -37 -29 -65 -66 -65s-65 28 -65 65s28 65 65 65s66 -28 66 -65zM306 647c0 -37 -28 -65 -65 -65s-66 28 -66 65s29 65 66 65s65 -28 65 -65zM584 490c-25 -9 -45 -20 -59 -60l-162 -463c-36 -101 -102 -176 -184 -176c-21 0 -41 5 -70 19c0 32 -7 131 -12 152
h24c10 -34 24 -54 62 -54c24 0 57 15 71 39l25 39l-193 444c-17 39 -34 51 -58 60v17s85 -5 134 -5c50 0 135 5 135 5v-17c-57 -10 -66 -20 -46 -73l99 -258l76 258c16 56 12 63 -47 73v17s62 -5 112 -5s93 5 93 5v-17z" />
    <glyph glyph-name="Ydieresis" unicode="&#x178;" horiz-adv-x="634" 
d="M604 937c0 -29 -21 -46 -106 -99l-91 -57h-72l106 111c63 67 83 92 117 92c26 0 46 -21 46 -47zM676 689c-34 -3 -47 -18 -70 -67l-172 -370v-171c0 -47 11 -58 54 -64v-17s-83 5 -136 5c-54 0 -137 -5 -137 -5v17c43 6 56 17 56 64v171l-166 370c-22 48 -34 63 -77 67
v18s86 -5 138 -5c53 0 147 5 147 5v-18c-48 -4 -57 -23 -39 -63l110 -252l106 238c21 47 13 72 -40 77v18s57 -5 111 -5c52 0 115 5 115 5v-18z" />
    <glyph glyph-name="fraction" unicode="&#x2044;" horiz-adv-x="650" 
d="M532 846c0 -37 -28 -65 -65 -65s-65 28 -65 65s28 65 65 65s65 -28 65 -65zM322 846c0 -37 -29 -65 -66 -65s-64 28 -64 65s27 65 64 65s66 -28 66 -65zM676 689c-34 -3 -47 -18 -70 -67l-172 -370v-171c0 -47 11 -58 54 -64v-17s-83 5 -136 5c-54 0 -137 -5 -137 -5v17
c43 6 56 17 56 64v171l-166 370c-22 48 -34 63 -77 67v18s86 -5 138 -5c53 0 147 5 147 5v-18c-48 -4 -57 -23 -39 -63l110 -252l106 238c21 47 13 72 -40 77v18s57 -5 111 -5c52 0 115 5 115 5v-18z" />
    <glyph glyph-name="currency" unicode="&#xa4;" horiz-adv-x="325" 
d="M333 232l-9 -78h-271v56c83 51 182 150 182 235c0 49 -31 85 -72 85c-35 0 -65 -26 -83 -71h-11c3 38 4 75 4 104c26 13 65 23 103 23c98 0 157 -53 157 -133c0 -94 -110 -176 -199 -222c22 1 38 1 65 1h134z" />
    <glyph glyph-name="guilsinglleft" unicode="&#x2039;" horiz-adv-x="318" 
d="M326 295c0 -90 -97 -149 -210 -149c-14 0 -29 0 -46 2l-16 40c78 -5 171 24 171 98c0 37 -42 64 -94 67l-35 2l6 38c36 1 116 14 116 85c0 32 -24 51 -60 51c-28 0 -59 -19 -80 -64h-15c5 26 12 76 14 102c25 9 62 19 101 19c86 0 135 -40 135 -93
c0 -47 -39 -90 -95 -104c56 -5 108 -31 108 -94z" />
    <glyph glyph-name="guilsinglright" unicode="&#x203a;" horiz-adv-x="348" 
d="M357 246h-51v-92h-89v91h-164v50c28 60 130 198 199 275h57c-2 -19 -3 -71 -3 -86v-187h51v-51zM217 298v161c-34 -40 -90 -118 -109 -161h109z" />
    <glyph glyph-name="fi" unicode="&#xfb01;" horiz-adv-x="297" 
d="M297 331c0 -100 -107 -181 -230 -185l-14 41c85 8 150 67 150 131c0 42 -37 68 -81 68c-16 0 -44 -5 -67 -15l16 199h217l-7 -74h-166l-8 -79c14 8 48 16 67 16c72 0 123 -44 123 -102z" />
    <glyph glyph-name="fl" unicode="&#xfb02;" horiz-adv-x="368" 
d="M368 306c0 -93 -73 -160 -160 -160c-95 0 -155 65 -155 158c0 48 16 99 48 144c40 58 109 114 167 138l10 -19c-55 -50 -85 -93 -112 -155c24 17 50 25 77 25c60 0 125 -50 125 -131zM274 293c0 59 -33 83 -65 83c-34 0 -66 -31 -66 -96c0 -57 31 -82 63 -82
c34 0 68 32 68 95z" />
    <glyph glyph-name="daggerdbl" unicode="&#x2021;" horiz-adv-x="331" 
d="M341 570l-56 -152c-60 -163 -68 -202 -68 -264h-100c0 69 36 167 94 250l62 88h-125c-57 0 -64 -5 -76 -56h-19l10 51c5 28 9 58 9 73v10h269z" />
    <glyph glyph-name="periodcentered" unicode="&#xb7;" horiz-adv-x="267" 
d="M274 -130c0 -77 -84 -125 -197 -132l-5 39c84 15 128 46 128 80c0 31 -28 51 -62 51c-21 0 -42 -7 -85 -25l75 160h58l-39 -83h16c66 0 111 -35 111 -90z" />
    <glyph glyph-name="quotesinglbase" unicode="&#x201a;" 
 />
    <glyph glyph-name="quotedblbase" unicode="&#x201e;" 
 />
    <glyph glyph-name="perthousand" unicode="&#x2030;" 
 />
    <glyph glyph-name="Acircumflex" unicode="&#xc2;" horiz-adv-x="722" 
d="M551 781h-68l-116 103l-117 -103h-66l143 195h80zM767 0c0 0 -92 3 -150 3c-52 0 -133 -3 -133 -3v17c51 8 64 23 49 64l-49 137h-223l-49 -126c-18 -47 -4 -66 46 -75v-17s-70 2 -116 2s-114 -2 -114 -2v17c26 0 42 13 53 41l212 573c14 37 6 54 -32 58v18s69 -5 113 -5
c40 0 96 6 96 6l243 -652c10 -28 25 -34 54 -39v-17zM455 306l-66 200c-11 30 -13 36 -17 66c-5 -29 -8 -35 -17 -63l-67 -203h167z" />
    <glyph glyph-name="Ecircumflex" unicode="&#xca;" horiz-adv-x="640" 
d="M535 781h-68l-115 103l-117 -103h-67l144 195h80zM656 206l-18 -206h-585v17c43 6 56 17 56 64v545c0 47 -13 59 -56 63v18h568l8 -178h-24c-17 73 -37 84 -111 84h-222v-198h132c53 0 77 14 88 58h20s-3 -62 -3 -101c0 -41 3 -104 3 -104h-20c-11 43 -35 56 -88 56h-132
v-231h215c100 0 123 14 145 113h24z" />
    <glyph glyph-name="Aacute" unicode="&#xc1;" horiz-adv-x="722" 
d="M604 937c0 -29 -21 -46 -106 -99l-91 -57h-72l106 111c63 67 83 92 117 92c26 0 46 -21 46 -47zM767 0c0 0 -92 3 -150 3c-52 0 -133 -3 -133 -3v17c51 8 64 23 49 64l-49 137h-223l-49 -126c-18 -47 -4 -66 46 -75v-17s-70 2 -116 2s-114 -2 -114 -2v17
c26 0 42 13 53 41l212 573c14 37 6 54 -32 58v18s69 -5 113 -5c40 0 96 6 96 6l243 -652c10 -28 25 -34 54 -39v-17zM455 306l-66 200c-11 30 -13 36 -17 66c-5 -29 -8 -35 -17 -63l-67 -203h167z" />
    <glyph glyph-name="Edieresis" unicode="&#xcb;" horiz-adv-x="640" 
d="M517 846c0 -37 -29 -65 -66 -65s-65 28 -65 65s28 65 65 65s66 -28 66 -65zM306 846c0 -37 -28 -65 -65 -65s-66 28 -66 65s29 65 66 65s65 -28 65 -65zM656 206l-18 -206h-585v17c43 6 56 17 56 64v545c0 47 -13 59 -56 63v18h568l8 -178h-24c-17 73 -37 84 -111 84
h-222v-198h132c53 0 77 14 88 58h20s-3 -62 -3 -101c0 -41 3 -104 3 -104h-20c-11 43 -35 56 -88 56h-132v-231h215c100 0 123 14 145 113h24z" />
    <glyph glyph-name="Egrave" unicode="&#xc8;" horiz-adv-x="640" 
d="M417 781h-73l-91 57c-84 54 -104 70 -104 99c0 26 19 47 46 47c34 0 54 -25 117 -92zM656 206l-18 -206h-585v17c43 6 56 17 56 64v545c0 47 -13 59 -56 63v18h568l8 -178h-24c-17 73 -37 84 -111 84h-222v-198h132c53 0 77 14 88 58h20s-3 -62 -3 -101
c0 -41 3 -104 3 -104h-20c-11 43 -35 56 -88 56h-132v-231h215c100 0 123 14 145 113h24z" />
    <glyph glyph-name="Iacute" unicode="&#xcd;" horiz-adv-x="318" 
d="M430 937c0 -29 -20 -46 -105 -99l-91 -57h-72l106 111c62 67 83 92 116 92c26 0 46 -21 46 -47zM326 0c0 0 -83 5 -136 5c-54 0 -137 -5 -137 -5v17c43 6 56 17 56 64v545c0 47 -13 59 -56 63v18s83 -5 137 -5c53 0 136 5 136 5v-18c-43 -4 -54 -16 -54 -63v-545
c0 -47 11 -58 54 -64v-17z" />
    <glyph glyph-name="Icircumflex" unicode="&#xce;" horiz-adv-x="318" 
d="M373 781h-68l-115 103l-117 -103h-67l144 195h80zM326 0c0 0 -83 5 -136 5c-54 0 -137 -5 -137 -5v17c43 6 56 17 56 64v545c0 47 -13 59 -56 63v18s83 -5 137 -5c53 0 136 5 136 5v-18c-43 -4 -54 -16 -54 -63v-545c0 -47 11 -58 54 -64v-17z" />
    <glyph glyph-name="Idieresis" unicode="&#xcf;" horiz-adv-x="318" 
d="M359 846c0 -37 -29 -65 -66 -65s-64 28 -64 65s27 65 64 65s66 -28 66 -65zM149 846c0 -37 -29 -65 -66 -65s-66 28 -66 65s29 65 66 65s66 -28 66 -65zM326 0c0 0 -83 5 -136 5c-54 0 -137 -5 -137 -5v17c43 6 56 17 56 64v545c0 47 -13 59 -56 63v18s83 -5 137 -5
c53 0 136 5 136 5v-18c-43 -4 -54 -16 -54 -63v-545c0 -47 11 -58 54 -64v-17z" />
    <glyph glyph-name="Igrave" unicode="&#xcc;" horiz-adv-x="318" 
d="M229 781h-74l-90 57c-86 54 -106 70 -106 99c0 26 19 47 46 47c34 0 53 -25 117 -92zM326 0c0 0 -83 5 -136 5c-54 0 -137 -5 -137 -5v17c43 6 56 17 56 64v545c0 47 -13 59 -56 63v18s83 -5 137 -5c53 0 136 5 136 5v-18c-43 -4 -54 -16 -54 -63v-545
c0 -47 11 -58 54 -64v-17z" />
    <glyph glyph-name="Oacute" unicode="&#xd3;" horiz-adv-x="783" 
d="M651 937c0 -29 -20 -46 -105 -99l-92 -57h-71l105 111c63 67 83 92 117 92c26 0 46 -21 46 -47zM803 354c0 -218 -156 -380 -375 -380s-375 164 -375 380c0 213 156 378 375 378s375 -162 375 -378zM628 372c-32 201 -132 262 -227 257c-116 -6 -201 -123 -177 -291
c28 -201 138 -261 227 -256c116 6 203 123 177 290z" />
    <glyph glyph-name="Ocircumflex" unicode="&#xd4;" horiz-adv-x="783" 
d="M609 781h-68l-116 103l-116 -103h-67l143 195h80zM803 354c0 -218 -156 -380 -375 -380s-375 164 -375 380c0 213 156 378 375 378s375 -162 375 -378zM628 372c-32 201 -132 262 -227 257c-116 -6 -201 -123 -177 -291c28 -201 138 -261 227 -256c116 6 203 123 177 290
z" />
    <glyph glyph-name="Ograve" unicode="&#xd2;" horiz-adv-x="783" 
d="M481 781h-73l-91 57c-85 53 -106 70 -106 99c0 26 21 47 46 47c34 0 54 -26 117 -92zM803 354c0 -218 -156 -380 -375 -380s-375 164 -375 380c0 213 156 378 375 378s375 -162 375 -378zM628 372c-32 201 -132 262 -227 257c-116 -6 -201 -123 -177 -291
c28 -201 138 -261 227 -256c116 6 203 123 177 290z" />
    <glyph glyph-name="Uacute" unicode="&#xda;" horiz-adv-x="745" 
d="M630 937c0 -29 -20 -46 -105 -99l-91 -57h-72l105 111c63 68 83 92 117 92c26 0 46 -21 46 -47zM764 689c-43 -4 -55 -16 -55 -63v-367c0 -179 -68 -285 -300 -285c-236 0 -300 106 -300 285v367c0 47 -13 59 -56 63v18s83 -5 137 -5c53 0 136 5 136 5v-18
c-43 -4 -54 -16 -54 -63v-408c0 -95 38 -150 137 -150c100 0 137 55 137 150v408c0 47 -12 59 -55 63v18s83 -5 136 -5c54 0 137 5 137 5v-18z" />
    <glyph glyph-name="Ucircumflex" unicode="&#xdb;" horiz-adv-x="745" 
d="M588 781h-68l-116 103l-117 -103h-66l143 195h80zM764 689c-43 -4 -55 -16 -55 -63v-367c0 -179 -68 -285 -300 -285c-236 0 -300 106 -300 285v367c0 47 -13 59 -56 63v18s83 -5 137 -5c53 0 136 5 136 5v-18c-43 -4 -54 -16 -54 -63v-408c0 -95 38 -150 137 -150
c100 0 137 55 137 150v408c0 47 -12 59 -55 63v18s83 -5 136 -5c54 0 137 5 137 5v-18z" />
    <glyph glyph-name="Ugrave" unicode="&#xd9;" horiz-adv-x="745" 
d="M459 781h-73l-91 57c-84 54 -104 70 -104 99c0 26 19 47 46 47c34 0 54 -25 117 -92zM764 689c-43 -4 -55 -16 -55 -63v-367c0 -179 -68 -285 -300 -285c-236 0 -300 106 -300 285v367c0 47 -13 59 -56 63v18s83 -5 137 -5c53 0 136 5 136 5v-18c-43 -4 -54 -16 -54 -63
v-408c0 -95 38 -150 137 -150c100 0 137 55 137 150v408c0 47 -12 59 -55 63v18s83 -5 136 -5c54 0 137 5 137 5v-18z" />
    <glyph glyph-name="dotlessi" unicode="&#x131;" horiz-adv-x="324" 
d="M324 0c0 0 -85 5 -135 5c-51 0 -136 -5 -136 -5v16c41 6 59 20 59 61v327c0 43 -16 55 -59 60v17c83 13 139 30 219 64c-2 -51 -6 -127 -6 -172v-296c0 -41 17 -55 58 -61v-16z" />
    <glyph glyph-name="circumflex" unicode="&#x2c6;" horiz-adv-x="410" 
d="M421 781h-68l-116 103l-117 -103h-67l144 195h80z" />
    <glyph glyph-name="tilde" unicode="&#x2dc;" horiz-adv-x="423" 
d="M434 919c-25 -98 -71 -138 -130 -138c-50 0 -106 50 -150 50c-23 0 -34 -16 -47 -52h-54c20 84 60 136 128 136c57 0 106 -49 150 -49c23 0 33 17 50 53h53z" />
    <glyph glyph-name="macron" unicode="&#xaf;" 
 />
    <glyph glyph-name="ring" unicode="&#x2da;" horiz-adv-x="285" 
d="M285 697c0 -64 -51 -115 -116 -115c-63 0 -116 51 -116 115c0 65 53 116 116 116c65 0 116 -51 116 -116zM225 697c0 31 -25 56 -56 56s-55 -25 -55 -56c0 -30 24 -55 55 -55s56 25 56 55z" />
    <glyph glyph-name="cedilla" unicode="&#xb8;" 
 />
    <glyph glyph-name="Eth" unicode="&#xd0;" 
 />
    </font>
</defs>
</svg>
