<?xml version="1.0" encoding="utf-8"?>
<!-- Generator: Adobe Illustrator 23.0.1, SVG Export Plug-In . SVG Version: 6.00 Build 0)  -->
<svg version="1.1" id="Слой_1" xmlns="http://www.w3.org/2000/svg" xmlns:xlink="http://www.w3.org/1999/xlink" x="0px" y="0px"
	 viewBox="0 0 470.72 137.62" style="enable-background:new 0 0 470.72 137.62;" xml:space="preserve">
<style type="text/css">
	.st0{fill-rule:evenodd;clip-rule:evenodd;fill:#409DD7;}
	.st1{fill-rule:evenodd;clip-rule:evenodd;fill:#FFFFFF;}
	.st2{fill:#409DD7;}
	.st3{fill:#FFFFFF;}
	.st4{fill:#56576D;}
</style>
<g>
	<path class="st0" d="M21.43,59.5c0,0,5.21-2.24,9.4-7.97c3.92-5.37,6.83-14.25,6.83-14.25l5.12,1.68l-4.7-2.93
		c0,0,1.47-3.74,3.84-6.71c2.32-2.9,5.55-5.03,5.55-5.03l2.99,3.77l-1.71-4.61c0,0,5.23-3.77,10.25-5.03
		c4.94-1.24,10.25-0.42,10.25-0.42l-0.43,8.39l2.99-7.97l0.85,8.38l1.71-8.38c0,0,5.13,0.53,9.82,2.93
		c4.71,2.42,8.97,6.71,8.97,6.71l-3.42,3.77l4.7-2.52c0,0,2.95,4.02,5.12,8.38c2.1,4.23,3.42,8.8,3.42,8.8s-2.32-0.84-4.27-0.84
		c-2.29,0-4.27,0.84-4.27,0.84s3.82,0.35,6.41,1.68c1.72,0.89,2.56,1.68,2.56,1.68s-4.16-0.42-8.54,0
		c-4.37,0.42-8.97,1.68-8.97,1.68s-0.42-6-3.84-10.48c-2.95-3.86-8.97-6.29-8.97-6.29s-4.94-2.2-9.82-2.1
		c-5.15,0.11-10.25,2.51-10.25,2.51s3.35-0.53,5.55-0.42c2.07,0.1,2.99,0.42,2.99,0.42s-5.35,1.14-9.4,4.61
		c-4.48,3.84-7.69,10.48-7.69,10.48s-3.94,6.54-8.54,8.38C29.38,61.28,21.43,59.5,21.43,59.5z"/>
	<path class="st1" d="M38.08,63.05c0,0,3.44-1.4,6.83-5.87c2.27-2.99,4.2-7.77,5.98-10.9c1.79-3.14,4.27-4.61,4.27-4.61
		s5.17-3.13,10.68-2.1c6.43,1.21,11.53,5.87,11.53,5.87s-1.17-1.99-2.99-3.77c-2.02-1.98-4.7-3.77-4.7-3.77s7.39,1.78,11.1,6.29
		c3.54,4.29,3.42,11.32,3.42,11.32s-1.78,0.46-3.84,0c-2.58-0.57-5.55-2.1-5.55-2.1s2.01,2.09,4.7,3.35
		c2.17,1.02,5.12,1.26,5.12,1.26s0.22,3.17-0.43,7.13c-0.5,3.03-1.49,6.65-2.14,9.64c-0.83,3.83-1.28,6.71-1.28,6.71
		s-1.92-1.06-2.14-4.19c-0.21-2.94,1.28-7.97,1.28-7.97l-10.25-8.38c0,0-0.23,3.97,1.71,6.71c1.91,2.71,5.98,4.19,5.98,4.19
		s-2,4.85-2.56,10.06c-0.5,4.6,0.43,9.64,0.43,9.64s-4.09-1.05-8.54-4.61c-3.57-2.86-7.69-8.39-7.69-8.39V57.18l-3.84,18.03
		c0,0-3.45-4.11-7.69-7.13C43.17,65.02,38.08,63.05,38.08,63.05z"/>
	<g>
		<g>
			<path class="st2" d="M170.02,77.14c-0.6,0.37-1.29,0.67-2.06,0.9c-0.77,0.23-1.6,0.4-2.48,0.5c-0.89,0.1-1.78,0.15-2.69,0.15
				c-1.44,0-2.79-0.11-4.07-0.33c-1.27-0.22-2.28-0.49-3.01-0.83V47.93c0-0.8,0.03-1.46,0.08-1.98c0.05-0.52,0.18-1.03,0.4-1.53
				c0.22-0.5,0.56-1.04,1.03-1.61c0.47-0.57,1.12-1.29,1.96-2.16h-14.61c0.17,0.17,0.43,0.47,0.8,0.9c0.37,0.44,0.74,0.95,1.1,1.56
				c0.37,0.6,0.69,1.27,0.98,2.01c0.28,0.74,0.43,1.52,0.43,2.36v26.4c0,0.9-0.16,1.52-0.48,1.86c-0.32,0.33-0.76,0.5-1.33,0.5
				c-0.33,0-0.71-0.04-1.13-0.13c-0.42-0.08-0.86-0.19-1.33-0.33l-0.04-0.01l-3.68-15.05l-8.48-0.15v3.71h3.56l1.36,2.06l-5.22,5.72
				l-1.51-1.96V48.68l1.66-2.21l2.51,3.56l4.77-3.21l-8.43-8.83l-7.88,8.48v25.25l8.28,8.93l8.43-9.24l4.59,6.3l1.84,5.85
				c3.48,0.74,6.92,1.33,10.32,1.78c3.4,0.45,6.38,0.68,8.96,0.68c1.81,0,3.3-0.13,4.47-0.38c1.17-0.25,1.92-0.64,2.26-1.18v-8.68
				C171.07,76.32,170.62,76.78,170.02,77.14z M181.46,68.06c-0.47-1.74-0.92-3.58-1.36-5.52l4.07-1.61l-0.85-3.81l-4.37,1.36
				c-0.54-1.97-1.04-3.8-1.51-5.47c-0.2-0.7-0.4-1.42-0.6-2.16c-0.2-0.74-0.39-1.42-0.58-2.06c-0.18-0.64-0.34-1.21-0.48-1.73
				c-0.13-0.52-0.23-0.91-0.3-1.18c-0.1-0.33-0.17-0.66-0.2-0.98c-0.03-0.32-0.05-0.66-0.05-1.03c0-0.4,0.02-0.79,0.05-1.18
				c0.03-0.38,0.08-0.73,0.15-1.03c0.07-0.37,0.13-0.7,0.2-1l-11.09-0.2l2.01,4.72c-0.94,4.75-1.77,9.04-2.51,12.85
				c-0.3,1.64-0.61,3.26-0.93,4.84c-0.32,1.59-0.6,3.05-0.85,4.37c-0.25,1.32-0.45,2.43-0.6,3.31c-0.15,0.89-0.24,1.45-0.28,1.68
				c-0.1,0.74-0.38,1.45-0.83,2.13c-0.45,0.69-0.83,1.16-1.13,1.43h10.89c0.03,0-0.22-0.23-0.75-0.68c-0.54-0.45-1.27-1.3-2.21-2.53
				c-0.03-0.17-0.05-0.4-0.05-0.7c0-1.2,0.37-2.25,1.1-3.14c0.74-0.89,1.54-1.61,2.41-2.18c1.04-0.67,2.23-1.25,3.56-1.76
				c0.2,1.1,0.38,2.14,0.55,3.11c0.13,0.84,0.26,1.67,0.38,2.48c0.12,0.82,0.18,1.43,0.18,1.83c0,0.44-0.1,0.85-0.3,1.25
				c-0.2,0.4-0.42,0.79-0.65,1.15c-0.27,0.4-0.57,0.79-0.9,1.15h10.79c-0.54-0.74-1.06-1.83-1.58-3.29
				C182.32,71.05,181.86,69.56,181.46,68.06z M168.96,62.94l1.96-10.14l2.46,7.28L168.96,62.94z M198.98,40.75h-14.81l4.22,3.46
				v25.95c0,0.7-0.11,1.39-0.33,2.06c-0.22,0.67-0.45,1.26-0.7,1.78c-0.25,0.52-0.58,1.11-0.98,1.78h19.53
				c0.87-0.74,1.51-1.62,1.93-2.66c0.42-1.04,0.71-2.39,0.88-4.07c0.17-1.67,0.24-3.76,0.23-6.25c-0.02-2.49-0.03-5.56-0.03-9.21
				L198.98,40.75z M202.04,68.16c0,0.64-0.24,1.2-0.73,1.71c-0.49,0.5-1.15,0.75-1.98,0.75h-4.47V48.88l7.18,6.73V68.16z
				 M221.44,71.72c-0.35-0.7-0.53-1.34-0.53-1.91c0-3.78-0.02-6.86-0.05-9.24c-0.03-2.38-0.06-4.32-0.08-5.82
				c-0.02-1.51-0.04-2.73-0.08-3.66c-0.03-0.94-0.05-1.87-0.05-2.81c0-0.5,0.05-1.1,0.15-1.81c0.1-0.7,0.25-1.41,0.45-2.13
				c0.2-0.72,0.47-1.41,0.8-2.06c0.33-0.65,0.74-1.2,1.2-1.63h-12.1c0.47,0.4,0.84,0.92,1.13,1.56c0.28,0.64,0.51,1.32,0.68,2.06
				c0.17,0.74,0.28,1.46,0.33,2.16c0.05,0.7,0.08,1.31,0.08,1.81v21.58c0,0.57-0.12,1.2-0.35,1.91c-0.23,0.7-0.49,1.36-0.75,1.96
				c-0.33,0.7-0.7,1.41-1.1,2.11h13.2c-0.67-0.7-1.25-1.41-1.76-2.11C222.19,73.08,221.79,72.43,221.44,71.72z M247.07,68.06
				c-0.47-1.74-0.92-3.58-1.36-5.52l4.07-1.61l-0.85-3.81l-4.37,1.36c-0.54-1.97-1.04-3.8-1.51-5.47c-0.2-0.7-0.4-1.42-0.6-2.16
				c-0.2-0.74-0.39-1.42-0.58-2.06c-0.18-0.64-0.34-1.21-0.48-1.73c-0.13-0.52-0.23-0.91-0.3-1.18c-0.1-0.33-0.17-0.66-0.2-0.98
				c-0.03-0.32-0.05-0.66-0.05-1.03c0-0.4,0.02-0.79,0.05-1.18c0.03-0.38,0.08-0.73,0.15-1.03c0.07-0.37,0.13-0.7,0.2-1l-11.09-0.2
				l2.01,4.72c-0.94,4.75-1.77,9.04-2.51,12.85c-0.3,1.64-0.61,3.26-0.93,4.84c-0.32,1.59-0.6,3.05-0.85,4.37
				c-0.25,1.32-0.45,2.43-0.6,3.31c-0.15,0.89-0.24,1.45-0.28,1.68c-0.1,0.74-0.38,1.45-0.83,2.13c-0.45,0.69-0.83,1.16-1.13,1.43
				h10.89c0.03,0-0.22-0.23-0.75-0.68c-0.54-0.45-1.27-1.3-2.21-2.53c-0.03-0.17-0.05-0.4-0.05-0.7c0-1.2,0.37-2.25,1.1-3.14
				c0.74-0.89,1.54-1.61,2.41-2.18c1.04-0.67,2.23-1.25,3.56-1.76c0.2,1.1,0.38,2.14,0.55,3.11c0.13,0.84,0.26,1.67,0.38,2.48
				c0.12,0.82,0.18,1.43,0.18,1.83c0,0.44-0.1,0.85-0.3,1.25c-0.2,0.4-0.42,0.79-0.65,1.15c-0.27,0.4-0.57,0.79-0.9,1.15h10.79
				c-0.54-0.74-1.06-1.83-1.58-3.29C247.93,71.05,247.47,69.56,247.07,68.06z M234.57,62.94l1.96-10.14l2.46,7.28L234.57,62.94z
				 M249.98,40.55c-0.03,1.54-0.05,2.98-0.05,4.32v6.02c0.33-0.7,0.75-1.25,1.25-1.66c0.5-0.4,1.03-0.7,1.58-0.9
				c0.55-0.2,1.09-0.33,1.61-0.38c0.52-0.05,0.93-0.08,1.23-0.08h0.5v22.14c0,0.7-0.17,1.4-0.5,2.08c-0.34,0.69-0.7,1.31-1.1,1.88
				c-0.47,0.64-1,1.24-1.61,1.81h14.81c-0.74-0.53-1.41-1.15-2.01-1.86c-0.5-0.6-0.95-1.34-1.36-2.21c-0.4-0.87-0.6-1.86-0.6-2.96
				V47.88h0.75c0.4,0,0.9,0.07,1.51,0.2c0.6,0.13,1.2,0.33,1.81,0.58s1.17,0.57,1.71,0.95c0.53,0.39,0.94,0.81,1.2,1.28V40.6h-18.12
				C251.05,40.6,250.18,40.59,249.98,40.55z M272.26,45.42v26.05l10.29,8.58l8.99-8.58V45.42l-8.99-7.48L272.26,45.42z
				 M286.42,69.21l-3.87,3.11l-4.07-3.11V48.18l4.07-2.61l3.87,2.61V69.21z M315.06,74.01c-0.38-0.72-0.69-1.48-0.9-2.28
				c-0.22-0.8-0.37-1.62-0.45-2.46c-0.08-0.84-0.13-1.64-0.13-2.41c0-0.53,0.01-1.03,0.03-1.48c0.02-0.45,0.04-0.84,0.08-1.18
				c0.03-0.37,0.08-0.72,0.15-1.05l-4.67-2.76l7.83-6.73l-7.88-13.2h-16.92l4.42,4.52v25.2c0,0.7-0.13,1.39-0.4,2.06
				c-0.27,0.67-0.57,1.27-0.9,1.81c-0.37,0.6-0.8,1.19-1.31,1.76h11.34c-0.44-0.37-0.82-0.77-1.15-1.2c-0.3-0.37-0.57-0.79-0.8-1.28
				c-0.23-0.48-0.35-1.01-0.35-1.58c0-0.57-0.01-1.31-0.03-2.21c-0.02-0.9-0.04-1.79-0.08-2.66c-0.03-1.04-0.05-2.11-0.05-3.21
				l3.76,2.91c0,0.54,0.02,1.07,0.05,1.61c0.03,0.47,0.06,0.98,0.08,1.53c0.02,0.55,0.03,1.11,0.03,1.68c0,0.57,0.13,1.12,0.4,1.66
				c0.27,0.54,0.59,1,0.95,1.41c0.37,0.5,0.82,0.95,1.36,1.36h7.08C315.95,75.32,315.44,74.73,315.06,74.01z M302.88,57.02v-9.44
				h2.36l3.56,4.97L302.88,57.02z"/>
		</g>
	</g>
	<g>
		<g>
			<path class="st3" d="M335.53,39.93h-15.76l4.22,3.71v25.9c0,0.7-0.11,1.39-0.33,2.06c-0.22,0.67-0.45,1.26-0.7,1.78
				c-0.25,0.52-0.58,1.11-0.98,1.78h19.53c0.74-0.6,1.3-1.24,1.68-1.91c0.38-0.67,0.67-1.36,0.85-2.08
				c0.18-0.72,0.29-1.45,0.33-2.18c0.03-0.74,0.05-1.47,0.05-2.21c0-0.67-0.03-1.4-0.08-2.18c-0.05-0.79-0.09-1.56-0.13-2.33
				l-7.38-2.31l7.68-6.98L335.53,39.93z M330.46,46.96h2.36l3.56,4.97l-5.92,4.47V46.96z M337.64,66.14v2.06
				c0,0.64-0.24,1.2-0.73,1.71c-0.49,0.5-1.15,0.75-1.98,0.75h-4.47v-7.48L337.64,66.14z M346.02,44.8v26.05l10.29,8.58l8.98-8.58
				V44.8l-8.98-7.48L346.02,44.8z M360.18,68.6l-3.86,3.11l-4.07-3.11V47.56l4.07-2.61l3.86,2.61V68.6z M367.51,44.8v26.05
				l10.29,8.58l8.99-8.58V44.8l-8.99-7.48L367.51,44.8z M381.66,68.6l-3.87,3.11l-4.07-3.11V47.56l4.07-2.61l3.87,2.61V68.6z
				 M405.6,73.57l5.92-12.2l-15.86-9.04l2.46-5.92h0.2c0.74,0,1.43,0.04,2.08,0.13c0.65,0.08,1.26,0.31,1.83,0.68
				c0.57,0.37,1.1,0.92,1.58,1.66c0.48,0.74,0.95,1.74,1.38,3.01l0.05,0.2c0,0.13-0.08,0.28-0.25,0.45
				c-0.17,0.17-0.33,0.35-0.5,0.55h6.88L406.16,43c-0.13-0.33-0.2-0.53-0.2-0.6c0-0.47,0.18-0.85,0.55-1.15h-13.7
				c0.23,0.23,0.43,0.44,0.58,0.63c0.15,0.18,0.23,0.38,0.23,0.58c-0.03,0.03-0.05,0.07-0.05,0.1c-0.03,0.03-0.05,0.07-0.05,0.1
				c0,0.03-0.02,0.07-0.05,0.1l-5.92,12.2l15.86,9.04l-2.46,5.92h-0.2c-0.74,0-1.43-0.04-2.08-0.13c-0.65-0.08-1.26-0.31-1.83-0.68
				c-0.57-0.37-1.1-0.92-1.58-1.66c-0.49-0.74-0.95-1.74-1.38-3.01l-0.05-0.2c0-0.13,0.08-0.28,0.25-0.45
				c0.17-0.17,0.33-0.35,0.5-0.55h-6.88l5.22,10.09c0.13,0.33,0.2,0.54,0.2,0.6c0,0.47-0.18,0.85-0.55,1.15h13.7
				c-0.23-0.23-0.43-0.44-0.58-0.63c-0.15-0.18-0.23-0.38-0.23-0.58c0-0.03,0.02-0.07,0.05-0.1L405.6,73.57z M414.09,39.98
				c-1.54,0-2.41-0.02-2.61-0.05c-0.03,1.54-0.05,2.98-0.05,4.32v6.02c0.33-0.7,0.75-1.25,1.25-1.66c0.5-0.4,1.03-0.7,1.58-0.9
				c0.55-0.2,1.09-0.33,1.61-0.38c0.52-0.05,0.93-0.08,1.23-0.08h0.5V69.4c0,0.7-0.17,1.4-0.5,2.08c-0.33,0.69-0.7,1.31-1.1,1.88
				c-0.47,0.64-1,1.24-1.61,1.81h14.81c-0.74-0.53-1.41-1.15-2.01-1.86c-0.5-0.6-0.95-1.34-1.36-2.21c-0.4-0.87-0.6-1.86-0.6-2.96
				V47.26h0.75c0.4,0,0.9,0.07,1.51,0.2c0.6,0.13,1.2,0.33,1.81,0.58s1.17,0.57,1.71,0.95c0.53,0.39,0.94,0.81,1.2,1.28V39.98
				H414.09z"/>
		</g>
	</g>
	<g>
		<g>
			<path class="st4" d="M261.79,92.01c1.29-0.56,1.93-1.59,1.93-3.07c0-1.07-0.38-1.93-1.15-2.57c-0.77-0.64-1.74-0.96-2.92-0.96
				h-4.06v13.65h4.24c1.26,0,2.3-0.33,3.11-0.99c0.82-0.66,1.22-1.57,1.22-2.72c0-0.82-0.21-1.51-0.64-2.08
				C263.09,92.7,262.51,92.28,261.79,92.01z M257.31,87.05h2.31c0.67,0,1.22,0.18,1.66,0.53c0.43,0.35,0.65,0.87,0.65,1.56
				s-0.22,1.2-0.65,1.56c-0.43,0.35-0.99,0.53-1.66,0.53h-2.31V87.05z M261.64,96.84c-0.48,0.38-1.08,0.57-1.82,0.57h-2.51v-4.56
				h2.51c0.72,0,1.33,0.2,1.81,0.59c0.48,0.4,0.72,0.97,0.72,1.72C262.35,95.9,262.11,96.46,261.64,96.84z M272.93,85.2
				c-1.99,0-3.66,0.67-5.01,2.02c-1.35,1.35-2.02,3.02-2.02,5.01c0,1.99,0.67,3.66,2.02,5.01c1.35,1.35,3.01,2.02,5.01,2.02
				c1.99,0,3.66-0.67,5.01-2.02c1.35-1.35,2.02-3.01,2.02-5.01c0-1.99-0.67-3.66-2.02-5.01C276.6,85.88,274.93,85.2,272.93,85.2z
				 M276.67,96.01c-1,1.02-2.25,1.54-3.73,1.54s-2.73-0.51-3.72-1.54c-1-1.02-1.5-2.29-1.5-3.78c0-1.49,0.5-2.74,1.5-3.77
				c1-1.03,2.24-1.55,3.72-1.55s2.73,0.51,3.73,1.54s1.51,2.29,1.51,3.78C278.17,93.73,277.67,94.99,276.67,96.01z M288.69,85.2
				c-1.99,0-3.66,0.67-5.01,2.02c-1.35,1.35-2.02,3.02-2.02,5.01c0,1.99,0.67,3.66,2.02,5.01c1.35,1.35,3.01,2.02,5.01,2.02
				c1.99,0,3.66-0.67,5.01-2.02c1.35-1.35,2.02-3.01,2.02-5.01c0-1.99-0.67-3.66-2.02-5.01C292.36,85.88,290.69,85.2,288.69,85.2z
				 M292.43,96.01c-1,1.02-2.25,1.54-3.73,1.54c-1.49,0-2.73-0.51-3.72-1.54c-1-1.02-1.5-2.29-1.5-3.78c0-1.49,0.5-2.74,1.5-3.77
				c1-1.03,2.24-1.55,3.72-1.55c1.49,0,2.73,0.51,3.73,1.54s1.51,2.29,1.51,3.78C293.93,93.73,293.43,94.99,292.43,96.01z
				 M303.01,92.03l-2.37-1.49c-0.84-0.54-1.26-1.14-1.26-1.81c0-0.58,0.21-1.04,0.64-1.39c0.43-0.35,1.01-0.52,1.75-0.52
				c1.07,0,2.06,0.35,2.97,1.06v-1.95c-0.84-0.49-1.82-0.74-2.93-0.74c-1.43,0-2.5,0.35-3.21,1.05c-0.71,0.7-1.06,1.54-1.06,2.52
				c0,0.7,0.16,1.31,0.49,1.85c0.33,0.54,0.87,1.04,1.64,1.51l2.35,1.49c0.99,0.62,1.49,1.29,1.49,2.01c0,0.56-0.22,1.04-0.67,1.43
				c-0.45,0.39-1.07,0.58-1.86,0.58c-1.23,0-2.34-0.41-3.31-1.22v2.03c1.07,0.55,2.19,0.82,3.35,0.82c1.38,0,2.44-0.36,3.19-1.07
				c0.75-0.72,1.12-1.6,1.12-2.64c0-0.72-0.18-1.36-0.53-1.91C304.43,93.09,303.84,92.55,303.01,92.03z M306.52,87.05h3.65v12.01
				h1.73V87.05h3.61V85.4h-9V87.05z M324.99,91.29l-3.41-5.88h-1.97l4.52,7.61v6.04h1.73v-6.02l4.56-7.63h-1.99L324.99,91.29z
				 M337.66,85.2c-1.99,0-3.66,0.67-5.01,2.02c-1.35,1.35-2.02,3.02-2.02,5.01c0,1.99,0.67,3.66,2.02,5.01
				c1.35,1.35,3.01,2.02,5.01,2.02c1.99,0,3.66-0.67,5.01-2.02c1.35-1.35,2.02-3.01,2.02-5.01c0-1.99-0.67-3.66-2.02-5.01
				C341.33,85.88,339.66,85.2,337.66,85.2z M341.4,96.01c-1,1.02-2.25,1.54-3.73,1.54c-1.49,0-2.73-0.51-3.72-1.54
				c-1-1.02-1.5-2.29-1.5-3.78c0-1.49,0.5-2.74,1.5-3.77c1-1.03,2.24-1.55,3.72-1.55c1.49,0,2.73,0.51,3.73,1.54
				s1.51,2.29,1.51,3.78C342.9,93.73,342.4,94.99,341.4,96.01z M355.35,94.3c0,0.98-0.29,1.77-0.88,2.37
				c-0.59,0.6-1.37,0.9-2.33,0.9c-0.98,0-1.76-0.3-2.35-0.9c-0.59-0.6-0.88-1.39-0.88-2.37V85.4h-1.73v8.77
				c0,1.55,0.44,2.79,1.34,3.7c0.89,0.92,2.1,1.38,3.62,1.38c1.51,0,2.71-0.46,3.6-1.38c0.89-0.92,1.34-2.15,1.34-3.7V85.4h-1.73
				V94.3z M365.99,92.73c0.84-0.2,1.52-0.6,2.04-1.19c0.52-0.6,0.77-1.36,0.77-2.3c0-1.19-0.39-2.13-1.17-2.81
				c-0.78-0.68-1.82-1.02-3.12-1.02h-4.04v13.65h1.73v-5.7h1.43c0.9,0,1.73,0.53,2.5,1.59c0.77,1.06,1.31,2.43,1.62,4.12h1.79
				c-0.24-1.58-0.68-2.93-1.33-4.06S366.82,93.12,365.99,92.73z M364.51,91.71h-2.31v-4.66h2.31c0.74,0,1.34,0.21,1.81,0.63
				c0.47,0.42,0.7,0.99,0.7,1.72c0,0.72-0.23,1.29-0.7,1.7C365.85,91.5,365.24,91.71,364.51,91.71z M382.52,90.8v1.57h4.84
				c0.03,0.19,0.04,0.41,0.04,0.66c0,1.27-0.44,2.34-1.33,3.21c-0.88,0.87-2.03,1.31-3.45,1.31c-1.45,0-2.65-0.52-3.6-1.56
				c-0.96-1.04-1.44-2.29-1.44-3.76c0-1.53,0.51-2.79,1.52-3.8c1.01-1.01,2.29-1.52,3.84-1.52c1.38,0,2.62,0.33,3.71,1v-1.91
				c-1-0.54-2.24-0.8-3.71-0.8c-2.07,0-3.79,0.67-5.14,2.01c-1.35,1.34-2.03,3.01-2.03,5.02c0,1.99,0.65,3.66,1.94,5.01
				c1.29,1.35,2.91,2.02,4.87,2.02c2.05,0,3.67-0.64,4.88-1.91c1.2-1.27,1.81-2.86,1.81-4.76c0-0.7-0.05-1.29-0.16-1.79H382.52z
				 M394.95,85.4l-5.14,13.65h1.95l1.39-3.81h5.52l1.43,3.81h1.95l-5.14-13.65H394.95z M393.72,93.58l2.19-5.9l2.19,5.9H393.72z
				 M410.95,96.87l-4.88-11.46h-2.05v13.65h1.73V88.68l4.42,10.38h1.55l4.4-10.38v10.38h1.73V85.4h-2.03L410.95,96.87z
				 M428.74,87.05V85.4h-7.35v13.65h7.35v-1.65h-5.62v-4.4h5.22v-1.65h-5.22v-4.32H428.74z"/>
		</g>
	</g>
</g>
</svg>
