<svg width="82" height="74" viewBox="0 0 82 74" fill="none" xmlns="http://www.w3.org/2000/svg">
<path fill-rule="evenodd" clip-rule="evenodd" d="M0 41.7659C0 41.7659 5.21 39.5259 9.4 33.7959C13.32 28.4259 16.23 19.5459 16.23 19.5459L21.35 21.2259L16.65 18.2959C16.65 18.2959 18.12 14.5559 20.49 11.5859C22.81 8.6859 26.04 6.5559 26.04 6.5559L29.03 10.3259L27.32 5.7159C27.32 5.7159 32.55 1.9459 37.57 0.685899C42.51 -0.554101 47.82 0.265899 47.82 0.265899L47.39 8.6559L50.38 0.685899L51.23 9.0659L52.94 0.685899C52.94 0.685899 58.07 1.2159 62.76 3.6159C67.47 6.0359 71.73 10.3259 71.73 10.3259L68.31 14.0959L73.01 11.5759C73.01 11.5759 75.96 15.5959 78.13 19.9559C80.23 24.1859 81.55 28.7559 81.55 28.7559C81.55 28.7559 79.23 27.9159 77.28 27.9159C74.99 27.9159 73.01 28.7559 73.01 28.7559C73.01 28.7559 76.83 29.1059 79.42 30.4359C81.14 31.3259 81.98 32.1159 81.98 32.1159C81.98 32.1159 77.82 31.6959 73.44 32.1159C69.07 32.5359 64.47 33.7959 64.47 33.7959C64.47 33.7959 64.05 27.7959 60.63 23.3159C57.68 19.4559 51.66 17.0259 51.66 17.0259C51.66 17.0259 46.72 14.8259 41.84 14.9259C36.69 15.0359 31.59 17.4359 31.59 17.4359C31.59 17.4359 34.94 16.9059 37.14 17.0159C39.21 17.1159 40.13 17.4359 40.13 17.4359C40.13 17.4359 34.78 18.5759 30.73 22.0459C26.25 25.8859 23.04 32.5259 23.04 32.5259C23.04 32.5259 19.1 39.0659 14.5 40.9059C7.95 43.5459 0 41.7659 0 41.7659Z" fill="#409DD7"/>
<path fill-rule="evenodd" clip-rule="evenodd" d="M16.65 45.3159C16.65 45.3159 20.09 43.9159 23.48 39.4459C25.75 36.4559 27.68 31.6759 29.46 28.5459C31.25 25.4059 33.73 23.9359 33.73 23.9359C33.73 23.9359 38.9 20.8059 44.41 21.8359C50.84 23.0459 55.94 27.7059 55.94 27.7059C55.94 27.7059 54.77 25.7159 52.95 23.9359C50.93 21.9559 48.25 20.1659 48.25 20.1659C48.25 20.1659 55.64 21.9459 59.35 26.4559C62.89 30.7459 62.77 37.7759 62.77 37.7759C62.77 37.7759 60.99 38.2359 58.93 37.7759C56.35 37.2059 53.38 35.6759 53.38 35.6759C53.38 35.6759 55.39 37.7659 58.08 39.0259C60.25 40.0459 63.2 40.2859 63.2 40.2859C63.2 40.2859 63.42 43.4559 62.77 47.4159C62.27 50.4459 61.28 54.0659 60.63 57.0559C59.8 60.8859 59.35 63.7659 59.35 63.7659C59.35 63.7659 57.43 62.7059 57.21 59.5759C57 56.6359 58.49 51.6059 58.49 51.6059L48.24 43.2259C48.24 43.2259 48.01 47.1959 49.95 49.9359C51.86 52.6459 55.93 54.1259 55.93 54.1259C55.93 54.1259 53.93 58.9759 53.37 64.1859C52.87 68.7859 53.8 73.8259 53.8 73.8259C53.8 73.8259 49.71 72.7759 45.26 69.2159C41.69 66.3559 37.57 60.8259 37.57 60.8259V39.4459L33.73 57.4759C33.73 57.4759 30.28 53.3659 26.04 50.3459C21.74 47.2859 16.65 45.3159 16.65 45.3159Z" fill="white"/>
</svg>
