<svg width="48" height="48" viewBox="0 0 48 48" fill="none" xmlns="http://www.w3.org/2000/svg">
<path d="M44.0213 6.42853L36.6832 0.325125C36.4307 0.115031 36.1125 0 35.784 0H12.215C11.8865 0 11.5685 0.115031 11.3158 0.325125L3.9777 6.42853C3.65642 6.69572 3.4707 7.09191 3.4707 7.50966V26.2326C3.4707 33.0382 7.20317 39.2516 13.2116 42.4478L23.339 47.8352C23.5455 47.945 23.7725 47.9999 23.9995 47.9999C24.2265 47.9999 24.4535 47.945 24.66 47.8352L34.7874 42.4478C40.7959 39.2516 44.5283 33.0382 44.5283 26.2326V7.50975C44.5284 7.09191 44.3426 6.69572 44.0213 6.42853ZM24.66 41.1188C24.4535 41.2285 24.2265 41.2835 23.9995 41.2835C23.7725 41.2835 23.5455 41.2285 23.339 41.1188L16.3693 37.4111C12.0908 35.1353 9.43302 30.7108 9.43302 25.8646V12.3232C9.43302 11.9053 9.61873 11.5091 9.94002 11.242L14.9901 7.04156C15.2427 6.83147 15.5609 6.71644 15.8894 6.71644H32.1096C32.4381 6.71644 32.7562 6.83147 33.0089 7.04156L38.059 11.242C38.3803 11.5092 38.566 11.9054 38.566 12.3232V25.8647C38.566 30.7109 35.9081 35.1353 31.6297 37.4112L24.66 41.1188Z" fill="#FFB800"/>
<path d="M35.7531 25.8648V12.9827L31.6008 9.52905H16.3974L12.2451 12.9827V25.8648C12.2451 29.6689 14.3314 33.1418 17.6898 34.9283L23.9991 38.2845L30.3084 34.9283C33.6668 33.1418 35.7531 29.6688 35.7531 25.8648ZM30.6144 21.4788L23.5831 28.5101C23.3086 28.7846 22.9486 28.922 22.5888 28.922C22.229 28.922 21.869 28.7847 21.5945 28.5101L17.3838 24.2996C16.8346 23.7504 16.8346 22.86 17.3838 22.3108C17.9329 21.7616 18.8234 21.7616 19.3726 22.3108L22.5889 25.5271L28.6259 19.4902C29.175 18.941 30.0654 18.941 30.6146 19.4902C31.1637 20.0393 31.1637 20.9297 30.6144 21.4788Z" fill="#FFB800"/>
</svg>
