<svg width="72" height="72" viewBox="0 0 72 72" fill="none" xmlns="http://www.w3.org/2000/svg">
<g clip-path="url(#clip0_613_2312)">
<path d="M65.5867 12.4327C55.6804 9.71841 45.7158 5.49193 36.7703 0.210349C36.2951 -0.0701976 35.7055 -0.0701976 35.2304 0.210349C26.0268 5.64367 16.6007 9.64149 6.41319 12.4327C5.75507 12.6129 5.29888 13.2111 5.29888 13.8936V29.3687C5.29888 45.3048 12.6506 55.8533 18.8181 61.8961C25.4579 68.4021 33.1922 72 36.0004 72C38.8082 72 46.5426 68.4021 53.1823 61.8961C59.3497 55.8535 66.701 45.3049 66.701 29.3687V13.8934C66.701 13.2111 66.2448 12.6129 65.5867 12.4327ZM63.6719 29.3686C63.6719 44.2528 56.8149 54.0958 51.0622 59.7323C44.5329 66.13 37.5519 68.9706 36.0004 68.9706C34.4488 68.9706 27.4674 66.13 20.9379 59.7323C15.1854 54.0956 8.32808 44.2528 8.32808 29.3686V15.0432C18.0703 12.2771 27.1431 8.41679 36.0006 3.2695C44.637 8.28024 54.1625 12.3325 63.6719 15.0426V29.3686Z" fill="#E5E5E5"/>
<path d="M22.5756 14.8737C22.2691 14.0953 21.3897 13.713 20.6112 14.0197C17.9056 15.0858 15.1285 16.067 12.3573 16.9364C11.7257 17.1347 11.296 17.7197 11.296 18.3814V24.2302C11.296 25.0666 11.9742 25.7447 12.8105 25.7447C13.6468 25.7447 14.325 25.0666 14.325 24.2302V19.4883C16.8111 18.6839 19.2946 17.7942 21.7216 16.8378C22.5 16.5314 22.8823 15.6521 22.5756 14.8737Z" fill="#E5E5E5"/>
<path d="M25.4527 15.161C25.6559 15.161 25.8622 15.1201 26.06 15.0337L26.0879 15.0216C26.8541 14.6858 27.1992 13.7938 26.8634 13.0279C26.5273 12.2616 25.6303 11.915 24.8648 12.2505L24.8404 12.261C24.0737 12.5959 23.7275 13.4871 24.0623 14.2535C24.3108 14.8225 24.8684 15.161 25.4527 15.161Z" fill="#E5E5E5"/>
<path d="M54.0452 48.8366C53.3453 48.3791 52.4068 48.5758 51.9487 49.276C50.7007 51.1863 49.2365 53.0155 47.5963 54.7124C46.2474 56.1077 44.7857 57.4082 43.252 58.5775C42.5869 59.0846 42.459 60.0349 42.9659 60.7002C43.2642 61.091 43.7152 61.2966 44.1714 61.2966C44.4917 61.2966 44.8144 61.1955 45.0887 60.9863C46.7431 59.7247 48.3195 58.3223 49.7738 56.8179C51.5473 54.9836 53.1321 53.0036 54.4846 50.9329C54.9424 50.2325 54.7453 49.294 54.0452 48.8366Z" fill="#E5E5E5"/>
<path d="M39.7346 60.9528L39.6477 61.0039C38.9239 61.4232 38.6766 62.3496 39.0956 63.0734C39.3765 63.5585 39.8848 63.8294 40.4078 63.8294C40.6652 63.8294 40.9264 63.7637 41.1651 63.6252L41.2653 63.5663C41.9872 63.1436 42.2296 62.2158 41.8069 61.494C41.3839 60.7725 40.456 60.5305 39.7346 60.9528Z" fill="#E5E5E5"/>
<path d="M25.6765 32.9088C24.7466 31.9787 23.5098 31.4669 22.1944 31.4669C20.879 31.4669 19.642 31.9789 18.7117 32.9088C16.7917 34.8292 16.7917 37.9539 18.7117 39.8741L27.6548 48.817C28.5849 49.7468 29.8217 50.2588 31.1373 50.2588C32.4528 50.2588 33.6896 49.7468 34.6198 48.8167L53.2893 30.1471C55.2091 28.2263 55.2091 25.1021 53.289 23.1824C52.3589 22.2523 51.1222 21.7404 49.8065 21.7404C48.4909 21.7404 47.2541 22.2524 46.3239 23.1824L31.1371 38.3692L25.6765 32.9088ZM48.4659 25.3244C48.8238 24.9665 49.3001 24.7695 49.8066 24.7695C50.3134 24.7695 50.7893 24.9665 51.1475 25.3244C51.8864 26.0634 51.8864 27.2663 51.1472 28.0055L32.478 46.6749C32.1201 47.0328 31.6438 47.2298 31.1373 47.2298C30.6307 47.2298 30.1544 47.0328 29.7964 46.6749L20.8535 37.7323C20.1143 36.993 20.1143 35.7901 20.8532 35.0511C21.2113 34.6932 21.6876 34.4959 22.1942 34.4959C22.7009 34.4959 23.1769 34.6929 23.5348 35.0508L30.0661 41.5823C30.3503 41.8662 30.7354 42.0258 31.1371 42.0258C31.5389 42.0258 31.9239 41.8663 32.2078 41.5823L48.4659 25.3244Z" fill="#E5E5E5"/>
</g>
<defs>
<clipPath id="clip0_613_2312">
<rect width="72" height="72" fill="white"/>
</clipPath>
</defs>
</svg>
