<svg width="72" height="72" viewBox="0 0 72 72" fill="none" xmlns="http://www.w3.org/2000/svg">
<path d="M32.9484 0.309376C32.7937 0.492188 32.5969 0.984375 32.4984 1.42031C32.2875 2.39062 31.6828 3.375 31.0641 3.76875C30.7969 3.92344 30.0938 4.24688 29.4891 4.48594C27.8297 5.14688 26.6906 5.04844 25.5094 4.14844C25.2 3.92344 24.8625 3.79688 24.525 3.79688C24.0187 3.79688 23.8641 3.92344 22.1203 5.66719C20.3766 7.41094 20.25 7.56563 20.25 8.07188C20.25 8.40938 20.3766 8.74688 20.6016 9.05625C21.5016 10.2375 21.6 11.3766 20.9391 13.0359C20.7 13.6406 20.3766 14.3438 20.2219 14.6109C19.8281 15.2297 18.8438 15.8344 17.8734 16.0453C16.4531 16.3547 16.4531 16.3406 16.4531 19.5609C16.4531 22.2328 16.4672 22.3594 16.7484 22.6266C16.9172 22.7812 17.3531 22.95 17.7047 23.0063C18.5906 23.1328 19.6031 23.6672 20.0391 24.2438C20.2359 24.4969 20.6156 25.2563 20.8828 25.9313C21.6 27.7172 21.5297 28.8141 20.6016 30.0375C20.3766 30.3469 20.25 30.6844 20.25 31.0219C20.25 31.5281 20.3766 31.6828 22.1203 33.4266C24.3 35.6063 24.3703 35.6344 25.7625 34.7766C26.9719 34.0312 27.9281 33.975 29.4609 34.5938C30.0797 34.8328 30.7969 35.1703 31.0641 35.325C31.6828 35.7188 32.2875 36.7031 32.4984 37.6734C32.8078 39.0938 32.7937 39.0938 36 39.0938C39.2062 39.0938 39.1922 39.0938 39.5016 37.6734C39.7125 36.7031 40.3172 35.7188 40.9359 35.325C41.2031 35.1703 41.9203 34.8328 42.5391 34.5938C44.0719 33.975 45.0281 34.0312 46.2375 34.7766C47.6297 35.6344 47.7 35.6063 49.8797 33.4266C51.6234 31.6828 51.75 31.5281 51.75 31.0219C51.75 30.6844 51.6234 30.3469 51.3984 30.0375C50.4703 28.8141 50.4 27.7172 51.1172 25.9313C51.3844 25.2563 51.7641 24.4969 51.9609 24.2438C52.3969 23.6813 53.3953 23.1469 54.2812 23.0063C54.6328 22.95 55.0547 22.7672 55.2234 22.6125C55.5328 22.3172 55.5469 22.2328 55.5469 19.5469C55.5469 16.8609 55.5328 16.7766 55.2375 16.4953C55.0547 16.3406 54.6609 16.1578 54.3516 16.1156C53.4375 15.9469 52.3828 15.3984 51.975 14.8641C51.7641 14.5969 51.3703 13.8094 51.1031 13.1344C50.4281 11.4609 50.4562 10.5609 51.2297 9.30938C52.0875 7.91719 52.0594 7.84688 49.8797 5.66719C48.1359 3.92344 47.9812 3.79688 47.475 3.79688C47.1375 3.79688 46.8 3.92344 46.4906 4.14844C45.3094 5.04844 44.1703 5.14688 42.5109 4.48594C41.9062 4.24688 41.2031 3.92344 40.9359 3.76875C40.3172 3.375 39.7125 2.39062 39.5016 1.42031C39.1922 0 39.2062 0 36 0C33.3141 0 33.2297 0.0140648 32.9484 0.309376ZM37.2656 2.57344C37.2656 3.0375 38.1656 4.51406 38.8266 5.13281C39.5719 5.82188 41.2594 6.69375 42.6797 7.11563C43.7906 7.425 45.6469 7.32656 46.6031 6.90469L47.3062 6.59531L48.1219 7.41094L48.9516 8.24063L48.6422 8.92969C48.2062 9.88594 48.1078 11.7422 48.4312 12.8672C48.8531 14.2875 49.725 15.975 50.4141 16.7203C51.0328 17.3813 52.5094 18.2812 52.9734 18.2812C53.1141 18.2812 53.1562 18.5766 53.1562 19.5469C53.1562 20.5172 53.1141 20.8125 52.9734 20.8125C52.5094 20.8125 51.0328 21.7125 50.4141 22.3734C49.7109 23.1188 48.8391 24.8063 48.4453 26.2125C48.1219 27.3375 48.2062 29.1938 48.6422 30.15L48.9516 30.8531L48.1359 31.6688L47.3062 32.4984L46.6172 32.1891C45.6609 31.7531 43.8047 31.6547 42.6797 31.9781C41.2594 32.4 39.5719 33.2719 38.8266 33.9609C38.1656 34.5797 37.2656 36.0563 37.2656 36.5203C37.2656 36.6609 36.9703 36.7031 36 36.7031C35.0297 36.7031 34.7344 36.6609 34.7344 36.5203C34.7344 36.0563 33.8344 34.5797 33.1734 33.9609C32.4281 33.2578 30.7406 32.3859 29.3344 31.9922C28.1953 31.6547 26.3531 31.7531 25.3828 32.1891L24.6937 32.4984L23.8781 31.6688L23.0484 30.8531L23.3578 30.1641C23.7937 29.1938 23.8922 27.3516 23.5547 26.2125C23.1609 24.8063 22.2891 23.1188 21.5859 22.3734C20.9672 21.7125 19.4906 20.8125 19.0266 20.8125C18.8859 20.8125 18.8438 20.5172 18.8438 19.5469C18.8438 18.5766 18.8859 18.2812 19.0266 18.2812C19.4906 18.2812 20.9672 17.3813 21.5859 16.7203C22.2891 15.975 23.1609 14.2875 23.5547 12.8813C23.8922 11.7422 23.7937 9.9 23.3578 8.92969L23.0484 8.24063L23.8781 7.425L24.6937 6.59531L25.3828 6.90469C26.3531 7.34063 28.1953 7.43906 29.3344 7.10156C30.7406 6.70781 32.4281 5.83594 33.1734 5.13281C33.8344 4.51406 34.7344 3.0375 34.7344 2.57344C34.7344 2.43281 35.0297 2.39062 36 2.39062C36.9703 2.39062 37.2656 2.43281 37.2656 2.57344Z" fill="white"/>
<path d="M34.5234 10.0688C31.5844 10.5328 28.8281 12.5297 27.4922 15.1875C26.8453 16.4672 26.5781 17.4516 26.4797 18.9141C26.2828 22.0922 27.7031 25.2985 30.1359 27.0985C33.7922 29.8125 38.5453 29.7422 42.0891 26.9297C45.4359 24.2719 46.5188 19.1672 44.5359 15.2578C43.3547 12.8953 41.2313 11.1235 38.6719 10.35C37.9125 10.111 35.3391 9.94222 34.5234 10.0688ZM37.4344 12.5297C39.7969 13.0219 41.9203 14.9063 42.7641 17.2407C43.0031 17.8875 43.0734 18.3797 43.0734 19.5469C43.0734 21.811 42.4406 23.2594 40.7813 24.8063C38.0391 27.3375 33.9609 27.3375 31.2188 24.8063C28.7859 22.5422 28.1813 19.3219 29.6297 16.3125C30.1219 15.3 31.7531 13.6688 32.7656 13.1766C34.3266 12.4313 35.8875 12.2063 37.4344 12.5297Z" fill="white"/>
<path d="M36.675 18.0984L34.5938 20.1656L33.9891 19.575C33.1453 18.7453 32.5125 18.6469 31.9219 19.2375C31.1766 19.9828 31.3735 20.5172 32.9485 22.0359C33.8766 22.95 34.0594 23.0625 34.5375 23.0625C35.0438 23.0625 35.2125 22.9219 37.7156 20.4188C39.1781 18.9703 40.4016 17.6484 40.4578 17.4656C40.5563 17.0719 40.261 16.3406 39.9235 16.1719C39.7828 16.0875 39.4735 16.0312 39.2203 16.0312C38.8266 16.0312 38.5031 16.2844 36.675 18.0984Z" fill="white"/>
<path d="M1.75781 17.6625C1.13906 18 0.576562 18.5625 0.267188 19.1531C0.0140625 19.6594 0 20.1094 0 29.3625C0 38.475 0.0140625 39.1078 0.267188 40.1063C0.604688 41.3859 1.02656 42.2578 2.1375 43.9312C4.33125 47.2078 5.94844 49.1484 9.3375 52.5375C12.4594 55.6453 12.9234 56.2781 13.4156 57.9234C13.5422 58.3453 13.6406 59.1469 13.6406 59.7094V60.7219L12.9516 60.8906C12.1078 61.0875 11.1656 61.8609 10.8141 62.6344C10.5891 63.1406 10.5469 63.6047 10.5469 66.3891V69.5812L10.9406 70.3266C11.1797 70.8047 11.5594 71.2406 11.9391 71.5078L12.5437 71.9297L21.4875 71.9719C31.6125 72.0141 31.1906 72.0562 32.1891 70.9312C32.4984 70.5656 32.7938 70.0453 32.8922 69.6797C33.1172 68.7797 33.0891 63.6328 32.85 62.9578C32.5687 62.1844 31.9922 61.5094 31.3594 61.2141C30.9375 61.0172 30.7828 60.8625 30.7266 60.5391C30.6984 60.3 30.4734 57.9656 30.2344 55.3359C29.9953 52.7062 29.7141 50.2031 29.6016 49.7672C29.0953 47.8406 27.8578 45.8719 26.1 44.1844C24.7641 42.9047 23.6812 42.1594 21.6562 41.1188C20.3766 40.4719 20.1656 40.2891 16.8047 36.9703C14.3297 34.5375 13.0781 33.3984 12.5859 33.1594C11.7984 32.7656 10.6734 32.4844 9.85781 32.4844H9.32344L9.225 31.2469C9.18281 30.5719 9.07031 28.3781 8.98594 26.3672C8.90156 24.1734 8.76094 22.3734 8.63437 21.8672C8.2125 20.1656 7.12969 18.8297 5.5125 18.0281C4.58437 17.5781 4.28906 17.5078 3.31875 17.4656C2.475 17.4375 2.06719 17.4938 1.75781 17.6625ZM4.34531 20.1094C5.38594 20.6297 6.20156 21.7266 6.38437 22.7812C6.42656 23.0484 6.56719 25.4953 6.69375 28.2234L6.91875 33.1734L6.08906 33.9891C5.45625 34.6078 5.20312 34.9734 5.0625 35.4797C4.85156 36.2531 4.93594 37.3219 5.2875 37.9969C5.58281 38.6016 17.7891 50.85 18.3094 51.0609C19.1109 51.3844 19.9688 50.8219 19.9688 49.9359C19.9688 49.4719 19.5891 49.0641 13.6406 43.1016C9.32344 38.7844 7.3125 36.675 7.3125 36.4641C7.3125 35.775 8.81719 34.875 9.97031 34.875C11.025 34.8891 11.6156 35.3391 14.9766 38.6578C18.3234 41.9625 18.8438 42.3984 20.3906 43.1719C23.9344 44.9438 26.2547 47.3062 27.1969 50.1187C27.3937 50.6953 28.2656 59.0344 28.2656 60.3562V60.75H22.1484H16.0312V59.5828C16.0312 58.1203 15.6516 56.5734 14.9484 55.2234C14.5125 54.3656 14.0062 53.7891 11.6016 51.3984C8.81719 48.6281 7.48125 47.1375 5.80781 44.9297C4.54219 43.2562 3.16406 41.0906 2.78437 40.2188L2.46094 39.4453L2.41875 29.8266C2.39062 22.7109 2.41875 20.1656 2.54531 20.025C2.78437 19.7438 3.72656 19.7859 4.34531 20.1094ZM30.3047 63.4922C30.6562 63.8297 30.6562 63.8578 30.6562 66.4031C30.6562 68.5125 30.6141 69.0469 30.4312 69.3L30.2203 69.6094H21.8391C14.2312 69.6094 13.4297 69.5812 13.1906 69.3703C12.9656 69.1734 12.9375 68.8781 12.9375 66.4172C12.9375 63.8859 12.9516 63.6891 13.2188 63.4219C13.5 63.1406 13.6828 63.1406 21.7266 63.1406H29.9672L30.3047 63.4922Z" fill="white"/>
<path d="M67.0641 17.775C65.5453 18.3937 64.7016 19.1109 63.9422 20.4187C63.3375 21.4453 63.1687 22.4719 63.0141 26.3672C62.9297 28.3781 62.8172 30.5719 62.775 31.2469L62.6766 32.4844H62.1C61.3547 32.4844 60.075 32.8219 59.3016 33.2016C58.95 33.3844 57.2766 34.9172 55.1953 36.9703C51.8344 40.2891 51.6234 40.4719 50.3438 41.1187C48.3188 42.1594 47.2359 42.9047 45.9 44.1844C44.1422 45.8719 42.9047 47.8406 42.3984 49.7672C42.2859 50.2031 42.0047 52.7062 41.7656 55.3359C41.5266 57.9656 41.3016 60.3 41.2734 60.5391C41.2172 60.8625 41.0625 61.0172 40.6406 61.2141C40.0078 61.5094 39.4313 62.1844 39.15 62.9578C38.9109 63.6328 38.8828 68.7797 39.1078 69.6797C39.2063 70.0453 39.5016 70.5656 39.8109 70.9312C40.8094 72.0562 40.3875 72.0141 50.5125 71.9719L59.4562 71.9297L60.0609 71.5078C60.4406 71.2406 60.8203 70.8047 61.0594 70.3266L61.4531 69.5812V66.3891C61.4531 63.6047 61.4109 63.1406 61.1859 62.6344C60.8344 61.8609 59.8922 61.0875 59.0484 60.8906L58.3594 60.7219V59.7094C58.3594 59.1469 58.4578 58.3453 58.5844 57.9234C59.0766 56.2641 59.5406 55.6453 62.6625 52.5375C65.7562 49.4437 67.7953 47.025 69.6516 44.2406C70.9734 42.2578 71.3953 41.4281 71.7328 40.1062C71.9859 39.1078 72 38.475 72 29.3625C72 18.7594 72.0422 19.3078 71.1703 18.3797C70.2562 17.3812 68.5969 17.1422 67.0641 17.775ZM69.4547 20.025C69.5812 20.1656 69.6094 22.7109 69.5812 29.8266L69.5391 39.4453L69.1734 40.3031C68.5828 41.6812 66.5297 44.6203 64.2797 47.3203C63.7031 48.0094 61.9594 49.8516 60.3984 51.3984C57.9937 53.7891 57.4875 54.3656 57.0516 55.2234C56.3484 56.5734 55.9688 58.1203 55.9688 59.5828V60.75H49.8516H43.7344V60.3562C43.7344 59.0344 44.6063 50.6953 44.8031 50.1187C45.3234 48.5578 46.4203 46.9406 47.7141 45.7594C48.5859 44.9719 50.3297 43.8047 51.6094 43.1719C53.1562 42.3984 53.6766 41.9625 57.1641 38.5312C60.6797 35.0719 60.9469 34.875 62.1141 34.875C63.1828 34.875 64.6875 35.8031 64.6875 36.4641C64.6875 36.675 62.6766 38.7844 58.3594 43.1016C52.4109 49.0641 52.0312 49.4719 52.0312 49.9359C52.0312 50.8219 52.8891 51.3844 53.6906 51.0609C54.2109 50.85 66.4172 38.6016 66.7125 37.9969C67.0641 37.3219 67.1484 36.2531 66.9375 35.4797C66.7969 34.9734 66.5437 34.6078 65.9109 33.9891L65.0812 33.1734L65.3062 28.2234C65.4328 25.4953 65.5734 23.0484 65.6156 22.7812C65.8687 21.2625 67.3875 19.8422 68.7797 19.8281C69.0609 19.8281 69.3703 19.9125 69.4547 20.025ZM58.7812 63.4219C59.0484 63.6891 59.0625 63.8859 59.0625 66.4031C59.0625 68.7094 59.0344 69.1312 58.8234 69.3562C58.6125 69.5953 58.1625 69.6094 50.1891 69.6094H41.7797L41.5688 69.3C41.3859 69.0469 41.3438 68.5125 41.3438 66.4031C41.3438 63.8578 41.3438 63.8297 41.6953 63.4922L42.0328 63.1406H50.2734C58.3172 63.1406 58.5 63.1406 58.7812 63.4219Z" fill="white"/>
</svg>
