<svg width="72" height="72" viewBox="0 0 72 72" fill="none" xmlns="http://www.w3.org/2000/svg">
<g clip-path="url(#clip0_613_2307)">
<path d="M33.2233 48.8343C33.7731 48.2844 33.7731 47.3945 33.2233 46.8446C32.6729 46.2964 31.7812 46.2964 31.2303 46.8446C30.681 47.3945 30.681 48.2844 31.2303 48.8343C31.7812 49.3825 32.6729 49.3825 33.2233 48.8343Z" fill="#E1E1E1"/>
<path d="M26.5525 15.4644C26.5525 23.9914 33.5034 30.9293 42.0471 30.9293C50.5909 30.9293 57.5418 23.9914 57.5418 15.4644C57.5418 6.93732 50.5909 0 42.0471 0C33.5034 0 26.5525 6.93732 26.5525 15.4644ZM54.7249 15.4644C54.7249 22.4412 49.0377 28.1173 42.0471 28.1173C35.0566 28.1173 29.3694 22.4412 29.3694 15.4644C29.3694 8.48804 35.0566 2.81195 42.0471 2.81195C49.0377 2.81195 54.7249 8.48804 54.7249 15.4644Z" fill="#E1E1E1"/>
<path d="M16.2954 71.5842C16.8414 72.1335 17.7303 72.1396 18.2834 71.5957L25.1127 64.8809C26.2729 63.7229 26.6257 62.0085 26.1155 60.5182L27.5845 59.1043C28.3754 58.3418 29.4167 57.9216 30.5175 57.9216H49.2435C52.5656 57.9216 55.7056 56.6483 58.0861 54.3362C58.184 54.2412 57.3425 55.2305 70.8612 39.1048C72.8663 36.7372 72.5663 33.182 70.1919 31.1787C67.8324 29.194 64.2978 29.4791 62.2872 31.806L53.9752 40.3325C52.9256 39.0432 51.3251 38.2396 49.5957 38.2396H33.8881C31.653 37.3063 29.2813 36.8339 26.8343 36.8339C20.0513 36.8339 14.1285 39.9606 10.95 45.8229C9.6109 45.5697 8.1986 45.974 7.18258 46.988L0.481562 53.6957C-0.0655267 54.2434 -0.0666274 55.1294 0.479361 55.6787L16.2954 71.5842ZM26.8338 39.6453C28.9913 39.6453 31.0773 40.0787 33.035 40.9334C33.2133 41.0114 33.4054 41.0515 33.5997 41.0515H49.5957C51.1231 41.0515 52.4132 42.2946 52.4132 43.8629C52.4132 45.4137 51.1495 46.6749 49.5957 46.6749H38.103C37.3253 46.6749 36.6946 47.3044 36.6946 48.0806C36.6946 48.8573 37.3253 49.4863 38.103 49.4863H49.5957C52.7027 49.4863 55.2301 46.9638 55.2301 43.8629C55.2301 43.6158 55.2125 43.3708 55.1806 43.128C63.2212 34.8789 64.355 33.7198 64.4035 33.6621C65.4074 32.4795 67.1895 32.3295 68.3751 33.3271C69.5617 34.3285 69.712 36.106 68.7053 37.2953L56.0711 52.3697C54.2262 54.1374 51.8039 55.1102 49.2435 55.1102H30.5175C28.6825 55.1102 26.9455 55.8106 25.6278 57.0812L24.4307 58.2342L13.3954 47.2209C15.9745 42.3919 20.8141 39.6453 26.8338 39.6453ZM9.1761 48.9749C9.64063 48.5113 10.3539 48.4278 10.9203 48.7771C11.1641 48.9254 10.464 48.2893 23.1208 60.9038C23.6839 61.4658 23.6536 62.3612 23.1285 62.8852L17.3065 68.6097L3.46578 54.6905L9.1761 48.9749Z" fill="#E1E1E1"/>
<path d="M40.3569 7.0296V8.677C38.7173 9.25708 37.5394 10.8199 37.5394 12.653C37.5394 14.9782 39.435 16.8706 41.7653 16.8706C42.542 16.8706 43.1738 17.5012 43.1738 18.2763C43.1738 19.0514 42.542 19.682 41.7653 19.682C41.1638 19.682 40.5138 19.3046 39.9364 18.6185C39.4355 18.0242 38.5472 17.9478 37.9517 18.4471C37.3562 18.947 37.2791 19.8336 37.78 20.428C38.5329 21.3217 39.4185 21.9446 40.3569 22.2589V23.8997C40.3569 24.6764 40.9876 25.3054 41.7653 25.3054C42.5431 25.3054 43.1738 24.6764 43.1738 23.8997V22.2523C44.8134 21.6716 45.9913 20.1088 45.9913 18.2763C45.9913 15.9505 44.0957 14.0587 41.7653 14.0587C40.9887 14.0587 40.3569 13.428 40.3569 12.653C40.3569 11.8779 40.9887 11.2467 41.7653 11.2467C42.2646 11.2467 42.7913 11.501 43.2888 11.9817C43.848 12.5217 44.7397 12.5068 45.2807 11.9493C45.8217 11.3912 45.8069 10.5013 45.2482 9.96131C44.5333 9.27081 43.8178 8.88025 43.1738 8.66712V7.0296C43.1738 6.25287 42.5431 5.62335 41.7653 5.62335C40.9876 5.62335 40.3569 6.25287 40.3569 7.0296Z" fill="#E1E1E1"/>
</g>
<defs>
<clipPath id="clip0_613_2307">
<rect width="72" height="72" fill="white"/>
</clipPath>
</defs>
</svg>
