<svg width="157" height="169" viewBox="0 0 157 169" fill="none" xmlns="http://www.w3.org/2000/svg">
<g clip-path="url(#clip0_2817_1724)">
<path d="M78.9982 169C77.7662 169 76.5342 168.678 75.4312 168.034C28.7532 140.805 11.0229 101.772 4.36797 73.822C-2.82568 43.6102 0.99515 19.9566 1.16103 18.9653C1.558 16.5934 3.11468 14.5809 5.30227 13.6096C6.01256 13.2944 23.0185 5.83487 49.6494 2.07374C74.1665 -1.38787 111.89 -2.2194 152.375 13.4784C154.611 14.3456 156.263 16.2882 156.769 18.6444C157.275 21.0006 156.566 23.4553 154.885 25.174L80.0913 101.586C78.7615 102.945 76.9467 103.713 75.0512 103.721H75.0243C73.1387 103.721 71.3296 102.968 69.9955 101.626L45.9831 77.469C43.2058 74.6749 43.2058 70.145 45.9831 67.3509C48.7605 64.5568 53.2633 64.5568 56.0406 67.3509L74.9846 86.409L136.889 23.1643C79.1641 4.69527 28.5349 20.2247 14.7331 25.2624C14.0498 32.7904 13.3225 50.3637 18.3328 71.0407C26.8464 106.176 47.2478 133.903 78.9968 153.515C125.512 124.758 139.416 83.2369 142.822 53.1108C143.266 49.1842 146.786 46.3601 150.692 46.8108C154.595 47.2573 157.398 50.8016 156.955 54.7282C153.093 88.8722 137.054 136.245 82.5667 168.034C81.4637 168.678 80.2302 169 78.9996 169H78.9982Z" fill="url(#paint0_linear_2817_1724)"/>
</g>
<defs>
<linearGradient id="paint0_linear_2817_1724" x1="33.0249" y1="116.284" x2="111.171" y2="10.7418" gradientUnits="userSpaceOnUse">
<stop stop-color="#01BEFF"/>
<stop offset="0.27" stop-color="#03CCE6"/>
<stop offset="0.83" stop-color="#0AF2A9"/>
<stop offset="1" stop-color="#0DFF96"/>
</linearGradient>
<clipPath id="clip0_2817_1724">
<rect width="157" height="169" fill="white"/>
</clipPath>
</defs>
</svg>
