<svg width="48" height="49" viewBox="0 0 48 49" fill="none" xmlns="http://www.w3.org/2000/svg">
<path d="M37.8992 12.8248L24.9848 7.29011C24.3559 7.02059 23.6441 7.02059 23.0152 7.2901L10.1008 12.8248C9.07678 13.2637 8.46673 14.3273 8.60493 15.4328L10.2179 28.3367C10.4538 30.2237 11.3977 31.9506 12.8586 33.1681L22.3995 41.1188C23.3267 41.8914 24.6734 41.8914 25.6005 41.1188L35.1414 33.1681C36.6023 31.9506 37.5462 30.2237 37.7821 28.3367L39.3951 15.4328C39.5333 14.3273 38.9232 13.2637 37.8992 12.8248Z" stroke="#098CEC" stroke-width="3" stroke-linecap="round"/>
<path d="M18 24.5L23.5687 30.0687C23.7918 30.2918 24.1633 30.2551 24.3383 29.9925L32 18.5" stroke="#098CEC" stroke-width="3" stroke-linecap="round"/>
</svg>
