<svg width="32" height="32" viewBox="0 0 32 32" fill="none" xmlns="http://www.w3.org/2000/svg">
    <path d="M9.36588 28.2276V25.626C9.36588 25.2668 9.65706 24.9756 10.0163 24.9756H29.3984C29.7576 24.9756 30.0488 25.2668 30.0488 25.626V28.2276C30.0488 28.5868 29.7576 28.878 29.3984 28.878H10.0162C9.65706 28.8781 9.36588 28.5869 9.36588 28.2276Z" fill="#FFD432"/>
    <path d="M10.6016 24.3252V21.7236C10.6016 21.3644 10.8928 21.0732 11.252 21.0732H30.6341C30.9933 21.0732 31.2846 21.3644 31.2846 21.7236V24.3252C31.2846 24.6844 30.9934 24.9756 30.6341 24.9756H11.2521C10.8928 24.9757 10.6016 24.6845 10.6016 24.3252Z" fill="#FFD432"/>
    <path d="M11.3171 20.4229V17.8213C11.3171 17.4621 11.6083 17.1709 11.9675 17.1709H31.3496C31.7088 17.1709 32 17.4621 32 17.8213V20.4229C32 20.7821 31.7088 21.0733 31.3496 21.0733H11.9675C11.6083 21.0733 11.3171 20.7821 11.3171 20.4229Z" fill="#FFD432"/>
    <path d="M9.8862 16.5204V13.9187C9.8862 13.5596 10.1774 13.2683 10.5366 13.2683H29.9188C30.278 13.2683 30.5691 13.5595 30.5691 13.9187V16.5204C30.5691 16.8796 30.278 17.1708 29.9188 17.1708H10.5366C10.1774 17.1708 9.8862 16.8796 9.8862 16.5204Z" fill="#FFD432"/>
    <path d="M11.3171 12.618V10.0164C11.3171 9.65722 11.6083 9.36597 11.9675 9.36597H31.3496C31.7088 9.36597 32 9.65715 32 10.0164V12.618C32 12.9772 31.7088 13.2684 31.3496 13.2684H11.9675C11.6083 13.2685 11.3171 12.9773 11.3171 12.618Z" fill="#FFD432"/>
    <path d="M9.8862 8.71544V6.11382C9.8862 5.75463 10.1774 5.46338 10.5366 5.46338H29.9188C30.278 5.46338 30.5691 5.75457 30.5691 6.11382V8.71544C30.5691 9.07463 30.278 9.36582 29.9188 9.36582H10.5366C10.1774 9.36588 9.8862 9.07469 9.8862 8.71544Z" fill="#FFD432"/>
    <path d="M28.748 5.46344V7.28457C28.748 7.64375 28.4568 7.935 28.0976 7.935H9.8862V9.36588H28.748H29.9188C30.278 9.36588 30.5691 9.07469 30.5691 8.7155V7.935V6.11382C30.5691 5.75463 30.278 5.46338 29.9188 5.46338L28.748 5.46344Z" fill="#F4AC03"/>
    <path d="M30.1789 9.36603V11.1872C30.1789 11.5463 29.8877 11.8376 29.5285 11.8376H11.3171V13.2685H30.1789H31.3496C31.7088 13.2685 32 12.9773 32 12.6181V11.8376V10.0164C32 9.65722 31.7088 9.36597 31.3496 9.36597H30.1789V9.36603Z" fill="#F4AC03"/>
    <path d="M28.748 13.2684V15.0895C28.748 15.4487 28.4568 15.7399 28.0976 15.7399H9.8862V17.1708H28.748H29.9188C30.278 17.1708 30.5691 16.8796 30.5691 16.5204V15.7399V13.9187C30.5691 13.5596 30.278 13.2683 29.9188 13.2683L28.748 13.2684Z" fill="#F4AC03"/>
    <path d="M30.1789 17.1709V18.992C30.1789 19.3512 29.8877 19.6425 29.5285 19.6425H11.3171V21.0733H30.1789H31.3496C31.7088 21.0733 32 20.7821 32 20.4229V19.6424V17.8213C32 17.4621 31.7088 17.1709 31.3496 17.1709H30.1789Z" fill="#F4AC03"/>
    <path d="M29.4634 21.0732V22.8944C29.4634 23.2536 29.1722 23.5448 28.813 23.5448H10.6016V24.9757H29.4634H30.6342C30.9934 24.9757 31.2846 24.6845 31.2846 24.3253V23.5448V21.7237C31.2846 21.3645 30.9934 21.0733 30.6342 21.0733H29.4634V21.0732Z" fill="#F4AC03"/>
    <path d="M28.2276 24.9758V26.797C28.2276 27.1561 27.9364 27.4474 27.5772 27.4474H9.36588V28.2279C9.36588 28.5871 9.65706 28.8783 10.0163 28.8783H28.2277H29.3984C29.7576 28.8783 30.0488 28.5871 30.0488 28.2279V27.4474V25.6263C30.0488 25.2671 29.7576 24.9758 29.3984 24.9758H28.2276Z" fill="#F4AC03"/>
    <path d="M11.3171 4.8131V2.21147C11.3171 1.85229 11.6083 1.56104 11.9675 1.56104H31.3496C31.7088 1.56104 32 1.85222 32 2.21147V4.8131C32 5.17229 31.7088 5.46354 31.3496 5.46354H11.9675C11.6083 5.46354 11.3171 5.17229 11.3171 4.8131Z" fill="#FFD432"/>
    <path d="M30.1789 1.5611V3.38222C30.1789 3.74141 29.8877 4.03266 29.5285 4.03266H11.3171V4.81316C11.3171 5.17235 11.6083 5.4636 11.9675 5.4636H30.1789H31.3496C31.7088 5.4636 32 5.17241 32 4.81316V4.0326V2.21147C32 1.85229 31.7088 1.56104 31.3496 1.56104L30.1789 1.5611Z" fill="#F4AC03"/>
    <path d="M11.3171 30.4391C17.5673 30.4391 22.6341 25.3722 22.6341 19.122C22.6341 12.8718 17.5673 7.80493 11.3171 7.80493C5.06682 7.80493 0 12.8718 0 19.122C0 25.3722 5.06682 30.4391 11.3171 30.4391Z" fill="#FFD432"/>
    <path d="M0.388306 22.0686C0.891181 23.9384 1.86068 25.6166 3.16481 26.9709L13.9526 8.11418C13.1069 7.91243 12.2246 7.80493 11.3171 7.80493C10.2787 7.80493 9.27337 7.94556 8.31818 8.20737L0.388306 22.0686Z" fill="#FFDE73"/>
    <path d="M7.18582 29.6611C8.4657 30.1631 9.85913 30.4391 11.3171 30.4391C11.6649 30.4391 12.0089 30.4225 12.3488 30.3918L21.5563 14.2973C20.8013 12.6978 19.6831 11.3033 18.3072 10.2212L7.18582 29.6611Z" fill="#FFDE73"/>
    <path d="M11.3171 28.4879C16.4897 28.4879 20.683 24.2946 20.683 19.122C20.683 13.9493 16.4897 9.7561 11.3171 9.7561C6.14445 9.7561 1.9512 13.9493 1.9512 19.122C1.9512 24.2946 6.14445 28.4879 11.3171 28.4879Z" fill="#BA8200"/>
    <path d="M11.3171 27.5122C15.9509 27.5122 19.7073 23.7557 19.7073 19.1219C19.7073 14.4881 15.9509 10.7317 11.3171 10.7317C6.68326 10.7317 2.92682 14.4881 2.92682 19.1219C2.92682 23.7557 6.68326 27.5122 11.3171 27.5122Z" fill="#FFD432"/>
    <path d="M17.3927 19.1031C17.2512 18.5749 16.9125 18.1335 16.4389 17.86C16.0765 17.6508 15.5993 17.5446 15.0206 17.5446C14.3646 17.5446 13.6462 17.6789 13.0087 17.8445C13.0626 17.7898 13.1167 17.734 13.1707 17.6771C14.1925 16.6006 14.7106 15.655 14.7106 14.8665C14.7106 13.7377 13.7922 12.8193 12.6634 12.8193C12.2655 12.8193 11.8809 12.9366 11.554 13.1475C11.8485 13.7299 12.0179 14.3886 12.0179 14.8665C12.0179 15.0831 11.8422 15.2588 11.6256 15.2588C11.409 15.2588 11.2334 15.0831 11.2334 14.8665C11.2334 14.2378 10.8539 13.3183 10.4319 12.8723C10.282 12.8375 10.1274 12.8193 9.97074 12.8193C8.84192 12.8193 7.92355 13.7377 7.92355 14.8665C7.92355 15.6735 8.46549 16.644 9.53424 17.7511C9.56474 17.7826 9.59517 17.8137 9.62555 17.8446C8.98799 17.679 8.26961 17.5447 7.61355 17.5447C7.03486 17.5447 6.55767 17.6508 6.19524 17.8601C5.72167 18.1335 5.38292 18.575 5.24142 19.1031C5.09986 19.6313 5.17255 20.183 5.44592 20.6566C5.63949 20.9918 5.92286 21.2605 6.2568 21.4385C6.59705 20.9011 7.06436 20.4676 7.54161 20.192C7.72917 20.0836 7.96911 20.148 8.07749 20.3356C8.1858 20.5232 8.12155 20.7631 7.93392 20.8715C7.50805 21.1173 6.83899 21.7145 6.60286 22.5455C6.64799 22.6987 6.71099 22.8476 6.79236 22.9885C7.15699 23.6201 7.83692 24.0124 8.5668 24.0124C8.9243 24.0124 9.27774 23.9175 9.58886 23.7378C10.1648 23.4053 10.6527 22.6983 11.0441 21.6322C11.1522 22.9601 11.3582 24.4223 11.7509 25.2078C11.8196 25.3453 11.9581 25.4247 12.102 25.4247C12.161 25.4247 12.2209 25.4114 12.2772 25.3832C12.471 25.2863 12.5495 25.0507 12.4526 24.8569C12.1816 24.3148 12.0094 23.3564 11.9 22.3608C12.2298 23.0268 12.6129 23.488 13.0455 23.7378C13.3566 23.9174 13.71 24.0124 14.0675 24.0124H14.0676C14.7975 24.0124 15.4774 23.6201 15.842 22.9885C15.9102 22.8704 15.9652 22.7466 16.008 22.6195C15.9065 22.0391 15.2835 21.2082 14.7004 20.8715C14.5127 20.7631 14.4484 20.5232 14.5568 20.3356C14.6651 20.1479 14.9051 20.0836 15.0927 20.192C15.4985 20.4263 15.9912 20.9046 16.3437 21.4563C16.6924 21.2788 16.9883 21.0031 17.1884 20.6566C17.4617 20.183 17.5343 19.6313 17.3927 19.1031Z" fill="#DB8609"/>
</svg>
