<svg width="32" height="32" viewBox="0 0 32 32" fill="none" xmlns="http://www.w3.org/2000/svg">
<path d="M4.08517 10.0134C5.19452 7.80441 6.89634 5.94743 9.00041 4.65004C11.1045 3.35265 13.5279 2.66597 15.9998 2.66675C19.5932 2.66675 22.6118 3.98808 24.9198 6.14008L21.0972 9.96408C19.7145 8.64275 17.9572 7.96942 15.9998 7.96942C12.5265 7.96942 9.58651 10.3161 8.53984 13.4667C8.27317 14.2667 8.12117 15.1201 8.12117 16.0001C8.12117 16.8801 8.27317 17.7334 8.53984 18.5334C9.58784 21.6854 12.5265 24.0307 15.9998 24.0307C17.7932 24.0307 19.3198 23.5574 20.5145 22.7574C21.2071 22.3014 21.8 21.7097 22.2574 21.0181C22.7149 20.3264 23.0273 19.5492 23.1758 18.7334H15.9998V13.5761H28.5572C28.7145 14.4481 28.7998 15.3574 28.7998 16.3027C28.7998 20.3641 27.3465 23.7827 24.8238 26.1027C22.6185 28.1401 19.5998 29.3334 15.9998 29.3334C14.2487 29.3341 12.5146 28.9897 10.8966 28.3199C9.27857 27.6501 7.80844 26.668 6.57018 25.4297C5.33193 24.1915 4.34983 22.7213 3.68002 21.1034C3.0102 19.4854 2.6658 17.7512 2.6665 16.0001C2.6665 13.8481 3.18117 11.8134 4.08517 10.0134Z" fill="black"/>
</svg>
