<svg width="224" height="42" viewBox="0 0 224 42" fill="none" xmlns="http://www.w3.org/2000/svg">
<path opacity="0.3" d="M136.88 38V31.2H138.9C139.487 31.2 139.97 31.36 140.35 31.68C140.737 32 140.93 32.4267 140.93 32.96C140.93 33.7 140.61 34.21 139.97 34.49C140.33 34.6233 140.617 34.8333 140.83 35.12C141.043 35.4 141.15 35.7433 141.15 36.15C141.15 36.7233 140.947 37.1767 140.54 37.51C140.133 37.8367 139.617 38 138.99 38H136.88ZM140.25 36.06C140.25 35.6867 140.13 35.4033 139.89 35.21C139.65 35.01 139.35 34.91 138.99 34.91H137.74V37.18H138.99C139.357 37.18 139.657 37.0867 139.89 36.9C140.13 36.7067 140.25 36.4267 140.25 36.06ZM139.71 33.84C139.93 33.66 140.04 33.4 140.04 33.06C140.04 32.72 139.93 32.4633 139.71 32.29C139.497 32.11 139.223 32.02 138.89 32.02H137.74V34.1H138.89C139.223 34.1 139.497 34.0133 139.71 33.84ZM143.016 37.1C142.349 36.4267 142.016 35.5933 142.016 34.6C142.016 33.6067 142.349 32.7767 143.016 32.11C143.689 31.4367 144.522 31.1 145.516 31.1C146.509 31.1 147.339 31.4367 148.006 32.11C148.679 32.7767 149.016 33.6067 149.016 34.6C149.016 35.5933 148.679 36.4267 148.006 37.1C147.339 37.7667 146.509 38.1 145.516 38.1C144.522 38.1 143.689 37.7667 143.016 37.1ZM142.916 34.6C142.916 35.3467 143.162 35.9767 143.656 36.49C144.156 36.9967 144.776 37.25 145.516 37.25C146.256 37.25 146.876 36.9967 147.376 36.49C147.876 35.9767 148.126 35.3467 148.126 34.6C148.126 33.8533 147.876 33.2267 147.376 32.72C146.876 32.2067 146.256 31.95 145.516 31.95C144.776 31.95 144.156 32.2067 143.656 32.72C143.162 33.2333 142.916 33.86 142.916 34.6ZM150.867 37.1C150.201 36.4267 149.867 35.5933 149.867 34.6C149.867 33.6067 150.201 32.7767 150.867 32.11C151.541 31.4367 152.374 31.1 153.367 31.1C154.361 31.1 155.191 31.4367 155.857 32.11C156.531 32.7767 156.867 33.6067 156.867 34.6C156.867 35.5933 156.531 36.4267 155.857 37.1C155.191 37.7667 154.361 38.1 153.367 38.1C152.374 38.1 151.541 37.7667 150.867 37.1ZM150.767 34.6C150.767 35.3467 151.014 35.9767 151.507 36.49C152.007 36.9967 152.627 37.25 153.367 37.25C154.107 37.25 154.727 36.9967 155.227 36.49C155.727 35.9767 155.977 35.3467 155.977 34.6C155.977 33.8533 155.727 33.2267 155.227 32.72C154.727 32.2067 154.107 31.95 153.367 31.95C152.627 31.95 152.007 32.2067 151.507 32.72C151.014 33.2333 150.767 33.86 150.767 34.6ZM161.36 31.47V32.44C160.906 32.0867 160.413 31.91 159.88 31.91C159.513 31.91 159.223 31.9967 159.01 32.17C158.796 32.3433 158.69 32.5733 158.69 32.86C158.69 33.1933 158.9 33.4933 159.32 33.76L160.5 34.5C160.913 34.76 161.206 35.0267 161.38 35.3C161.56 35.5733 161.65 35.89 161.65 36.25C161.65 36.77 161.463 37.21 161.09 37.57C160.716 37.9233 160.186 38.1 159.5 38.1C158.92 38.1 158.363 37.9633 157.83 37.69V36.68C158.316 37.0867 158.866 37.29 159.48 37.29C159.873 37.29 160.18 37.1933 160.4 37C160.626 36.8067 160.74 36.57 160.74 36.29C160.74 35.93 160.493 35.5967 160 35.29L158.83 34.55C158.45 34.3167 158.176 34.0667 158.01 33.8C157.85 33.5333 157.77 33.2267 157.77 32.88C157.77 32.3933 157.946 31.9767 158.3 31.63C158.653 31.2767 159.186 31.1 159.9 31.1C160.453 31.1 160.94 31.2233 161.36 31.47ZM164.074 38V32.02H162.254V31.2H166.734V32.02H164.934V38H164.074ZM171.066 38V34.99L168.816 31.2H169.796L171.496 34.13L173.206 31.2H174.196L171.926 35V38H171.066ZM175.311 37.1C174.644 36.4267 174.311 35.5933 174.311 34.6C174.311 33.6067 174.644 32.7767 175.311 32.11C175.984 31.4367 176.817 31.1 177.811 31.1C178.804 31.1 179.634 31.4367 180.301 32.11C180.974 32.7767 181.311 33.6067 181.311 34.6C181.311 35.5933 180.974 36.4267 180.301 37.1C179.634 37.7667 178.804 38.1 177.811 38.1C176.817 38.1 175.984 37.7667 175.311 37.1ZM175.211 34.6C175.211 35.3467 175.457 35.9767 175.951 36.49C176.451 36.9967 177.071 37.25 177.811 37.25C178.551 37.25 179.171 36.9967 179.671 36.49C180.171 35.9767 180.421 35.3467 180.421 34.6C180.421 33.8533 180.171 33.2267 179.671 32.72C179.171 32.2067 178.551 31.95 177.811 31.95C177.071 31.95 176.451 32.2067 175.951 32.72C175.457 33.2333 175.211 33.86 175.211 34.6ZM186.622 31.2H187.482V35.57C187.482 36.3433 187.259 36.96 186.812 37.42C186.372 37.8733 185.776 38.1 185.022 38.1C184.262 38.1 183.659 37.8733 183.212 37.42C182.772 36.96 182.552 36.3433 182.552 35.57V31.2H183.412V35.63C183.412 36.1167 183.559 36.51 183.852 36.81C184.146 37.11 184.536 37.26 185.022 37.26C185.502 37.26 185.889 37.11 186.182 36.81C186.476 36.51 186.622 36.1167 186.622 35.63V31.2ZM189.175 38V31.2H191.185C191.832 31.2 192.348 31.37 192.735 31.71C193.128 32.05 193.325 32.5167 193.325 33.11C193.325 33.5767 193.195 33.96 192.935 34.26C192.682 34.5533 192.345 34.75 191.925 34.85C192.338 35.0433 192.705 35.42 193.025 35.98C193.345 36.54 193.565 37.2133 193.685 38H192.795C192.642 37.16 192.372 36.4767 191.985 35.95C191.605 35.4233 191.192 35.16 190.745 35.16H190.035V38H189.175ZM192.085 34.04C192.318 33.8333 192.435 33.55 192.435 33.19C192.435 32.83 192.318 32.5467 192.085 32.34C191.852 32.1267 191.552 32.02 191.185 32.02H190.035V34.34H191.185C191.552 34.34 191.852 34.24 192.085 34.04ZM202.26 31.5V32.45C201.713 32.1167 201.097 31.95 200.41 31.95C199.637 31.95 198.997 32.2033 198.49 32.71C197.99 33.21 197.74 33.84 197.74 34.6C197.74 35.3333 197.977 35.96 198.45 36.48C198.93 36.9933 199.53 37.25 200.25 37.25C200.957 37.25 201.53 37.0333 201.97 36.6C202.41 36.1667 202.63 35.6333 202.63 35C202.63 34.8733 202.623 34.7633 202.61 34.67H200.2V33.89H203.48C203.533 34.1367 203.56 34.4333 203.56 34.78C203.56 35.7267 203.26 36.5167 202.66 37.15C202.06 37.7833 201.25 38.1 200.23 38.1C199.257 38.1 198.447 37.7667 197.8 37.1C197.16 36.4267 196.84 35.5933 196.84 34.6C196.84 33.6 197.177 32.7667 197.85 32.1C198.523 31.4333 199.377 31.1 200.41 31.1C201.143 31.1 201.76 31.2333 202.26 31.5ZM208.955 38L208.245 36.1H205.495L204.805 38H203.835L206.395 31.2H207.365L209.925 38H208.955ZM206.875 32.33L205.785 35.27H207.965L206.875 32.33ZM214.743 38H213.973L211.773 32.83V38H210.913V31.2H211.933L214.363 36.91L216.783 31.2H217.793V38H216.933V32.83L214.743 38ZM223.226 38H219.566V31.2H223.226V32.02H220.426V34.17H223.026V34.99H220.426V37.18H223.226V38Z" fill="white"/>
<g clip-path="url(#clip0_612_1554)">
<path fill-rule="evenodd" clip-rule="evenodd" d="M46.5015 17.7742C44.9902 16.9994 42.7509 16.7936 42.7509 16.7936C42.7509 16.7936 43.9088 16.3054 45.2498 16.3054C46.3929 16.3054 47.7509 16.7936 47.7509 16.7936C47.7509 16.7936 46.9804 14.1213 45.7501 11.655C44.4793 9.10587 42.7509 6.76263 42.7509 6.76263L40.0007 8.2314L42.0016 6.02825C42.0016 6.02825 39.5069 3.5237 36.7525 2.11224C34.0087 0.707144 31.0031 0.399381 31.0031 0.399381L30.0027 5.29386L29.5024 0.399381L27.7527 5.04978L28.0018 0.155294C28.0018 0.155294 24.894 -0.322268 22.0012 0.401504C19.0616 1.13377 16.0007 3.33692 16.0007 3.33692L17.0012 6.02825L15.2514 3.82722C15.2514 3.82722 13.3612 5.06888 12.0011 6.76475C10.6111 8.49459 9.75113 10.6808 9.75113 10.6808L12.5013 12.3936L9.50208 11.4151C9.50208 11.4151 7.7992 16.5983 5.50244 19.7353C3.05242 23.0762 0 24.3815 0 24.3815C0 24.3815 4.65525 25.4258 8.49951 23.8912C11.1965 22.8172 13.4996 18.9967 13.4996 18.9967C13.4996 18.9967 15.3792 15.1232 17.9995 12.8797C20.3665 10.8527 23.4998 10.1862 23.4998 10.1862C23.4998 10.1862 22.9612 10.0016 21.7501 9.94213C20.4644 9.87846 18.4997 10.1862 18.4997 10.1862C18.4997 10.1862 21.4861 8.78113 24.5002 8.71745C27.3568 8.65802 30.2496 9.94001 30.2496 9.94001C30.2496 9.94001 33.7724 11.3557 35.4987 13.6098C37.5017 16.2247 37.7486 19.729 37.7486 19.729C37.7486 19.729 40.4371 18.9946 42.9978 18.7505C45.5627 18.5064 47.9979 18.7505 47.9979 18.7505C47.9979 18.7505 47.5062 18.2878 46.4972 17.772L46.5015 17.7742Z" fill="#098CEC"/>
<path fill-rule="evenodd" clip-rule="evenodd" d="M36.7738 22.4241C36.7738 22.4241 35.0453 22.2862 33.7746 21.6897C32.2036 20.9554 31.0244 19.7328 31.0244 19.7328C31.0244 19.7328 32.7656 20.62 34.2748 20.9554C35.4838 21.2249 36.5247 20.9554 36.5247 20.9554C36.5247 20.9554 36.5971 16.8526 34.5238 14.348C32.3484 11.7161 28.0231 10.6782 28.0231 10.6782C28.0231 10.6782 29.594 11.7246 30.7732 12.8814C31.8375 13.9235 32.5229 15.0845 32.5229 15.0845C32.5229 15.0845 29.5344 12.3635 25.7731 11.6567C22.5483 11.0518 19.5236 12.8814 19.5236 12.8814C19.5236 12.8814 18.0697 13.741 17.0246 15.5727C15.9837 17.3981 14.8534 20.1891 13.5252 21.936C11.5413 24.5424 9.52551 25.3617 9.52551 25.3617C9.52551 25.3617 12.5056 26.5099 15.0258 28.2992C17.5056 30.0588 19.5257 32.4593 19.5257 32.4593L21.7756 21.936V34.4162C21.7756 34.4162 24.1852 37.6403 26.2755 39.3107C28.8788 41.3887 31.2756 42.0021 31.2756 42.0021C31.2756 42.0021 30.7349 39.0581 31.0265 36.3732C31.3565 33.3295 32.5272 30.5002 32.5272 30.5002C32.5272 30.5002 30.1453 29.6343 29.0278 28.053C27.8954 26.4526 28.0273 24.137 28.0273 24.137L34.0279 29.0315C34.0279 29.0315 33.1573 31.9648 33.2786 33.6819C33.4084 35.5093 34.5281 36.1291 34.5281 36.1291C34.5281 36.1291 34.792 34.4502 35.2774 32.2131C35.6584 30.4642 36.2374 28.3544 36.5268 26.5842C36.9057 24.2728 36.778 22.4241 36.778 22.4241H36.7738Z" fill="white"/>
</g>
<g clip-path="url(#clip1_612_1554)">
<path d="M85.5087 24.1926C85.1893 24.3934 84.8203 24.5551 84.4073 24.6834C83.9942 24.8117 83.5537 24.9009 83.0801 24.9567C82.6064 25.0124 82.1273 25.0403 81.6482 25.0403C80.8772 25.0403 80.1558 24.979 79.4784 24.8619C78.8011 24.7447 78.2614 24.5942 77.8704 24.4157V8.39854C77.8704 7.96354 77.8814 7.60661 77.9089 7.32776C77.9365 7.04891 78.0081 6.77006 78.1237 6.50236C78.2394 6.22909 78.4211 5.94466 78.6744 5.63235C78.9222 5.32561 79.2747 4.93522 79.7208 4.46675H71.9228C72.0109 4.55598 72.1541 4.71772 72.3523 4.95753C72.5506 5.19176 72.7433 5.47061 72.9416 5.79966C73.1398 6.12312 73.3105 6.48563 73.4647 6.88717C73.6189 7.28314 73.6905 7.71257 73.6905 8.16431V22.4414C73.6905 22.9322 73.6079 23.2668 73.4372 23.4453C73.2665 23.6238 73.0297 23.7186 72.7268 23.7186C72.5506 23.7186 72.3468 23.6963 72.121 23.6517C71.8952 23.607 71.6584 23.5457 71.4106 23.4732H71.3941L69.4281 15.3308L64.9013 15.2527V17.2604H66.8012L67.5226 18.3702L64.7361 21.4655L63.932 20.4058V8.80566L64.8187 7.61218L66.1569 9.53625L68.7011 7.8018L64.2074 3.02789L60 7.61218V21.2647L64.4222 26.0944L68.9214 21.103L71.3721 24.5105L72.3523 27.6727C74.2082 28.0686 76.0476 28.3921 77.8594 28.6375C79.6712 28.8829 81.2682 29.0056 82.645 29.0056C83.6087 29.0056 84.4017 28.9387 85.0296 28.7992C85.6574 28.6654 86.0594 28.4535 86.2356 28.1635V23.4676C86.0759 23.7576 85.8336 24.003 85.5142 24.1982L85.5087 24.1926ZM91.616 19.2793C91.3682 18.3368 91.1259 17.3441 90.8946 16.2956L93.0643 15.4256L92.6073 13.3621L90.2778 14.0927C89.9914 13.0275 89.7216 12.0403 89.4737 11.1369C89.3691 10.7576 89.259 10.3672 89.1543 9.97126C89.0497 9.57529 88.9451 9.20163 88.8459 8.85586C88.7468 8.51008 88.6642 8.20335 88.5926 7.91892C88.521 7.64007 88.466 7.42814 88.4329 7.28314C88.3778 7.10468 88.3448 6.92621 88.3283 6.75332C88.3118 6.58044 88.3007 6.3964 88.3007 6.19562C88.3007 5.97812 88.3118 5.76619 88.3283 5.55985C88.3448 5.3535 88.3723 5.16946 88.4109 5.00215C88.4439 4.80137 88.4825 4.62291 88.5155 4.46118L82.5954 4.34964L83.6693 6.89833C83.1682 9.46933 82.7221 11.7838 82.3311 13.8473C82.1714 14.734 82.0062 15.6096 81.8355 16.4685C81.6647 17.3273 81.5161 18.1137 81.3784 18.8275C81.2462 19.5414 81.1361 20.1381 81.059 20.6178C80.9764 21.0974 80.9268 21.3985 80.9103 21.5268C80.8552 21.9228 80.712 22.3076 80.4697 22.6813C80.2274 23.0549 80.0291 23.3115 79.8694 23.4565H85.6849C85.6849 23.4565 85.5692 23.3338 85.2829 23.0884C84.9965 22.843 84.6055 22.3857 84.1044 21.7164C84.0878 21.6272 84.0768 21.4989 84.0768 21.3372C84.0768 20.6847 84.2751 20.1214 84.6661 19.6418C85.0571 19.1622 85.4866 18.7662 85.9547 18.4595C86.5109 18.097 87.1443 17.7791 87.8602 17.5114C87.9648 18.1081 88.0639 18.6714 88.1576 19.1956C88.2291 19.6474 88.2952 20.0935 88.3558 20.5397C88.4164 20.9803 88.4494 21.3149 88.4494 21.5324C88.4494 21.7666 88.3944 21.9953 88.2897 22.2128C88.1851 22.4303 88.0639 22.6366 87.9428 22.8374C87.7996 23.0549 87.6399 23.2613 87.4582 23.462H93.2185C92.9322 23.0661 92.6513 22.4693 92.376 21.683C92.1006 20.8966 91.8528 20.0935 91.638 19.2793H91.616ZM84.9414 16.5131L85.9878 11.0309L87.2985 14.9683L84.9414 16.5131ZM100.972 4.51695H93.0698L95.3222 6.39082V20.4226C95.3222 20.8018 95.2617 21.1755 95.146 21.5324C95.0304 21.8949 94.9037 22.2184 94.7715 22.4972C94.6394 22.7761 94.4631 23.0995 94.2484 23.462H104.673C105.136 23.0661 105.483 22.5864 105.703 22.0232C105.929 21.4655 106.083 20.7293 106.171 19.8258C106.259 18.9224 106.298 17.7958 106.292 16.4462C106.281 15.0965 106.281 13.4402 106.281 11.4659L100.978 4.51695H100.972ZM102.608 19.3351C102.608 19.6808 102.476 19.9876 102.217 20.2553C101.958 20.5285 101.606 20.6624 101.16 20.6624H98.7752V8.9172L102.608 12.5534V19.3406V19.3351ZM112.967 21.2591C112.78 20.8799 112.686 20.5341 112.686 20.2274C112.686 18.1806 112.675 16.5187 112.658 15.236C112.642 13.9532 112.625 12.9048 112.62 12.0849C112.609 11.2707 112.598 10.6126 112.581 10.1051C112.565 9.5976 112.554 9.09009 112.554 8.58258C112.554 8.30931 112.581 7.98584 112.636 7.60661C112.691 7.22737 112.769 6.84256 112.879 6.45217C112.983 6.06178 113.127 5.69369 113.308 5.34234C113.484 4.99099 113.699 4.69541 113.953 4.46118H107.493C107.741 4.67868 107.944 4.95753 108.093 5.3033C108.247 5.64908 108.363 6.01716 108.457 6.41313C108.545 6.80909 108.605 7.19949 108.633 7.57872C108.66 7.95796 108.671 8.287 108.671 8.5547V20.2329C108.671 20.5397 108.611 20.8855 108.484 21.2647C108.357 21.6439 108.225 21.9953 108.082 22.3243C107.906 22.7036 107.708 23.0828 107.493 23.462H114.542C114.184 23.0828 113.87 22.7036 113.606 22.3243C113.374 22.0009 113.165 21.6439 112.978 21.2647L112.967 21.2591ZM126.646 19.2793C126.399 18.3368 126.156 17.3441 125.925 16.2956L128.095 15.4256L127.638 13.3621L125.308 14.0927C125.022 13.0275 124.752 12.0403 124.504 11.1369C124.399 10.7576 124.289 10.3672 124.185 9.97126C124.08 9.57529 123.975 9.20163 123.876 8.85586C123.777 8.51008 123.695 8.20335 123.623 7.91892C123.551 7.64007 123.496 7.42814 123.463 7.28314C123.408 7.10468 123.375 6.92621 123.359 6.75332C123.342 6.58044 123.331 6.3964 123.331 6.19562C123.331 5.97812 123.342 5.76619 123.359 5.55985C123.375 5.3535 123.403 5.16946 123.441 5.00215C123.474 4.80137 123.513 4.62291 123.546 4.46118L117.626 4.34964L118.7 6.89833C118.199 9.46933 117.752 11.7838 117.361 13.8473C117.202 14.734 117.037 15.6096 116.866 16.4685C116.695 17.3273 116.546 18.1137 116.409 18.8275C116.277 19.5414 116.166 20.1381 116.089 20.6178C116.007 21.0974 115.957 21.3985 115.941 21.5268C115.886 21.9228 115.742 22.3076 115.5 22.6813C115.258 23.0549 115.06 23.3115 114.9 23.4565H120.715C120.715 23.4565 120.6 23.3338 120.313 23.0884C120.027 22.843 119.636 22.3857 119.135 21.7164C119.118 21.6272 119.107 21.4989 119.107 21.3372C119.107 20.6847 119.305 20.1214 119.696 19.6418C120.087 19.1622 120.517 18.7662 120.985 18.4595C121.541 18.097 122.175 17.7791 122.891 17.5114C122.995 18.1081 123.094 18.6714 123.188 19.1956C123.26 19.6474 123.326 20.0935 123.386 20.5397C123.447 20.9803 123.48 21.3149 123.48 21.5324C123.48 21.7666 123.425 21.9953 123.32 22.2128C123.215 22.4303 123.094 22.6366 122.973 22.8374C122.83 23.0549 122.67 23.2613 122.489 23.462H128.249C127.963 23.0661 127.682 22.4693 127.406 21.683C127.131 20.8966 126.883 20.0935 126.668 19.2793H126.646ZM119.972 16.5131L121.018 11.0309L122.329 14.9683L119.972 16.5131ZM128.199 4.41098C128.183 5.24196 128.172 6.02274 128.172 6.74217V9.99914C128.348 9.61991 128.574 9.31875 128.844 9.10124C129.114 8.88374 129.394 8.72201 129.686 8.61047C129.984 8.5045 130.264 8.432 130.545 8.4097C130.821 8.38181 131.041 8.37066 131.201 8.37066H131.471V20.3389C131.471 20.7181 131.382 21.0918 131.201 21.4655C131.024 21.8391 130.826 22.1737 130.611 22.4805C130.364 22.8263 130.077 23.1497 129.752 23.4565H137.655C137.264 23.1665 136.906 22.8318 136.581 22.4526C136.311 22.1291 136.074 21.7276 135.86 21.2591C135.645 20.7906 135.54 20.2553 135.54 19.6585V8.37623H135.942C136.157 8.37623 136.427 8.4097 136.746 8.4822C137.066 8.5547 137.391 8.66066 137.71 8.79451C138.029 8.92836 138.338 9.10124 138.619 9.31317C138.905 9.51952 139.12 9.75375 139.263 10.0047V4.43887H129.587C128.767 4.43887 128.298 4.42771 128.194 4.41098H128.199ZM140.095 7.04333V21.1253L145.591 25.7653L150.387 21.1253V7.04333L145.591 3L140.095 7.04333ZM147.65 19.9039L145.585 21.5882L143.415 19.9039V8.53797L145.585 7.12698L147.65 8.53797V19.9095V19.9039ZM162.938 22.4972C162.734 22.1068 162.569 21.6941 162.453 21.2647C162.338 20.8297 162.255 20.3891 162.211 19.9374C162.167 19.4856 162.145 19.0506 162.145 18.6323C162.145 18.3423 162.145 18.0746 162.156 17.8348C162.167 17.5894 162.178 17.3775 162.194 17.1991C162.211 16.9983 162.238 16.8087 162.277 16.6302L159.782 15.1356L163.962 11.4994L159.755 4.36079H150.723L153.08 6.80352V20.4226C153.08 20.8018 153.009 21.1755 152.865 21.5324C152.722 21.8949 152.563 22.2184 152.381 22.5084C152.183 22.8318 151.951 23.1497 151.681 23.4565H157.739C157.508 23.2557 157.299 23.0382 157.122 22.8039C156.963 22.6032 156.819 22.3745 156.693 22.1124C156.566 21.8503 156.506 21.5659 156.506 21.2591C156.506 20.9524 156.506 20.5564 156.495 20.0656C156.484 19.5749 156.473 19.0952 156.456 18.6268C156.439 18.0691 156.428 17.4891 156.428 16.8923L158.439 18.465C158.439 18.755 158.45 19.045 158.466 19.3351C158.483 19.586 158.499 19.8649 158.505 20.1604C158.516 20.4616 158.516 20.7628 158.516 21.0695C158.516 21.3762 158.587 21.6774 158.73 21.9618C158.874 22.2518 159.044 22.5028 159.237 22.7203C159.435 22.9936 159.672 23.2334 159.958 23.4509H163.736C163.395 23.1999 163.125 22.8764 162.921 22.4861L162.938 22.4972ZM156.439 13.3119V8.20892H157.701L159.601 10.897L156.439 13.3119Z" fill="#098CEC"/>
<path d="M172.388 4.41098H163.973L166.226 6.4187V20.4226C166.226 20.8018 166.165 21.1755 166.049 21.5324C165.934 21.8949 165.807 22.2184 165.675 22.4972C165.543 22.7761 165.366 23.0995 165.152 23.462H175.576C175.967 23.1386 176.27 22.7928 176.474 22.4303C176.678 22.0678 176.832 21.6941 176.931 21.3037C177.03 20.9133 177.085 20.523 177.107 20.1214C177.124 19.7254 177.135 19.3239 177.135 18.9279C177.135 18.5654 177.124 18.175 177.096 17.7456C177.069 17.3218 177.047 16.9035 177.03 16.4852L173.093 15.236L177.196 11.4603L172.399 4.40541L172.388 4.41098ZM169.684 8.20892H170.945L172.845 10.897L169.684 13.3119V8.20892ZM173.517 18.5766V19.692C173.517 20.0378 173.385 20.3445 173.126 20.6122C172.867 20.8855 172.515 21.0193 172.069 21.0193H169.684V16.976L173.517 18.5766ZM177.994 7.04333V21.1253L183.49 25.7653L188.287 21.1253V7.04333L183.49 3L177.994 7.04333ZM185.55 19.9039L183.485 21.5882L181.315 19.9039V8.53797L183.485 7.12698L185.55 8.53797V19.9095V19.9039ZM189.46 7.04333V21.1253L194.956 25.7653L199.752 21.1253V7.04333L194.956 3L189.46 7.04333ZM197.015 19.9039L194.95 21.5882L192.781 19.9039V8.53797L194.95 7.12698L197.015 8.53797V19.9095V19.9039ZM209.797 22.592L212.958 16L204.489 11.1145L205.799 7.91334H205.904C206.295 7.91334 206.669 7.93565 207.016 7.98027C207.363 8.02488 207.688 8.14758 207.997 8.34835C208.299 8.54912 208.58 8.8447 208.839 9.24625C209.098 9.64221 209.346 10.1888 209.577 10.8747L209.605 10.9863C209.605 11.0588 209.561 11.1424 209.472 11.2317C209.384 11.3209 209.296 11.4213 209.203 11.5272H212.876L210.089 6.07293C210.018 5.89447 209.985 5.78293 209.985 5.74946C209.985 5.4985 210.084 5.28657 210.282 5.12484H202.969C203.095 5.25311 203.194 5.36465 203.277 5.46504C203.36 5.56542 203.398 5.67139 203.398 5.77735C203.382 5.79408 203.371 5.81639 203.371 5.83312C203.354 5.84985 203.343 5.87216 203.343 5.88889C203.343 5.90562 203.332 5.92793 203.316 5.94466L200.154 12.5367L208.624 17.4221L207.314 20.6233H207.209C206.818 20.6233 206.444 20.601 206.097 20.5564C205.75 20.5118 205.425 20.3891 205.116 20.1883C204.813 19.9876 204.533 19.692 204.274 19.2904C204.015 18.8945 203.767 18.3479 203.536 17.6619L203.508 17.556C203.508 17.4835 203.552 17.3998 203.64 17.3106C203.729 17.2214 203.817 17.121 203.91 17.0094H200.237L203.024 22.4638C203.095 22.6422 203.128 22.7538 203.128 22.7872C203.128 23.0382 203.029 23.2501 202.831 23.4118H210.144C210.018 23.2836 209.918 23.172 209.836 23.0716C209.753 22.9713 209.715 22.8709 209.715 22.7593C209.715 22.7426 209.726 22.7259 209.742 22.7036L209.797 22.592ZM214.324 4.43887C213.504 4.43887 213.035 4.42771 212.931 4.41098C212.914 5.24196 212.903 6.02274 212.903 6.74217V9.99914C213.08 9.61991 213.305 9.31875 213.575 9.10124C213.845 8.88374 214.126 8.72201 214.418 8.61047C214.715 8.5045 214.996 8.432 215.277 8.4097C215.552 8.38181 215.772 8.37066 215.932 8.37066H216.202V20.3389C216.202 20.7181 216.114 21.0918 215.932 21.4655C215.756 21.8391 215.558 22.1737 215.343 22.4805C215.095 22.8263 214.809 23.1497 214.484 23.4565H222.392C222.001 23.1665 221.643 22.8318 221.318 22.4526C221.048 22.1291 220.811 21.7276 220.597 21.2591C220.382 20.7906 220.277 20.2553 220.277 19.6585V8.37623H220.679C220.894 8.37623 221.164 8.4097 221.483 8.4822C221.803 8.5547 222.128 8.66066 222.447 8.79451C222.766 8.92836 223.075 9.10124 223.356 9.31317C223.642 9.51952 223.857 9.75375 224 10.0047V4.43887H214.324Z" fill="white"/>
</g>
<defs>
<clipPath id="clip0_612_1554">
<rect width="48" height="42" fill="white"/>
</clipPath>
<clipPath id="clip1_612_1554">
<rect width="164" height="26" fill="white" transform="translate(60 3)"/>
</clipPath>
</defs>
</svg>
