<svg width="32" height="32" viewBox="0 0 32 32" fill="none" xmlns="http://www.w3.org/2000/svg">
<path d="M27.7317 9.16596C27.7317 9.97023 27.4954 10.7564 27.0525 11.4252C26.6097 12.0939 25.9802 12.615 25.2438 12.9227C24.5074 13.2305 23.6971 13.3109 22.9153 13.1539C22.1336 12.9969 21.4156 12.6094 20.8521 12.0406C20.4611 11.6672 20.1482 11.2185 19.9319 10.721C19.7156 10.2235 19.6003 9.68734 19.5928 9.14414C19.5853 8.60094 19.6858 8.06174 19.8883 7.55836C20.0907 7.05499 20.3911 6.59766 20.7717 6.21338C21.1522 5.8291 21.6052 5.52567 22.1039 5.321C22.6026 5.11632 23.1369 5.01456 23.6753 5.02173C24.2136 5.02889 24.7451 5.14483 25.2382 5.3627C25.7314 5.58057 26.1763 5.89596 26.5467 6.29023L26.5488 6.29236C26.9238 6.65742 27.222 7.09507 27.4254 7.57912C27.6288 8.06317 27.7334 8.58365 27.7328 9.10943V9.1681V9.1649L27.7317 9.16596ZM15.0116 21.5318V21.519C15.0116 20.4174 14.5779 19.3609 13.8059 18.582C13.034 17.803 11.987 17.3654 10.8952 17.3654H10.8815H10.8825C10.5665 17.3654 10.2588 17.4017 9.96286 17.471L9.99034 17.4657L11.7081 18.1654C12.1093 18.3214 12.4754 18.5569 12.7848 18.8581C13.0942 19.1593 13.3406 19.5201 13.5094 19.919L13.5168 19.9404C13.6902 20.3201 13.7917 20.7638 13.7917 21.231C13.7917 21.6769 13.6997 22.1014 13.5338 22.4854L13.5412 22.4652C13.3864 22.8702 13.1518 23.2393 12.8517 23.5502C12.5515 23.8612 12.192 24.1075 11.7948 24.2742L11.7737 24.2817C11.3984 24.4534 10.9597 24.5526 10.4988 24.5526C10.0527 24.5526 9.62775 24.4588 9.24297 24.2902L9.26305 24.2977C9.0319 24.2088 8.69045 24.0726 8.23872 23.8892L7.2313 23.4806C7.58754 24.1494 8.09812 24.6945 8.71653 25.0785L8.7345 25.0892C9.3679 25.4891 10.1005 25.7003 10.8477 25.6982H10.8836H10.8815H10.8942C11.9859 25.6982 13.0329 25.2606 13.8049 24.4817C14.5768 23.7027 15.0105 22.6462 15.0105 21.5446V21.5308L15.0116 21.5318ZM28.7212 9.18303C28.7187 7.8357 28.1872 6.54427 27.2431 5.59147C26.2991 4.63866 25.0193 4.10212 23.6841 4.0993C22.8559 4.09962 22.0407 4.30593 21.3104 4.69996C20.5801 5.09399 19.9573 5.66359 19.4972 6.35835C19.037 7.05312 18.7537 7.85162 18.6723 8.6832C18.5909 9.51477 18.7139 10.3538 19.0304 11.126C19.3469 11.8982 19.8471 12.5797 20.4869 13.1103C21.1266 13.6409 21.8862 14.0042 22.6982 14.1681C23.5103 14.3319 24.3498 14.2913 25.1426 14.0497C25.9354 13.8081 26.6569 13.373 27.2434 12.783C27.7117 12.3276 28.0841 11.7815 28.3382 11.1774C28.5924 10.5733 28.723 9.92359 28.7222 9.2673L28.7212 9.17876V9.18303ZM31.199 9.18303C31.1988 11.1941 30.4069 13.1237 28.9977 14.5457C27.5884 15.9677 25.6771 16.7667 23.6841 16.767H23.683L16.4651 22.0801C16.3504 23.4773 15.7077 24.7765 14.6701 25.7089L14.6649 25.7132C13.6616 26.6701 12.3328 27.2023 10.9523 27.2001H10.8794H10.8836C9.60794 27.1992 8.37059 26.7602 7.37515 25.9552C6.37971 25.1503 5.68549 24.0274 5.40673 22.7713L5.39933 22.734L1.6001 21.2001V14.0502L8.0273 16.6668C8.87391 16.1408 9.84922 15.8637 10.8434 15.8668H10.8868H10.8847C11.0277 15.8668 11.2205 15.8778 11.4629 15.8998L16.1543 9.1169C16.1793 7.11731 16.983 5.20793 18.3918 3.8014C19.8005 2.39487 21.7012 1.60414 23.683 1.6001H23.6841C25.6764 1.60292 27.5864 2.4027 28.9952 3.82414C30.4041 5.24557 31.196 7.17268 31.199 9.18303Z" fill="black"/>
</svg>
