<svg width="187" height="34" viewBox="0 0 187 34" fill="none" xmlns="http://www.w3.org/2000/svg">
<g clip-path="url(#clip0_141_902)">
<path d="M21.1667 13.1051C20.7544 13.4297 20.3421 13.6709 19.9299 13.8288C19.0878 14.1358 18.0133 14.2893 16.7064 14.2893C15.3556 14.2893 14.6451 14.3945 14.5749 14.605V28.1306C14.5749 28.6394 15.2196 28.9025 16.509 28.9201C16.8686 28.9201 17.3555 28.9288 17.9695 28.9464C18.4694 28.999 18.7194 29.1701 18.7194 29.4595C18.7194 29.5999 18.6668 29.7534 18.5615 29.92C16.316 29.8674 14.3118 29.8411 12.5487 29.8411C11.6891 29.8411 10.7725 29.9463 9.79885 30.1568C8.83398 30.3761 8.25946 30.4858 8.07526 30.4858C7.59283 30.4858 7.35162 30.17 7.35162 29.5385L11.4435 28.8411C11.733 28.6394 11.8777 27.3807 11.8777 25.065L11.8513 17.2233C11.8338 15.9866 11.7592 15.1533 11.6277 14.7235C11.5224 14.3463 11.2549 14.1577 10.8251 14.1577H9.85146C9.83392 14.1577 9.65409 14.149 9.312 14.1314H8.35155C6.6762 14.1314 5.64994 14.2454 5.27276 14.4734C4.87804 14.7278 4.68067 15.1401 4.68067 15.7102V16.447C4.03159 16.447 3.70703 16.0786 3.70703 15.3418C3.70703 14.6927 3.88686 14.0524 4.24648 13.4209C4.73769 12.5613 5.82537 12.1315 7.50949 12.1315C8.05331 12.1315 9.48304 12.1753 11.7987 12.263C14.1144 12.3771 15.8643 12.4341 17.0484 12.4341C19.5132 12.4341 20.7456 12.2718 20.7456 11.9473C20.7456 11.8683 20.671 11.7324 20.5219 11.5394C20.3816 11.3201 20.3114 11.1578 20.3114 11.0526C20.3114 10.9473 20.3553 10.8508 20.443 10.7631C21.0921 10.2544 21.5438 10 21.7982 10C22.0262 10 22.2148 10.1184 22.3639 10.3552C22.5043 10.5658 22.5744 10.7894 22.5745 11.0262C22.5744 11.6403 22.1052 12.3332 21.1667 13.1051Z" fill="#FFB800"/>
<path d="M32.1307 28.223C32.2886 28.2055 32.7622 27.8897 33.5517 27.2757C33.8762 27.5301 34.0384 27.745 34.0385 27.9204C34.0384 28.1397 33.8411 28.3546 33.4464 28.5651C33.192 28.6967 32.7973 28.9116 32.2623 29.2098C31.9553 29.4291 31.6482 29.6396 31.3413 29.8413C30.929 30.1045 30.6088 30.2361 30.3808 30.2361C30.1966 30.2361 30.0606 30.1571 29.9729 29.9992C29.9028 29.8677 29.8676 29.4905 29.8676 28.8677C29.8676 28.5958 29.8764 28.2362 29.894 27.7888V26.9731C29.894 25.1048 29.7668 23.7584 29.5125 22.9338C29.1353 21.6269 28.3897 20.9164 27.2757 20.8024C27.1178 20.8024 26.7407 20.9471 26.1442 21.2366C25.5565 21.526 25.2232 21.7234 25.1443 21.8286C25.1092 21.8637 25.0917 22.2891 25.0917 23.1049C25.0916 23.5873 25.1092 24.4557 25.1443 25.71C25.1618 26.9731 25.1706 27.8546 25.1706 28.3546C25.1706 28.9423 25.1619 29.3458 25.1443 29.5651C24.6794 29.8194 23.811 30.1878 22.5391 30.6702C22.4602 30.5299 22.4207 29.9729 22.4207 28.9993C22.4207 28.4204 22.4426 26.8328 22.4865 24.2364C22.5216 21.6313 22.5391 19.5261 22.5391 17.921V17.0394C22.5391 15.6009 22.447 15.7657 22.2628 15.371C22.14 15.0815 21.6839 14.4246 20.8945 13.8895C20.7103 13.758 20.6182 13.6483 20.6182 13.5606C20.6182 13.4378 20.7278 13.3676 20.9471 13.3501C21.2015 13.315 21.776 13.179 22.6707 12.9422C23.4777 12.7229 24.0346 12.6133 24.3416 12.6133C24.596 12.6133 24.7846 12.6879 24.9074 12.837C24.8723 14.5562 24.8548 15.2895 24.8548 16.7105C24.8548 19.3156 24.8723 20.6357 24.9074 20.6708C24.925 20.6533 25.0127 20.5831 25.1705 20.4603C26.1968 19.6709 27.1617 19.2761 28.0652 19.2761C28.9774 19.2761 29.8896 19.6182 30.8018 20.3024C31.6877 20.9603 32.1307 23.1926 32.1307 26.9994L32.1307 28.223Z" fill="#FFB800"/>
<path d="M42.7392 21.618C42.5199 21.7232 42.2699 21.8504 41.9893 21.9995C41.2525 22.3591 40.1297 22.9337 38.6211 23.7231C37.2527 24.4775 36.5685 25.0257 36.5685 25.3678C36.5685 26.3326 36.8536 27.1396 37.4237 27.7887C38.0202 28.5079 38.8316 28.8676 39.8578 28.8675C40.3227 28.8676 40.8512 28.6373 41.4432 28.1768C42.0353 27.7163 42.4147 27.4861 42.5813 27.4861C42.7217 27.4861 42.8927 27.6659 43.0945 28.0255C42.805 28.3676 42.3182 28.8807 41.634 29.5649C40.178 30.2842 39.0377 30.6438 38.2131 30.6438C37.1167 30.6438 36.1738 30.2315 35.3844 29.407C34.4458 28.4509 33.9766 27.1396 33.9766 25.473C33.9766 25.4204 33.9853 25.2406 34.0029 24.9336C34.2222 21.3373 35.9414 19.5391 39.1605 19.5391C39.871 19.5391 40.5245 19.7803 41.1209 20.2628C41.6385 20.7013 41.9542 20.9206 42.0683 20.9206C42.1209 20.9206 42.2634 20.8571 42.4959 20.7299C42.7283 20.6027 42.8971 20.5391 43.0024 20.5391C43.2743 20.5391 43.4103 20.7101 43.4103 21.0522C43.4103 21.175 43.1866 21.3636 42.7392 21.618ZM38.2131 20.7496C37.5465 20.7496 37.0246 21.7101 36.6475 23.631C37.0597 23.4731 37.6342 23.2144 38.371 22.8547C39.178 22.4776 39.5815 22.2539 39.5815 22.1837C39.5815 22.0785 39.3754 21.8153 38.9631 21.3943C38.5333 20.9645 38.2833 20.7496 38.2131 20.7496Z" fill="#FFB800"/>
<path d="M67.6457 27.4072V32.6701C67.5142 32.7051 67.4221 32.7402 67.3695 32.7753L67.1852 32.8806C67.0975 32.9332 66.8826 32.9946 66.5406 33.0648V28.7361C63.8828 29.8851 61.7864 30.4597 60.2514 30.4597C59.9532 30.4597 59.7383 30.4509 59.6067 30.4333C57.256 30.1088 55.5061 29.2272 54.357 27.7887C53.4799 26.6923 52.8045 24.9863 52.3308 22.6706C52.2431 22.2232 52.1992 21.754 52.1992 21.2628C52.1992 19.8418 52.5325 18.2805 53.1991 16.5788C53.7693 15.1578 54.2824 14.2237 54.7386 13.7763C55.221 13.2939 56.0367 12.8071 57.1858 12.3159C58.5366 11.7633 59.7602 11.487 60.8566 11.487C61.5847 11.487 62.9399 12.2676 64.9222 13.8289C65.2292 14.0658 65.4353 14.2193 65.5406 14.2895C66.4002 12.8334 66.9396 12.1054 67.1589 12.1054C67.2291 12.1054 67.3519 12.158 67.5273 12.2633C67.5449 12.2633 67.6107 12.2896 67.7247 12.3422C67.6721 12.5615 67.501 12.9562 67.2116 13.5263C65.8958 16.2104 65.238 17.8288 65.238 18.3814C65.238 18.434 65.466 18.4603 65.9222 18.4603C66.4747 18.4603 67.2729 18.3814 68.3168 18.2235C68.3167 18.3638 68.2071 19.9076 67.9878 22.8548C67.7598 25.8196 67.6457 27.337 67.6457 27.4072ZM58.8304 13.3948C58.0936 13.4124 57.3218 13.943 56.5148 14.9868C55.6727 16.0657 55.2517 17.1358 55.2517 18.1972C55.3043 18.5393 55.4096 18.7542 55.5675 18.8419C55.6903 18.912 55.949 18.9471 56.3437 18.9471C60.5365 18.9471 63.1986 18.82 64.3301 18.5656C63.9705 17.6358 63.2249 16.5789 62.0934 15.3947C60.8479 14.0615 59.7777 13.3948 58.8831 13.3948H58.8304ZM64.2249 20.9207C58.2778 20.9207 55.2868 21.2146 55.2517 21.8023C55.6815 23.8022 56.5937 25.3854 57.9884 26.552C59.3743 27.6835 61.0189 28.2493 62.9223 28.2493C64.1854 28.2493 65.3608 28.0037 66.4484 27.5125C66.5099 27.302 66.5756 26.2801 66.6458 24.4468C66.6633 23.4732 66.6984 22.3066 66.7511 20.947C66.6984 20.9471 66.3827 20.9383 65.8038 20.9207L64.2249 20.9207Z" fill="#FFB800"/>
<path d="M75.0588 28.4594C73.9624 29.3191 72.6072 29.9024 70.9932 30.2094C70.8967 30.1217 70.8485 28.7752 70.8485 26.1701C70.8485 23.4422 70.866 19.7845 70.9011 15.197C70.9011 14.7847 70.4713 14.1663 69.6117 13.3418C69.4187 13.1489 69.3223 12.9866 69.3223 12.855C69.6029 12.6621 70.2301 12.4033 71.2037 12.0787C72.1949 11.7367 72.8571 11.5656 73.1905 11.5656C73.3922 11.5656 73.4931 11.627 73.4931 11.7498C73.5632 12.241 73.5983 13.5348 73.5983 15.6312V17.0127L73.5457 28.2489C74.3702 27.7928 74.8658 27.5648 75.0325 27.5648C75.322 27.6087 75.4667 27.7271 75.4667 27.92C75.4667 28.0604 75.3307 28.2402 75.0588 28.4594Z" fill="#FFB800"/>
<path d="M87.8797 28.8412C87.6604 28.9464 87.3008 29.1438 86.8008 29.4333L86.4982 29.6174L85.8798 30.0253C85.2483 30.4376 84.8974 30.6437 84.8273 30.6437C84.3799 30.6437 84.1474 29.9244 84.1299 28.4859C84.0071 28.521 83.5598 28.8719 82.7879 29.5385C81.8844 30.3104 81.0117 30.6963 80.1696 30.6963C79.31 30.6963 78.5118 30.2665 77.775 29.4069C76.8364 28.3105 76.3672 26.793 76.3672 24.8546V24.6309C76.4373 21.0083 78.1346 19.197 81.459 19.197L84.051 20.3021C84.0334 20.2759 84.0159 19.8592 83.9984 19.0522C83.9633 15.912 83.8273 14.1797 83.5905 13.8551C83.4501 13.6622 83.1256 13.3771 82.6169 12.9999C82.1169 12.6228 81.8669 12.3509 81.8669 12.1842C81.8669 12.0789 82.3405 11.9079 83.2879 11.671C84.3141 11.4167 85.1781 11.2895 85.8799 11.2895C86.3623 11.2895 86.6035 11.5439 86.6035 12.0526C86.6035 12.1579 86.5947 12.2938 86.5771 12.4605C86.542 12.6359 86.5245 12.7499 86.5245 12.8026V27.8676C86.5245 28.1219 86.5903 28.2754 86.7219 28.3281C87.3973 27.8983 87.7832 27.6834 87.8797 27.6834C88.2393 27.6834 88.4191 27.8807 88.4192 28.2754C88.4191 28.4859 88.2393 28.6745 87.8797 28.8412ZM83.9983 23.2099C83.9983 22.5784 83.6387 21.9293 82.9195 21.2626C82.323 20.71 81.9107 20.4337 81.6827 20.4337C80.7266 20.4337 79.9898 20.8109 79.4723 21.5652C79.0162 22.2143 78.7881 23.0564 78.7881 24.0914C78.7881 25.2756 79.06 26.3282 79.6038 27.2492C80.174 28.2579 80.8845 28.7622 81.7353 28.7622C82.0598 28.7622 82.5072 28.4991 83.0774 27.9728C83.6913 27.4026 83.9983 26.8544 83.9983 26.3281V23.2099Z" fill="#FFB800"/>
<path d="M97.1221 21.618C96.9028 21.7232 96.6528 21.8504 96.3721 21.9995C95.6353 22.3591 94.5125 22.9337 93.0039 23.7231C91.6355 24.4775 90.9513 25.0257 90.9513 25.3678C90.9513 26.3326 91.2364 27.1396 91.8066 27.7887C92.403 28.5079 93.2144 28.8676 94.2406 28.8675C94.7055 28.8676 95.234 28.6373 95.8261 28.1768C96.4182 27.7163 96.7975 27.4861 96.9642 27.4861C97.1045 27.4861 97.2755 27.6659 97.4773 28.0255C97.1878 28.3676 96.701 28.8807 96.0169 29.5649C94.5608 30.2842 93.4205 30.6438 92.596 30.6438C91.4996 30.6438 90.5566 30.2315 89.7672 29.407C88.8287 28.4509 88.3594 27.1396 88.3594 25.473C88.3594 25.4204 88.3681 25.2406 88.3857 24.9336C88.605 21.3373 90.3242 19.5391 93.5433 19.5391C94.2538 19.5391 94.9073 19.7803 95.5038 20.2628C96.0213 20.7013 96.3371 20.9206 96.4511 20.9206C96.5037 20.9206 96.6462 20.8571 96.8787 20.7299C97.1111 20.6027 97.28 20.5391 97.3852 20.5391C97.6572 20.5391 97.7931 20.7101 97.7931 21.0522C97.7931 21.175 97.5694 21.3636 97.1221 21.618ZM92.596 20.7496C91.9294 20.7496 91.4075 21.7101 91.0303 23.631C91.4425 23.4731 92.0171 23.2144 92.7539 22.8547C93.5608 22.4776 93.9643 22.2539 93.9643 22.1837C93.9643 22.0785 93.7582 21.8153 93.3459 21.3943C92.9161 20.9645 92.6662 20.7496 92.596 20.7496Z" fill="#FFB800"/>
<path d="M105.839 22.052C105.585 22.052 105.286 21.9248 104.944 21.6705C104.567 21.381 104.238 21.2188 103.957 21.1837C103.808 21.2012 103.431 21.4249 102.826 21.8547C102.194 22.3108 101.879 22.5652 101.879 22.6178V29.078C101.826 29.2797 101.502 29.5604 100.905 29.92C100.256 30.3147 99.7253 30.5121 99.313 30.5121C99.0499 30.4595 98.9183 29.6306 98.9183 28.0254C98.9183 27.5079 98.9358 26.7097 98.9709 25.6308C98.9885 24.5519 98.9973 23.8151 98.9973 23.4204C98.9973 22.9204 98.9797 22.552 98.9447 22.3152C98.8482 21.6836 98.4491 21.2538 97.7474 21.0258C97.3526 20.8942 97.1553 20.6969 97.1553 20.4337C97.1728 20.2846 97.3439 20.1837 97.6684 20.1311C97.8526 20.1136 98.1684 20.0785 98.6157 20.0258C99.1332 19.9557 99.7428 19.8197 100.445 19.618C100.892 19.4952 101.19 19.4338 101.339 19.4337C101.664 19.5039 101.826 19.7013 101.826 20.0258C101.826 20.1135 101.817 20.2495 101.8 20.4337C101.765 20.6267 101.747 20.7583 101.747 20.8284C101.747 20.9951 101.817 21.1047 101.958 21.1573C101.993 21.1573 102.44 20.8591 103.3 20.2626C104.221 19.6399 104.817 19.3285 105.089 19.3285C105.282 19.3285 105.62 19.4162 106.102 19.5916C106.664 19.7758 106.971 19.9644 107.023 20.1574C106.848 20.517 106.685 20.824 106.536 21.0784C106.177 21.7099 105.944 22.0345 105.839 22.052Z" fill="#FFB800"/>
<path d="M122.825 31.3933H122.561C121.193 31.3933 119.316 31.1258 116.93 30.5907C116.439 30.4854 116.158 30.4328 116.088 30.4328C115.913 30.4328 115.645 31.0337 115.285 32.2353C115.198 32.5599 115.062 32.9985 114.878 33.5511C114.702 34.0159 114.54 34.2484 114.391 34.2484C114.303 34.2484 114.18 34.1783 114.022 34.0379C113.838 33.8975 113.746 33.7616 113.746 33.63C114.088 32.823 114.61 31.2968 115.312 29.0513C115.522 27.3321 115.799 26.4725 116.141 26.4725C116.465 26.7883 117.408 27.3804 118.969 28.2487C121.11 29.4153 122.798 29.9986 124.035 29.9986C124.509 29.9986 124.886 29.9241 125.167 29.775C126.017 29.3627 126.675 28.468 127.14 27.0909C127.465 26.1523 127.627 25.3234 127.627 24.6042C127.627 23.6218 127.43 22.8411 127.035 22.2622C126.64 21.6833 126.083 21.3938 125.364 21.3938C124.952 21.3938 123.71 21.6833 121.64 22.2622C119.5 22.8587 118.119 23.1569 117.496 23.1569C116.575 23.1569 115.856 22.7797 115.338 22.0254C114.891 21.3587 114.667 20.5123 114.667 19.4861C114.667 17.2055 115.233 15.2845 116.364 13.7232C117.531 12.1005 119.048 11.2891 120.917 11.2891H121.022C121.794 11.3155 122.846 11.8373 124.18 12.8548C125.504 13.8635 126.175 14.3679 126.193 14.3679C126.228 14.3679 126.469 13.9995 126.916 13.2627C127.39 12.5259 127.741 12.1575 127.969 12.1575C128.118 12.1575 128.263 12.2276 128.403 12.368C128.552 12.5171 128.627 12.6882 128.627 12.8811C128.408 13.1004 127.947 13.7846 127.245 14.9337C126.368 16.4073 125.93 17.4599 125.93 18.0914C125.93 18.1792 126.101 18.223 126.443 18.223C127.802 18.5826 128.772 19.1045 129.35 19.7887C129.903 20.4816 130.179 21.4947 130.179 22.828C130.179 25.0559 129.579 26.9681 128.377 28.5645C127.009 30.3977 125.158 31.3407 122.825 31.3933ZM119.614 13.0259C118.807 13.0259 118.189 13.4732 117.759 14.3679C117.382 15.1749 117.193 16.188 117.193 17.4072C117.193 18.1265 117.356 18.7229 117.68 19.1966C118.04 19.7141 118.544 19.9729 119.193 19.9728C119.711 19.9729 120.68 19.7667 122.101 19.3544C123.592 18.9247 124.526 18.565 124.903 18.2756C122.316 14.7758 120.553 13.0259 119.614 13.0259Z" fill="#FFB800"/>
<path d="M136.146 30.3672C134.462 30.3672 133.207 29.8848 132.383 28.9199C131.699 28.1305 131.356 27.0779 131.356 25.7622C131.356 24.0606 131.769 22.6045 132.593 21.394C133.567 19.9994 134.922 19.302 136.659 19.302C137.22 19.302 137.931 19.4731 138.79 19.8152C139.852 20.2274 140.382 20.7099 140.382 21.2625C140.382 21.5344 139.913 22.0124 138.974 22.6966C138.904 22.6966 138.817 22.644 138.711 22.5387C138.641 22.4597 138.571 22.3852 138.501 22.315C137.334 21.0958 136.382 20.4862 135.646 20.4862C135.137 20.4862 134.712 20.9072 134.369 21.7492C134.045 22.5211 133.883 23.3676 133.883 24.2886C133.883 25.5604 134.19 26.5999 134.804 27.4069C135.488 28.3103 136.475 28.762 137.764 28.762C138.176 28.762 138.661 28.4748 139.218 27.9002C139.775 27.3257 140.093 27.0385 140.172 27.0385C140.277 27.0385 140.391 27.1086 140.514 27.249C140.663 27.4068 140.737 27.5253 140.737 27.6042C140.737 27.8323 140.268 28.3147 139.33 29.0515C138.233 29.9286 137.172 30.3672 136.146 30.3672Z" fill="#FFB800"/>
<path d="M148.862 22.052C148.608 22.052 148.31 21.9248 147.968 21.6705C147.591 21.381 147.262 21.2188 146.981 21.1837C146.832 21.2012 146.455 21.4249 145.849 21.8547C145.218 22.3108 144.902 22.5652 144.902 22.6178V29.078C144.849 29.2797 144.525 29.5604 143.928 29.92C143.279 30.3147 142.749 30.5121 142.336 30.5121C142.073 30.4595 141.942 29.6306 141.942 28.0254C141.942 27.5079 141.959 26.7097 141.994 25.6308C142.012 24.5519 142.021 23.8151 142.021 23.4204C142.021 22.9204 142.003 22.552 141.968 22.3152C141.872 21.6836 141.473 21.2538 140.771 21.0258C140.376 20.8942 140.179 20.6969 140.179 20.4337C140.196 20.2846 140.367 20.1837 140.692 20.1311C140.876 20.1136 141.192 20.0785 141.639 20.0258C142.157 19.9557 142.766 19.8197 143.468 19.618C143.915 19.4952 144.214 19.4338 144.363 19.4337C144.687 19.5039 144.85 19.7013 144.85 20.0258C144.85 20.1135 144.841 20.2495 144.823 20.4337C144.788 20.6267 144.771 20.7583 144.771 20.8284C144.771 20.9951 144.841 21.1047 144.981 21.1573C145.016 21.1573 145.463 20.8591 146.323 20.2626C147.244 19.6399 147.841 19.3285 148.112 19.3285C148.305 19.3285 148.643 19.4162 149.126 19.5916C149.687 19.7758 149.994 19.9644 150.047 20.1574C149.871 20.517 149.709 20.824 149.56 21.0784C149.2 21.7099 148.968 22.0345 148.862 22.052Z" fill="#FFB800"/>
<path d="M159.012 26.6573C158.705 27.5169 157.977 28.3589 156.828 29.1834C155.714 29.9992 154.71 30.4071 153.815 30.4071H153.71C151.728 30.3281 150.298 29.4203 149.421 27.6835C149.184 27.2099 149.065 26.4643 149.065 25.4468C149.065 24.8854 149.105 24.21 149.184 23.4206C149.289 22.2189 149.951 21.2584 151.171 20.5392C151.82 20.162 152.969 19.7234 154.618 19.2235C154.802 19.162 154.982 19.1314 155.157 19.1313C156.131 19.1313 157.056 19.5743 157.933 20.4602C158.942 21.4865 159.446 22.7452 159.446 24.2363C159.446 25.0082 159.302 25.8152 159.012 26.6573ZM153.486 20.697C153.363 20.6971 153.249 20.7234 153.144 20.776C152.548 21.0129 152.078 21.4383 151.736 22.0523C151.412 22.6049 151.249 23.2057 151.249 23.8548C151.249 24.846 151.504 25.7451 152.013 26.552C152.688 27.6309 153.727 28.3589 155.131 28.7361C155.903 28.7361 156.39 28.3765 156.591 27.6572C156.697 27.2625 156.749 26.2801 156.749 24.71C156.749 23.6136 156.363 22.6444 155.591 21.8023C154.89 21.0655 154.188 20.6971 153.486 20.697Z" fill="#FFB800"/>
<path d="M166.097 28.4594C165 29.3191 163.645 29.9024 162.031 30.2094C161.935 30.1217 161.887 28.7752 161.887 26.1701C161.887 23.4422 161.904 19.7845 161.939 15.197C161.939 14.7847 161.509 14.1663 160.65 13.3418C160.457 13.1489 160.36 12.9866 160.36 12.855C160.641 12.6621 161.268 12.4033 162.242 12.0787C163.233 11.7367 163.895 11.5656 164.229 11.5656C164.43 11.5656 164.531 11.627 164.531 11.7498C164.601 12.241 164.636 13.5348 164.636 15.6312V17.0127L164.584 28.2489C165.408 27.7928 165.904 27.5648 166.071 27.5648C166.36 27.6087 166.505 27.7271 166.505 27.92C166.505 28.0604 166.369 28.2402 166.097 28.4594Z" fill="#FFB800"/>
<path d="M172.826 28.4594C171.73 29.3191 170.375 29.9024 168.761 30.2094C168.664 30.1217 168.616 28.7752 168.616 26.1701C168.616 23.4422 168.634 19.7845 168.669 15.197C168.669 14.7847 168.239 14.1663 167.379 13.3418C167.186 13.1489 167.09 12.9866 167.09 12.855C167.371 12.6621 167.998 12.4033 168.971 12.0787C169.963 11.7367 170.625 11.5656 170.958 11.5656C171.16 11.5656 171.261 11.627 171.261 11.7498C171.331 12.241 171.366 13.5348 171.366 15.6312V17.0127L171.313 28.2489C172.138 27.7928 172.633 27.5648 172.8 27.5648C173.09 27.6087 173.234 27.7271 173.234 27.92C173.234 28.0604 173.098 28.2402 172.826 28.4594Z" fill="#FFB800"/>
<path d="M182.898 27.539C182.609 28.2407 181.969 28.8898 180.977 29.4862C179.899 30.1353 178.802 30.4599 177.688 30.4599C177.355 30.4599 176.991 30.4116 176.596 30.3151C175.28 30.0169 174.623 29.3459 174.623 28.3021C174.623 27.46 175.144 26.8855 176.188 26.5785C177.267 28.2275 178.381 29.052 179.53 29.052C179.977 29.052 180.346 28.8722 180.635 28.5126C180.898 28.1881 181.03 27.8021 181.03 27.3548C181.03 26.8548 180.824 26.3592 180.412 25.868C180.052 25.4558 179.692 25.2058 179.333 25.1181C178.991 25.0479 178.543 25.004 177.991 24.9865C177.236 24.9689 176.78 24.9514 176.622 24.9339C175.596 24.8462 174.938 24.4602 174.649 23.776C174.456 23.3024 174.359 22.8507 174.359 22.4209C174.359 21.2718 175.03 20.3552 176.372 19.671C177.469 19.1184 178.789 18.807 180.333 18.7368H180.556C181.004 18.7368 181.39 18.8421 181.714 19.0526C182.056 19.307 182.227 19.6227 182.227 19.9999C182.227 20.4999 181.929 20.8946 181.333 21.1841C181.043 21.3244 180.837 21.3946 180.714 21.3946C180.442 21.3946 180.192 21.1709 179.964 20.7236C179.692 20.2061 179.385 19.9034 179.043 19.8157C178.921 19.7806 178.758 19.7631 178.556 19.7631C177.513 19.7631 176.912 20.1929 176.754 21.0525C176.719 21.1578 176.701 21.263 176.701 21.3683C176.701 22.07 177.285 22.513 178.451 22.6972C179.004 22.7498 179.57 22.8112 180.149 22.8814C180.815 22.9515 181.363 23.07 181.793 23.2366C182.118 23.3594 182.412 23.5831 182.675 23.9076C183.087 24.4076 183.293 25.0085 183.293 25.7102C183.293 26.2891 183.162 26.8987 182.898 27.539Z" fill="#FFB800"/>
</g>
<defs>
<clipPath id="clip0_141_902">
<rect width="187" height="34" fill="white"/>
</clipPath>
</defs>
</svg>
