<svg width="24" height="20" viewBox="0 0 24 20" fill="none" xmlns="http://www.w3.org/2000/svg">
<path d="M21.534 5.11349C22.5105 4.42049 23.331 3.55499 24 2.55899C23.1075 2.95049 22.1565 3.20849 21.165 3.33449C22.185 2.72549 22.9635 1.76849 23.3295 0.614988C22.3785 1.18199 21.3285 1.58249 20.2095 1.80599C19.3065 0.845988 18.0195 0.250488 16.6155 0.250488C13.8915 0.250488 11.6985 2.46149 11.6985 5.17199C11.6985 5.56199 11.7315 5.93699 11.8125 6.29399C7.722 6.09449 4.1025 4.13399 1.671 1.14749C1.2465 1.88399 0.9975 2.72699 0.9975 3.63449C0.9975 5.33849 1.875 6.84899 3.183 7.72349C2.3925 7.70849 1.617 7.47899 0.960001 7.11749V7.17149C0.960001 9.56249 2.6655 11.5485 4.902 12.006C4.5015 12.1155 4.065 12.168 3.612 12.168C3.297 12.168 2.979 12.15 2.6805 12.084C3.318 14.0325 5.127 15.465 7.278 15.5115C5.604 16.821 3.4785 17.61 1.1775 17.61C0.774 17.61 0.387 17.592 0 17.5425C2.1795 18.948 4.7625 19.7505 7.548 19.7505C16.23 19.7505 21.8895 12.507 21.534 5.11349Z" fill="#4C4959"/>
</svg>
