<svg width="48" height="48" viewBox="0 0 48 48" fill="none" xmlns="http://www.w3.org/2000/svg">
<g clip-path="url(#clip0_2829_2329)">
<path fill-rule="evenodd" clip-rule="evenodd" d="M40.8074 47.5605L46.8074 41.5605C47.3999 40.9748 47.3999 40.0252 46.8074 39.4395L40.8074 33.4395C40.2224 32.8537 39.2776 32.8537 38.6926 33.4395C38.1001 34.0245 38.1001 34.9755 38.6926 35.5605L43.6274 40.5L38.6926 45.4395C38.1001 46.0245 38.1001 46.9755 38.6926 47.5605C39.2776 48.1463 40.2224 48.1463 40.8074 47.5605ZM33.3074 47.5605L39.3074 41.5605C39.8999 40.9748 39.8999 40.0252 39.3074 39.4395L33.3074 33.4395C32.7224 32.8537 31.7776 32.8537 31.1926 33.4395C30.6001 34.0245 30.6001 34.9755 31.1926 35.5605L36.1274 40.5L31.1926 45.4395C30.6001 46.0245 30.6001 46.9755 31.1926 47.5605C31.7776 48.1463 32.7224 48.1463 33.3074 47.5605ZM3.30743 47.5605L9.30743 41.5605C9.89993 40.9748 9.89993 40.0252 9.30743 39.4395L3.30743 33.4395C2.72243 32.8537 1.77757 32.8537 1.19257 33.4395C0.600066 34.0245 0.600066 34.9755 1.19257 35.5605L6.12744 40.5L1.19257 45.4395C0.600066 46.0245 0.600066 46.9755 1.19257 47.5605C1.77757 48.1463 2.72243 48.1463 3.30743 47.5605ZM10.8074 47.5605L16.8074 41.5605C17.3999 40.9748 17.3999 40.0252 16.8074 39.4395L10.8074 33.4395C10.2224 32.8537 9.27757 32.8537 8.69256 33.4395C8.10007 34.0245 8.10007 34.9755 8.69256 35.5605L13.6274 40.5L8.69256 45.4395C8.10007 46.0245 8.10007 46.9755 8.69256 47.5605C9.27757 48.1463 10.2224 48.1463 10.8074 47.5605ZM18.3074 47.5605L24.3074 41.5605C24.8999 40.9748 24.8999 40.0252 24.3074 39.4395L18.3074 33.4395C17.7224 32.8537 16.7776 32.8537 16.1926 33.4395C15.6001 34.0245 15.6001 34.9755 16.1926 35.5605L21.1274 40.5L16.1926 45.4395C15.6001 46.0245 15.6001 46.9755 16.1926 47.5605C16.7776 48.1463 17.7224 48.1463 18.3074 47.5605ZM25.8074 47.5605L31.8074 41.5605C32.3999 40.9748 32.3999 40.0252 31.8074 39.4395L25.8074 33.4395C25.2224 32.8537 24.2776 32.8537 23.6926 33.4395C23.1001 34.0245 23.1001 34.9755 23.6926 35.5605L28.6274 40.5L23.6926 45.4395C23.1001 46.0245 23.1001 46.9755 23.6926 47.5605C24.2776 48.1463 25.2224 48.1463 25.8074 47.5605ZM3.75751 29.6003C3.26251 27.8175 3 25.9387 3 24C3 12.4095 12.4125 3 24 3C32.8725 3 40.47 8.51475 43.545 16.3005C43.7775 16.9043 44.3775 17.2868 45.03 17.247C45.675 17.208 46.2226 16.7565 46.3876 16.128L47.9474 10.128C48.1574 9.327 47.6775 8.50725 46.875 8.29875C46.08 8.0895 45.255 8.571 45.0525 9.372L44.49 11.508C40.275 4.608 32.67 0 24 0C10.755 0 0 10.7543 0 24C0 26.2155 0.299927 28.362 0.862427 30.3998C1.08743 31.1978 1.91258 31.6665 2.70758 31.446C3.51008 31.2255 3.97501 30.3983 3.75751 29.6003ZM7.22992 30.5423C7.45492 31.1175 8.01 31.4962 8.625 31.4962H39.375C39.99 31.4962 40.5451 31.1175 40.7701 30.5423C41.5651 28.5135 42 26.307 42 24C42 14.0655 33.9375 6 24 6C14.0625 6 6 14.0655 6 24C6 26.307 6.43492 28.5135 7.22992 30.5423ZM22.5 12.75V24C22.5 24.8288 23.1675 25.5 24 25.5H31.5C32.325 25.5 33 24.828 33 24C33 23.172 32.325 22.5 31.5 22.5H25.5V12.75C25.5 11.922 24.825 11.25 24 11.25C23.175 11.25 22.5 11.922 22.5 12.75Z" fill="#FFB800"/>
</g>
<defs>
<clipPath id="clip0_2829_2329">
<rect width="48" height="48" fill="white"/>
</clipPath>
</defs>
</svg>
