<svg width="48" height="48" viewBox="0 0 48 48" fill="none" xmlns="http://www.w3.org/2000/svg">
<g clip-path="url(#clip0_2815_1959)">
<path d="M7.74004 7.74008L6.00004 6.00008C5.23004 11.3801 5.50004 9.48008 5.00004 13.0001L12.5 12.5001L10.57 10.5701C13.6796 7.46289 17.7703 5.53005 22.1452 5.1009C26.52 4.67175 30.9084 5.77285 34.5624 8.21658C38.2164 10.6603 40.91 14.2955 42.1843 18.5026C43.4585 22.7097 43.2345 27.2286 41.5505 31.2891C39.8664 35.3496 36.8265 38.7005 32.9487 40.7709C29.0709 42.8412 24.5952 43.5029 20.2842 42.6432C15.9732 41.7835 12.0937 39.4556 9.30669 36.0561C6.51971 32.6566 4.99771 28.396 5.00004 24.0001H1.00004C0.805101 30.1001 3.04136 36.0276 7.21686 40.4788C11.3924 44.93 17.1651 47.5401 23.265 47.7351C29.365 47.93 35.2926 45.6938 39.7438 41.5183C44.1949 37.3428 46.8051 31.5701 47 25.4701C48.28 4.25008 22.59 -7.10992 7.74004 7.74008Z" fill="#FFB800"/>
<path d="M12.6314 14.5002L9.78142 14.6802C7.4363 18.2455 6.51788 22.5624 7.20855 26.7736C7.89923 30.9848 10.1485 34.7822 13.5096 37.4117C16.8707 40.0412 21.0978 41.3104 25.3515 40.9672C29.6051 40.624 33.5741 38.6936 36.4702 35.5594C39.3663 32.4251 40.9777 28.3162 40.9844 24.0488C40.9911 19.7813 39.3925 15.6675 36.5062 12.5242C33.6198 9.38086 29.6569 7.43809 25.4043 7.08165C21.1518 6.72522 16.9207 7.9812 13.5514 10.6002C13.4314 10.6002 13.4614 10.6002 13.9114 11.0902C14.1831 11.3618 14.3709 11.7059 14.4522 12.0814C14.5335 12.4569 14.5049 12.8478 14.3699 13.2075C14.2349 13.5672 13.9991 13.8804 13.6908 14.1096C13.3825 14.3388 13.0147 14.4744 12.6314 14.5002ZM27.0014 27.6602C26.6914 25.7802 24.5014 26.0002 23.3014 26.0002C21.7201 26.0354 20.1854 25.463 19.0134 24.4008C17.8414 23.3385 17.1213 21.8674 17.0014 20.2902C16.9322 18.824 17.4029 17.3834 18.3243 16.2409C19.2457 15.0983 20.5539 14.3332 22.0014 14.0902C22.0014 11.8202 21.8714 11.2902 22.5914 10.5902C22.8711 10.3122 23.2267 10.123 23.6136 10.0465C24.0004 9.97006 24.4012 10.0096 24.7657 10.1603C25.1301 10.311 25.4418 10.5661 25.6617 10.8934C25.8816 11.2208 25.9998 11.6058 26.0014 12.0002V14.0002H29.0014C29.2641 14.0074 29.5227 14.0663 29.7626 14.1735C30.0025 14.2806 30.2189 14.434 30.3995 14.6248C30.5801 14.8157 30.7214 15.0402 30.8152 15.2856C30.9091 15.531 30.9536 15.7925 30.9464 16.0552C30.9392 16.3178 30.8803 16.5765 30.7731 16.8163C30.6659 17.0562 30.5126 17.2727 30.3217 17.4533C30.1309 17.6339 29.9064 17.7751 29.661 17.869C29.4156 17.9628 29.1541 18.0074 28.8914 18.0002H23.0014C22.7075 17.9959 22.4163 18.0564 22.1485 18.1775C21.8807 18.2985 21.6429 18.4771 21.4519 18.7005C21.261 18.9239 21.1216 19.1867 21.0437 19.4701C20.9659 19.7535 20.9514 20.0506 21.0014 20.3402C21.3114 22.2202 23.5014 22.0002 24.7014 22.0002C26.2828 21.9649 27.8174 22.5373 28.9894 23.5996C30.1614 24.6618 30.8815 26.133 31.0014 27.7102C31.0706 29.1763 30.6 30.6169 29.6786 31.7595C28.7572 32.902 27.4489 33.6672 26.0014 33.9102C26.0014 36.1802 26.1314 36.7102 25.4114 37.4102C25.1318 37.6882 24.7761 37.8773 24.3893 37.9538C24.0024 38.0303 23.6016 37.9907 23.2372 37.84C22.8728 37.6893 22.561 37.4343 22.3411 37.1069C22.1213 36.7796 22.0031 36.3945 22.0014 36.0002V34.0002H19.0014C18.7388 33.9929 18.4801 33.9341 18.2402 33.8269C18.0003 33.7197 17.7839 33.5663 17.6033 33.3755C17.4227 33.1847 17.2814 32.9601 17.1876 32.7147C17.0938 32.4693 17.0492 32.2078 17.0564 31.9452C17.0636 31.6825 17.1225 31.4239 17.2297 31.184C17.3369 30.9441 17.4903 30.7277 17.6811 30.5471C17.8719 30.3665 18.0964 30.2252 18.3419 30.1314C18.5873 30.0375 18.8488 29.9929 19.1114 30.0002H25.0014C25.2953 30.0045 25.5865 29.9439 25.8543 29.8229C26.1221 29.7018 26.36 29.5232 26.5509 29.2998C26.7419 29.0764 26.8812 28.8137 26.9591 28.5303C27.037 28.2469 27.0514 27.9498 27.0014 27.6602Z" fill="#FFB800"/>
</g>
<defs>
<clipPath id="clip0_2815_1959">
<rect width="48" height="48" fill="white"/>
</clipPath>
</defs>
</svg>
