<svg width="18" height="18" viewBox="0 0 18 18" fill="none" xmlns="http://www.w3.org/2000/svg">
<path fill-rule="evenodd" clip-rule="evenodd" d="M17.1823 7.15953C17.1823 4.28659 17.1823 2.85012 16.4928 1.81823C16.1943 1.37152 15.8108 0.98797 15.364 0.689485C14.3322 0 12.8957 0 10.0227 0H7.97716C5.10422 0 3.66775 0 2.63586 0.689485C2.18915 0.98797 1.8056 1.37152 1.50711 1.81823C0.817627 2.85012 0.817627 4.28659 0.817627 7.15953C0.817627 10.0325 0.817627 11.4689 1.50711 12.5008C1.8056 12.9475 2.18915 13.3311 2.63586 13.6296C3.5373 14.2319 4.74749 14.308 6.95437 14.3177V14.3191L8.08514 16.5806C8.46206 17.3345 9.53784 17.3345 9.91476 16.5806L11.0455 14.3191V14.3177C13.2524 14.308 14.4626 14.2319 15.364 13.6296C15.8108 13.3311 16.1943 12.9475 16.4928 12.5008C17.1823 11.4689 17.1823 10.0325 17.1823 7.15953ZM5.93175 4.1139C5.37947 4.1139 4.93175 4.56162 4.93175 5.1139C4.93175 5.66619 5.37947 6.1139 5.93175 6.1139H12.0685C12.6208 6.1139 13.0685 5.66619 13.0685 5.1139C13.0685 4.56162 12.6208 4.1139 12.0685 4.1139H5.93175ZM5.93175 8.20506C5.37947 8.20506 4.93175 8.65278 4.93175 9.20506C4.93175 9.75735 5.37947 10.2051 5.93175 10.2051H9.00012C9.55241 10.2051 10.0001 9.75735 10.0001 9.20506C10.0001 8.65278 9.55241 8.20506 9.00012 8.20506H5.93175Z" fill="white"/>
</svg>
