<svg width="24" height="25" viewBox="0 0 24 25" fill="none" xmlns="http://www.w3.org/2000/svg">
<path d="M3.75 3.5C3.55109 3.5 3.36032 3.57902 3.21967 3.71967C3.07902 3.86032 3 4.05109 3 4.25C3 4.44891 3.07902 4.63968 3.21967 4.78033C3.36032 4.92098 3.55109 5 3.75 5H4.119C4.28186 5.00028 4.4402 5.05357 4.57009 5.1518C4.69999 5.25003 4.79438 5.38788 4.839 5.5445L7.218 13.8695C7.35255 14.3393 7.63641 14.7525 8.02665 15.0467C8.41689 15.3409 8.8923 15.5 9.381 15.5H16.2345C16.6843 15.5001 17.1237 15.3654 17.4962 15.1132C17.8686 14.8611 18.157 14.5031 18.324 14.0855L20.535 8.5565C20.6259 8.32899 20.6597 8.08268 20.6334 7.8391C20.6071 7.59551 20.5216 7.36208 20.3842 7.15919C20.2469 6.9563 20.062 6.79014 19.8456 6.67523C19.6292 6.56032 19.388 6.50015 19.143 6.5H6.672L6.2805 5.132C6.14629 4.66216 5.86277 4.24878 5.47281 3.95434C5.08285 3.65991 4.60763 3.50043 4.119 3.5H3.75ZM8.661 13.4555L7.101 8H19.1415L16.9305 13.529C16.8748 13.668 16.7787 13.7872 16.6547 13.8711C16.5306 13.9551 16.3843 14 16.2345 14H9.381C9.21814 13.9997 9.0598 13.9464 8.92991 13.8482C8.80001 13.75 8.70562 13.6121 8.661 13.4555ZM9.75 21.5C10.0455 21.5 10.3381 21.4418 10.611 21.3287C10.884 21.2157 11.1321 21.0499 11.341 20.841C11.5499 20.6321 11.7157 20.384 11.8287 20.111C11.9418 19.8381 12 19.5455 12 19.25C12 18.9545 11.9418 18.6619 11.8287 18.389C11.7157 18.116 11.5499 17.8679 11.341 17.659C11.1321 17.4501 10.884 17.2843 10.611 17.1713C10.3381 17.0582 10.0455 17 9.75 17C9.15326 17 8.58097 17.2371 8.15901 17.659C7.73705 18.081 7.5 18.6533 7.5 19.25C7.5 19.8467 7.73705 20.419 8.15901 20.841C8.58097 21.2629 9.15326 21.5 9.75 21.5ZM9.75 20C9.55109 20 9.36032 19.921 9.21967 19.7803C9.07902 19.6397 9 19.4489 9 19.25C9 19.0511 9.07902 18.8603 9.21967 18.7197C9.36032 18.579 9.55109 18.5 9.75 18.5C9.94891 18.5 10.1397 18.579 10.2803 18.7197C10.421 18.8603 10.5 19.0511 10.5 19.25C10.5 19.4489 10.421 19.6397 10.2803 19.7803C10.1397 19.921 9.94891 20 9.75 20ZM15.75 21.5C16.0455 21.5 16.3381 21.4418 16.611 21.3287C16.884 21.2157 17.1321 21.0499 17.341 20.841C17.5499 20.6321 17.7157 20.384 17.8287 20.111C17.9418 19.8381 18 19.5455 18 19.25C18 18.9545 17.9418 18.6619 17.8287 18.389C17.7157 18.116 17.5499 17.8679 17.341 17.659C17.1321 17.4501 16.884 17.2843 16.611 17.1713C16.3381 17.0582 16.0455 17 15.75 17C15.1533 17 14.581 17.2371 14.159 17.659C13.7371 18.081 13.5 18.6533 13.5 19.25C13.5 19.8467 13.7371 20.419 14.159 20.841C14.581 21.2629 15.1533 21.5 15.75 21.5ZM15.75 20C15.5511 20 15.3603 19.921 15.2197 19.7803C15.079 19.6397 15 19.4489 15 19.25C15 19.0511 15.079 18.8603 15.2197 18.7197C15.3603 18.579 15.5511 18.5 15.75 18.5C15.9489 18.5 16.1397 18.579 16.2803 18.7197C16.421 18.8603 16.5 19.0511 16.5 19.25C16.5 19.4489 16.421 19.6397 16.2803 19.7803C16.1397 19.921 15.9489 20 15.75 20Z" fill="white"/>
</svg>
