<svg width="34" height="32" viewBox="0 0 34 32" fill="none" xmlns="http://www.w3.org/2000/svg">
<path d="M14.2921 14.9641C14.6285 15.3607 15.102 15.6816 15.7126 15.9267C16.0462 16.0999 16.4404 16.2019 16.858 16.2019C17.3 16.1987 17.7261 16.1318 18.1277 16.0106L18.0958 16.0191C18.3742 15.9448 18.6186 15.8353 18.8396 15.6919L18.83 15.6983C19.0722 15.5474 19.2826 15.3806 19.4717 15.1936C19.7969 14.8801 20.0721 14.5168 20.2856 14.1173L20.2973 14.0939C20.4716 13.7369 20.5725 13.3172 20.5725 12.8741C20.5725 12.8518 20.5725 12.8295 20.5714 12.8072V12.8104V6.34826C20.5714 6.34294 20.5714 6.33551 20.5714 6.32807C20.5714 6.05819 20.5385 5.79682 20.4747 5.54607L20.479 5.56838C20.2474 4.85013 19.8341 4.24451 19.2933 3.78551L19.2879 3.78126C18.7383 3.32296 18.0661 3.06336 17.2713 3.00244C17.1406 2.97269 16.9897 2.95676 16.8357 2.95676C16.6816 2.95676 16.5307 2.97376 16.3862 3.00563L16.4001 3.00351C16.0611 3.08213 15.7711 3.17669 15.4916 3.29251L15.5299 3.27869C14.8881 3.55919 14.359 3.99907 13.9797 4.54944L13.9722 4.56113C13.6269 5.08388 13.4219 5.72457 13.4219 6.41413C13.4219 6.43963 13.4219 6.46513 13.4229 6.49063V6.48638V12.5363C13.4229 12.5416 13.4229 12.5479 13.4229 12.5543C13.4229 12.7264 13.4399 12.8943 13.4718 13.0569L13.4686 13.0409C13.4952 13.1642 13.5122 13.3066 13.5143 13.4521V13.4543C13.6779 14.0354 13.9457 14.5412 14.2995 14.9747L14.2931 14.9673L14.2921 14.9641Z" fill="#FFB800"/>
<path d="M33.9544 6.57669C33.9841 6.37057 34.0001 6.1315 34.0001 5.88925C34.0001 5.647 33.9831 5.40794 33.9512 5.17525L33.9544 5.20182C33.8928 4.95744 33.8322 4.68225 33.7706 4.37732C33.71 4.066 33.6144 3.78975 33.4869 3.53263L33.4954 3.55175C33.2521 3.05982 32.9928 2.64013 32.7006 2.24594L32.7166 2.26825C32.417 1.87832 32.0685 1.54575 31.6775 1.2695L31.6626 1.25994C31.3725 1.02619 31.04 0.825379 30.6819 0.674504L30.6543 0.663879C30.309 0.517254 29.9073 0.404629 29.4887 0.346191L29.4632 0.343004C29.1731 0.284567 28.8385 0.251629 28.4974 0.251629C28.4825 0.251629 28.4676 0.251629 28.4528 0.251629H28.4549C28.066 0.251629 27.6856 0.284566 27.3148 0.349379L27.3541 0.344066C26.8293 0.475816 26.3713 0.647941 25.941 0.865754L25.9793 0.847691C25.5118 1.08038 25.1218 1.30882 24.7478 1.55957L24.7871 1.53513C24.4202 1.7795 24.0537 2.00865 23.6875 2.22257C23.3613 2.41594 22.9703 2.61569 22.5655 2.791L22.4953 2.81863L22.404 2.86432V12.5352C22.404 12.5416 22.404 12.549 22.404 12.5564C22.404 12.9219 22.371 13.2789 22.3073 13.6253L22.3126 13.5892C22.2456 13.9547 22.15 14.2777 22.0257 14.5858L22.0374 14.5518C21.7356 15.2223 21.3521 15.7971 20.8878 16.2975L20.892 16.2933C20.4203 16.7873 19.8582 17.1889 19.2292 17.4716L19.1963 17.4854C18.9827 17.5948 18.7256 17.7032 18.4589 17.7935L18.4164 17.8063C18.1603 17.8934 17.866 17.9433 17.56 17.9433C17.5547 17.9433 17.5505 17.9433 17.5451 17.9433C17.4272 17.9826 17.2933 18.0049 17.1531 18.0049C17.0819 18.0049 17.0118 17.9996 16.9438 17.9879L16.9512 17.989C16.7504 17.9603 16.5177 17.9433 16.2818 17.9433C16.2755 17.9433 16.2691 17.9433 16.2627 17.9433H16.2638C15.8685 17.8785 15.5285 17.7988 15.197 17.6989L15.2555 17.7138C14.9059 17.6054 14.602 17.4652 14.3215 17.2909L14.3385 17.3005C13.7807 16.9881 13.309 16.5897 12.9243 16.1179L12.9169 16.1094C12.5312 15.6356 12.2071 15.0905 11.9691 14.5019L11.9543 14.4594C11.8926 14.2756 11.8321 14.1088 11.7705 13.9547C11.712 13.8102 11.6791 13.6423 11.6791 13.467C11.6791 13.4617 11.6791 13.4553 11.6791 13.45C11.6182 12.9917 11.5877 12.7636 11.5877 12.7636V2.86325C11.5877 2.8335 11.558 2.81757 11.4963 2.81757C11.191 2.63411 10.9162 2.48146 10.6718 2.35963C10.3913 2.21619 10.1512 2.06425 9.92702 1.89319L9.93871 1.90169C9.57179 1.71823 9.22046 1.53477 8.88471 1.35132C8.54896 1.16786 8.22808 0.9844 7.92208 0.800942C7.49815 0.579942 7.00727 0.405691 6.4909 0.302629L6.45584 0.296254C6.17534 0.243129 5.8534 0.213379 5.52402 0.213379C5.30302 0.213379 5.08627 0.227191 4.87165 0.253754L4.89715 0.251629C4.38396 0.314316 3.91965 0.426941 3.47659 0.586316L3.52121 0.572504C3.06327 0.740379 2.66802 0.973066 2.32377 1.26525L2.32909 1.261C1.95934 1.50857 1.64271 1.7965 1.37284 2.12482L1.36646 2.13225C1.11146 2.43932 0.883023 2.78569 0.693898 3.15438L0.679023 3.18625C0.521773 3.488 0.367711 3.85138 0.238086 4.2275L0.220023 4.28594C0.103148 4.63232 0.0362109 5.03075 0.0362109 5.44619C0.0362109 5.45788 0.0362109 5.4685 0.0362109 5.47913V5.477C0.0128359 5.62682 -0.000976562 5.79894 -0.000976562 5.97425C-0.000976562 6.23669 0.0287734 6.49169 0.0861484 6.73713L0.0818984 6.71482C0.173273 7.11219 0.280232 7.49398 0.402773 7.86019C0.609961 8.333 0.855398 8.73994 1.14546 9.11075L1.1359 9.098C1.45146 9.50282 1.81377 9.85132 2.22071 10.1414L2.23665 10.152L4.43709 11.6183C4.67615 11.8584 4.93115 12.0826 5.19784 12.2919L5.2159 12.3057C5.50171 12.5288 5.75565 12.753 5.99471 12.9931L6.91165 13.9101C7.21234 14.2108 7.48327 14.5412 7.72127 14.895L7.73615 14.9184C7.98052 15.2237 8.19444 15.5141 8.3779 15.7896C8.56136 16.0652 8.74481 16.3556 8.92827 16.6609C9.21515 17.0583 9.47546 17.5098 9.68796 17.9879L9.70708 18.0368C9.921 18.5256 10.1197 19.0143 10.3031 19.5031C10.5475 20.1753 10.7614 20.8323 10.9449 21.474C11.1149 22.0435 11.2445 22.7129 11.3083 23.4024L11.3115 23.4449C11.3688 23.6086 11.4028 23.7977 11.4028 23.9943C11.4028 24.1908 11.4368 24.3799 11.4985 24.5563L11.4953 24.5446C11.4953 24.8039 11.5123 25.0578 11.5441 25.3075L11.541 25.2778C11.5696 25.4977 11.5866 25.7527 11.5866 26.0109L11.7705 27.1106C11.8427 27.5345 11.9383 27.9043 12.0605 28.2623L12.0456 28.2113C12.1827 28.682 12.3708 29.0932 12.6077 29.4693L12.596 29.4491C12.85 29.8571 13.1538 30.2046 13.5055 30.4978L13.513 30.5031C14.2259 31.1449 15.1396 31.5773 16.149 31.6931L16.1713 31.6953C16.4178 31.7505 16.7026 31.7834 16.9937 31.7866H16.9969C17.2572 31.7866 17.5101 31.7526 17.7513 31.6899L17.73 31.6942C17.7396 31.6942 17.7502 31.6942 17.7608 31.6942C18.1125 31.6942 18.4483 31.6273 18.7564 31.504L18.7383 31.5104C19.0436 31.3878 19.3797 31.2352 19.7466 31.0524C20.3852 30.6561 20.908 30.1323 21.2936 29.5139L21.3053 29.4938C21.5986 29.1442 21.8323 28.7319 21.9853 28.2825L21.9928 28.2559C22.1341 27.8479 22.2467 27.3677 22.3094 26.8715L22.3136 26.8343C22.3147 26.6229 22.3317 26.4168 22.3625 26.2149L22.3593 26.2383C22.387 26.0598 22.404 25.8536 22.405 25.6443C22.4659 25.2774 22.5116 24.9098 22.5421 24.5436C22.5718 24.1621 22.6207 23.8168 22.6887 23.4789L22.6791 23.5353C22.7401 23.1683 22.8013 22.7865 22.863 22.3899C22.931 21.9532 23.0266 21.5664 23.153 21.1946L23.1381 21.2445C23.4434 20.267 23.5961 19.7783 23.5961 19.7783L24.1465 18.312C24.3908 17.8233 24.6352 17.3497 24.8796 16.8914C25.1569 16.3761 25.43 15.9416 25.7296 15.5261L25.7051 15.5623C26.0721 15.1344 26.4234 14.7218 26.7591 14.3244C27.0949 13.9271 27.4462 13.5145 27.8131 13.0866C28.0575 12.9032 28.2867 12.7197 28.5006 12.5363C28.7145 12.3528 28.9132 12.1693 29.0966 11.9859L29.8298 11.4355C30.0423 11.2719 30.2835 11.1199 30.5363 10.9893L30.5629 10.9765L31.4798 10.3348L32.3968 9.60163C32.6433 9.353 32.8696 9.08419 33.0715 8.79625L33.0842 8.77713C33.2893 8.48707 33.4603 8.15344 33.5804 7.79644L33.5889 7.76882V7.86019C33.7557 7.48832 33.8832 7.05694 33.9523 6.60538L33.9544 6.57669Z" fill="#FFB800"/>
</svg>
