<svg width="11" height="13" viewBox="0 0 11 13" fill="none" xmlns="http://www.w3.org/2000/svg">
<path d="M6.832 12.16C6.01067 12.16 5.25867 12.016 4.576 11.728C3.89333 11.4293 3.30133 11.0187 2.8 10.496C2.29867 9.96267 1.90933 9.344 1.632 8.64C1.36533 7.936 1.232 7.17867 1.232 6.368C1.232 5.55733 1.36533 4.8 1.632 4.096C1.89867 3.392 2.28267 2.77867 2.784 2.256C3.28533 1.73333 3.87733 1.32267 4.56 1.024C5.24267 0.725333 5.99467 0.575999 6.816 0.575999C7.66933 0.575999 8.416 0.725333 9.056 1.024C9.70667 1.312 10.2933 1.712 10.816 2.224L9.344 3.696C9.03467 3.33333 8.66667 3.056 8.24 2.864C7.824 2.672 7.328 2.576 6.752 2.576C6.09067 2.576 5.50933 2.736 5.008 3.056C4.50667 3.36533 4.11733 3.808 3.84 4.384C3.56267 4.94933 3.424 5.61067 3.424 6.368C3.424 7.12533 3.56267 7.792 3.84 8.368C4.11733 8.93333 4.512 9.376 5.024 9.696C5.536 10.016 6.144 10.176 6.848 10.176C7.40267 10.176 7.888 10.08 8.304 9.888C8.73067 9.68533 9.09867 9.40267 9.408 9.04L10.88 10.512C10.3573 11.0347 9.76533 11.44 9.104 11.728C8.44267 12.016 7.68533 12.16 6.832 12.16ZM0.16 5.792V4.304H7.856L7.424 5.792H0.16ZM0.16 8.464V6.992H7.232L6.816 8.464H0.16Z" fill="white"/>
</svg>
