<svg width="48" height="42" viewBox="0 0 48 42" fill="none" xmlns="http://www.w3.org/2000/svg">
<g clip-path="url(#clip0_612_1422)">
<path fill-rule="evenodd" clip-rule="evenodd" d="M46.5015 17.7742C44.9902 16.9994 42.7509 16.7936 42.7509 16.7936C42.7509 16.7936 43.9088 16.3054 45.2498 16.3054C46.3929 16.3054 47.7509 16.7936 47.7509 16.7936C47.7509 16.7936 46.9804 14.1213 45.7501 11.655C44.4793 9.10587 42.7509 6.76263 42.7509 6.76263L40.0007 8.2314L42.0016 6.02825C42.0016 6.02825 39.5069 3.5237 36.7525 2.11224C34.0087 0.707144 31.0031 0.399381 31.0031 0.399381L30.0027 5.29386L29.5024 0.399381L27.7527 5.04978L28.0018 0.155294C28.0018 0.155294 24.894 -0.322268 22.0012 0.401504C19.0616 1.13377 16.0007 3.33692 16.0007 3.33692L17.0012 6.02825L15.2514 3.82722C15.2514 3.82722 13.3612 5.06888 12.0011 6.76475C10.6111 8.49459 9.75113 10.6808 9.75113 10.6808L12.5013 12.3936L9.50208 11.4151C9.50208 11.4151 7.7992 16.5983 5.50244 19.7353C3.05242 23.0762 0 24.3815 0 24.3815C0 24.3815 4.65525 25.4258 8.49951 23.8912C11.1965 22.8172 13.4996 18.9967 13.4996 18.9967C13.4996 18.9967 15.3792 15.1232 17.9995 12.8797C20.3665 10.8527 23.4998 10.1862 23.4998 10.1862C23.4998 10.1862 22.9612 10.0016 21.7501 9.94213C20.4644 9.87846 18.4997 10.1862 18.4997 10.1862C18.4997 10.1862 21.4861 8.78113 24.5002 8.71745C27.3568 8.65802 30.2496 9.94001 30.2496 9.94001C30.2496 9.94001 33.7724 11.3557 35.4987 13.6098C37.5017 16.2247 37.7486 19.729 37.7486 19.729C37.7486 19.729 40.4371 18.9946 42.9978 18.7505C45.5627 18.5064 47.9979 18.7505 47.9979 18.7505C47.9979 18.7505 47.5062 18.2878 46.4972 17.772L46.5015 17.7742Z" fill="#098CEC"/>
<path fill-rule="evenodd" clip-rule="evenodd" d="M36.7738 22.4241C36.7738 22.4241 35.0453 22.2862 33.7746 21.6897C32.2036 20.9554 31.0244 19.7328 31.0244 19.7328C31.0244 19.7328 32.7656 20.62 34.2748 20.9554C35.4838 21.2249 36.5247 20.9554 36.5247 20.9554C36.5247 20.9554 36.5971 16.8526 34.5238 14.348C32.3484 11.7161 28.0231 10.6782 28.0231 10.6782C28.0231 10.6782 29.594 11.7246 30.7732 12.8814C31.8375 13.9235 32.5229 15.0845 32.5229 15.0845C32.5229 15.0845 29.5344 12.3635 25.7731 11.6567C22.5483 11.0518 19.5236 12.8814 19.5236 12.8814C19.5236 12.8814 18.0697 13.741 17.0246 15.5727C15.9837 17.3981 14.8534 20.1891 13.5252 21.936C11.5413 24.5424 9.52551 25.3617 9.52551 25.3617C9.52551 25.3617 12.5056 26.5099 15.0258 28.2992C17.5056 30.0588 19.5257 32.4593 19.5257 32.4593L21.7756 21.936V34.4162C21.7756 34.4162 24.1852 37.6403 26.2755 39.3107C28.8788 41.3887 31.2756 42.0021 31.2756 42.0021C31.2756 42.0021 30.7349 39.0581 31.0265 36.3732C31.3565 33.3295 32.5272 30.5002 32.5272 30.5002C32.5272 30.5002 30.1453 29.6343 29.0278 28.053C27.8954 26.4526 28.0273 24.137 28.0273 24.137L34.0279 29.0315C34.0279 29.0315 33.1573 31.9648 33.2786 33.6819C33.4084 35.5093 34.5281 36.1291 34.5281 36.1291C34.5281 36.1291 34.792 34.4502 35.2774 32.2131C35.6584 30.4642 36.2374 28.3544 36.5268 26.5842C36.9057 24.2728 36.778 22.4241 36.778 22.4241H36.7738Z" fill="white"/>
</g>
<defs>
<clipPath id="clip0_612_1422">
<rect width="48" height="42" fill="white"/>
</clipPath>
</defs>
</svg>
