<svg width="16" height="16" viewBox="0 0 16 16" fill="none" xmlns="http://www.w3.org/2000/svg">
<path d="M8 16C3.5888 16 0 12.4112 0 8C0 3.5888 3.5888 0 8 0C12.4112 0 16 3.5888 16 8C16 12.4112 12.4112 16 8 16ZM8 1.6C4.4712 1.6 1.6 4.4712 1.6 8C1.6 11.5288 4.4712 14.4 8 14.4C11.5288 14.4 14.4 11.5288 14.4 8C14.4 4.4712 11.5288 1.6 8 1.6Z" fill="white"/>
<path d="M8 11.8C7.5584 11.8 7.2 11.4416 7.2 11V7.5744C7.2 7.1328 7.5584 6.7744 8 6.7744C8.4416 6.7744 8.8 7.1328 8.8 7.5744V11C8.8 11.4416 8.4416 11.8 8 11.8Z" fill="white"/>
<path d="M8 5.8C7.792 5.8 7.584 5.712 7.432 5.568C7.288 5.416 7.2 5.208 7.2 5C7.2 4.896 7.224 4.792 7.264 4.696C7.304 4.6 7.36 4.512 7.432 4.432C7.736 4.136 8.264 4.136 8.568 4.432C8.712 4.584 8.8 4.792 8.8 5C8.8 5.208 8.712 5.416 8.568 5.568C8.488 5.64 8.4 5.696 8.304 5.736C8.208 5.784 8.104 5.8 8 5.8Z" fill="white"/>
</svg>
