<svg width="24" height="24" viewBox="0 0 24 24" fill="none" xmlns="http://www.w3.org/2000/svg">
<path d="M12.0043 5.83838C8.60097 5.83838 5.84711 8.59674 5.84711 11.9956C5.84711 15.3974 8.60547 18.1528 12.0043 18.1528C15.4076 18.1528 18.1615 15.3944 18.1615 11.9956C18.1615 8.59224 15.4031 5.83838 12.0043 5.83838ZM12.0043 15.9929C9.79641 15.9929 8.007 14.2035 8.007 11.9956C8.007 9.78768 9.79641 7.99827 12.0043 7.99827C14.2122 7.99827 16.0016 9.78618 16.0016 11.9956C16.0016 14.2035 14.2122 15.9929 12.0043 15.9929Z" fill="#4C4959"/>
<path d="M16.9479 0.075943C14.74 -0.0275517 9.2713 -0.023052 7.06042 0.075943C5.11801 0.167438 3.4051 0.636914 2.02517 2.01684C-0.283209 4.32523 0.0122762 7.43457 0.0122762 11.9958C0.0122762 16.6636 -0.247211 19.7024 2.02517 21.9748C4.34106 24.2907 7.49689 23.9877 12.0042 23.9877C17.5284 23.9877 23.5731 24.5172 23.9241 16.9396C24.0276 14.7302 24.0231 9.26297 23.9241 7.05359C23.7261 2.8403 21.4642 0.285932 16.9479 0.075943ZM20.4412 20.4479C18.9278 21.9613 16.8294 21.8263 11.9727 21.8263C6.97342 21.8263 4.96802 21.8998 3.5041 20.4329C1.81818 18.756 2.12417 16.0621 2.12417 11.9808C2.12417 2.00634 2.69564 2.13384 11.9577 2.13384L12.0027 2.16384C21.9352 2.16384 21.8332 2.8073 21.8332 11.9958C21.8347 16.9366 21.9292 18.954 20.4412 20.4479Z" fill="#4C4959"/>
<path d="M18.4059 7.03457C19.2003 7.03457 19.8443 6.39056 19.8443 5.59614C19.8443 4.80172 19.2003 4.15771 18.4059 4.15771C17.6115 4.15771 16.9675 4.80172 16.9675 5.59614C16.9675 6.39056 17.6115 7.03457 18.4059 7.03457Z" fill="#4C4959"/>
</svg>
