<svg width="48" height="49" viewBox="0 0 48 49" fill="none" xmlns="http://www.w3.org/2000/svg">
<path d="M23.2097 40.5912C23.2097 40.591 23.2122 40.5869 23.2174 40.5797C23.2123 40.5879 23.2097 40.5915 23.2097 40.5912ZM25.5191 41.0999C25.519 41.1002 25.5182 41.0958 25.517 41.0861C25.5186 41.0948 25.5192 41.0996 25.5191 41.0999ZM24.7903 8.40877C24.7903 8.40901 24.7878 8.41312 24.7826 8.42037C24.7877 8.41215 24.7903 8.40852 24.7903 8.40877ZM22.4809 7.90012C22.481 7.8999 22.4818 7.90428 22.483 7.91394C22.4814 7.90516 22.4808 7.90034 22.4809 7.90012ZM17.1299 29.6H22.5V40.2299C22.5 40.2522 22.5 40.2747 22.5 40.2972C22.4999 40.6825 22.4998 41.0873 22.5331 41.3977C22.55 41.5547 22.5877 41.8316 22.7133 42.1126C22.854 42.4273 23.1955 42.9246 23.8736 43.074C24.5516 43.2233 25.0705 42.9155 25.3304 42.689C25.5624 42.4868 25.7129 42.2514 25.7943 42.1159C25.9549 41.8483 26.1249 41.4809 26.2867 41.1311C26.2961 41.1107 26.3056 41.0904 26.3149 41.0701L34.0463 24.3704C34.059 24.343 34.0717 24.3155 34.0844 24.288C34.3469 23.7215 34.6098 23.1541 34.7528 22.6683C34.91 22.1344 35.0372 21.3293 34.5417 20.5539C34.0462 19.7784 33.2621 19.5556 32.7116 19.4739C32.2107 19.3996 31.5854 19.3998 30.961 19.4C30.9307 19.4 30.9004 19.4 30.8701 19.4H25.5V8.77013C25.5 8.74778 25.5 8.72535 25.5 8.70285C25.5001 8.31752 25.5002 7.91268 25.4669 7.60233C25.45 7.44526 25.4123 7.16838 25.2867 6.88737C25.146 6.57264 24.8045 6.07537 24.1264 5.92603C23.4484 5.77668 22.9295 6.08445 22.6696 6.31096C22.4376 6.51321 22.2871 6.74862 22.2057 6.88406C22.0451 7.15168 21.8751 7.5191 21.7133 7.86882C21.7039 7.88924 21.6945 7.9096 21.6851 7.92988L13.9537 24.6296C13.941 24.657 13.9283 24.6845 13.9156 24.712C13.6531 25.2786 13.3902 25.8459 13.2472 26.3317C13.09 26.8656 12.9628 27.6707 13.4583 28.4461C13.9538 29.2216 14.7379 29.4444 15.2884 29.5261C15.7893 29.6004 16.4146 29.6002 17.039 29.6C17.0693 29.6 17.0996 29.6 17.1299 29.6Z" stroke="#098CEC" stroke-width="3"/>
</svg>
