<svg width="48" height="49" viewBox="0 0 48 49" fill="none" xmlns="http://www.w3.org/2000/svg">
<path d="M36 6.50001V6.50001C38.8284 6.50001 40.2426 6.50001 41.1213 7.37869C41.1213 7.37869 41.1213 7.37869 41.1213 7.37869C42 8.25737 42 9.67158 42 12.5L42 17.5C42 17.9714 42 18.2071 41.8536 18.3536C41.7071 18.5 41.4714 18.5 41 18.5L30 18.5M36 6.50001V6.50001C33.1716 6.50001 31.7574 6.50001 30.8787 7.37869C30.8787 7.37869 30.8787 7.37869 30.8787 7.37869C30 8.25737 30 9.67158 30 12.5L30 18.5M36 6.50001L10 6.50001C8.11438 6.50001 7.17157 6.50001 6.58579 7.0858C6 7.67158 6 8.61439 6 10.5L6 42.5L12 40.5L18 42.5L24 40.5L30 42.5L30 18.5" stroke="#098CEC" stroke-width="3"/>
<path d="M14 14.5L22 14.5" stroke="#098CEC" stroke-width="3" stroke-linecap="round"/>
<path d="M16 22.5H14" stroke="#098CEC" stroke-width="3" stroke-linecap="round"/>
<path d="M14 30.5L20 30.5" stroke="#098CEC" stroke-width="3" stroke-linecap="round"/>
</svg>
