<svg width="286" height="55" viewBox="0 0 286 55" fill="none" xmlns="http://www.w3.org/2000/svg">
<g clip-path="url(#clip0_612_1578)">
<path d="M11.8445 19.9309H20.6233V35.705H11.8445V19.9309Z" fill="#FF5F00"/>
<path d="M12.4019 27.8179C12.4019 24.613 13.9068 21.7702 16.2199 19.9308C14.52 18.5931 12.3741 17.7849 10.0331 17.7849C4.4869 17.7849 0 22.2718 0 27.8179C0 33.3638 4.4869 37.8509 10.033 37.8509C12.374 37.8509 14.5199 37.0427 16.2199 35.7049C13.9068 33.8934 12.4019 31.0228 12.4019 27.8179Z" fill="#EB001B"/>
<path d="M32.4678 27.8179C32.4678 33.3638 27.9809 37.8509 22.4348 37.8509C20.0938 37.8509 17.9479 37.0427 16.2479 35.7049C18.5889 33.8656 20.066 31.0228 20.066 27.8179C20.066 24.613 18.5609 21.7702 16.2479 19.9308C17.9478 18.5931 20.0938 17.7849 22.4348 17.7849C27.9809 17.7849 32.4678 22.2997 32.4678 27.8179Z" fill="#F79E1B"/>
</g>
<g clip-path="url(#clip1_612_1578)">
<path d="M69.6439 34.8364H60.856V19.208H69.6439V34.8364Z" fill="#6C6BBD"/>
<path d="M61.4139 27.0228C61.4139 23.8525 62.9138 21.0285 65.2497 19.2086C63.5416 17.8778 61.3855 17.0835 59.0428 17.0835C53.4962 17.0835 49 21.5334 49 27.0228C49 32.5121 53.4962 36.962 59.0428 36.962C61.3857 36.962 63.5416 36.1677 65.2497 34.8369C62.9138 33.017 61.4139 30.193 61.4139 27.0228Z" fill="#D32011"/>
<path d="M81.4999 27.0228C81.4999 32.5121 77.0037 36.962 71.4571 36.962C69.1142 36.962 66.9583 36.1677 65.2495 34.8369C67.5861 33.017 69.086 30.193 69.086 27.0228C69.086 23.8525 67.5861 21.0285 65.2495 19.2086C66.9583 17.8778 69.1143 17.0835 71.4571 17.0835C77.0037 17.0835 81.4999 21.5334 81.4999 27.0228Z" fill="#0099DF"/>
</g>
<g clip-path="url(#clip2_612_1578)">
<path d="M119.981 18.8943L117.221 36.0716H121.633L124.392 18.8943H119.981ZM133.29 25.8913C131.748 25.13 130.803 24.6161 130.803 23.8374C130.822 23.1293 131.602 22.4039 133.345 22.4039C134.778 22.3679 135.832 22.7048 136.631 23.04L137.031 23.2187L137.631 19.6248C136.76 19.2879 135.378 18.9167 133.671 18.9167C129.314 18.9167 126.246 21.182 126.227 24.4219C126.191 26.8128 128.424 28.1395 130.094 28.9354C131.801 29.7518 132.382 30.2811 132.382 31.0065C132.363 32.1202 131.002 32.6341 129.732 32.6341C127.972 32.6341 127.027 32.3694 125.592 31.7489L125.011 31.4842L124.394 35.2191C125.43 35.6798 127.336 36.0853 129.314 36.1061C133.945 36.1061 136.958 33.8751 136.996 30.4221C137.011 28.528 135.833 27.0773 133.29 25.8913ZM148.942 18.9474H145.529C144.477 18.9474 143.678 19.25 143.222 20.3294L136.668 36.0716H141.299L142.574 32.6633H147.754L148.416 36.0853H152.5L148.942 18.9474ZM143.858 29.2238C143.948 29.2325 145.635 23.6602 145.635 23.6602L146.98 29.2238C146.98 29.2238 144.73 29.2238 143.858 29.2238ZM113.534 18.8943L109.212 30.5647L108.741 28.2632C107.941 25.6076 105.436 22.722 102.639 21.2885L106.597 36.0544H111.266L118.203 18.8962H113.534V18.8943Z" fill="#2394BC"/>
<path d="M107.287 21.1097C106.95 19.7999 105.875 18.9166 104.416 18.8977H97.5705L97.5 19.2155C102.84 20.5321 107.323 24.5831 108.777 28.3936L107.287 21.1097Z" fill="#EFC75E"/>
</g>
<g clip-path="url(#clip3_612_1578)">
<path fill-rule="evenodd" clip-rule="evenodd" d="M217.548 37.1788H168.604L171.866 17.7717H220.81L217.548 37.1788Z" fill="#2E3235"/>
<path fill-rule="evenodd" clip-rule="evenodd" d="M184.214 29.0779C183.378 29.0779 182.791 28.5342 182.791 27.6854C182.791 26.746 183.521 25.8643 184.569 25.8643C185.405 25.8643 185.992 26.4329 185.992 27.2818C185.992 28.2214 185.262 29.0779 184.214 29.0779ZM184.703 24.241C182.507 24.241 180.844 25.8478 180.844 27.7678C180.844 29.5065 182.213 30.71 184.08 30.71C186.276 30.71 187.939 29.0532 187.939 27.1333C187.939 25.3947 186.57 24.241 184.703 24.241Z" fill="#E5E5E0"/>
<path fill-rule="evenodd" clip-rule="evenodd" d="M197.448 29.0779C196.612 29.0779 196.026 28.5342 196.026 27.6854C196.026 26.746 196.755 25.8643 197.804 25.8643C198.639 25.8643 199.226 26.4329 199.226 27.2818C199.226 28.2214 198.498 29.0779 197.448 29.0779ZM197.937 24.241C195.741 24.241 194.079 25.8478 194.079 27.7678C194.079 29.5065 195.447 30.71 197.314 30.71C199.511 30.71 201.174 29.0532 201.174 27.1333C201.174 25.3947 199.804 24.241 197.937 24.241Z" fill="#E5E5E0"/>
<path fill-rule="evenodd" clip-rule="evenodd" d="M204.51 27.305H204.223L204.438 26.0095H204.699C205.307 26.0095 205.63 26.1923 205.63 26.5908C205.63 27.0642 205.173 27.305 204.51 27.305ZM207.636 26.2836C207.636 25.1209 206.723 24.3735 205.075 24.3735H202.745L201.724 30.5769H203.686L204.008 28.6254H204.098L205.137 30.5769H207.385L205.943 28.4094C207.001 28.0439 207.636 27.2552 207.636 26.2836Z" fill="#E5E5E0"/>
<path fill-rule="evenodd" clip-rule="evenodd" d="M178.596 26.8484C177.853 26.4746 177.683 26.375 177.683 26.1758C177.683 25.9266 177.978 25.8019 178.39 25.8019C178.863 25.8019 179.578 25.8547 180.278 26.5184C180.452 25.9866 180.734 25.5023 181.103 25.0853C180.111 24.5308 179.197 24.241 178.355 24.241C176.68 24.241 175.721 25.1296 175.721 26.2007C175.721 27.1224 176.42 27.604 177.253 28.0274C177.997 28.4095 178.184 28.5259 178.184 28.7586C178.184 29.0077 177.871 29.1486 177.459 29.1486C176.742 29.1486 175.908 28.7003 175.416 28.2435L175.129 29.9708C175.64 30.336 176.375 30.7096 177.485 30.7096C179.214 30.7096 180.147 29.8463 180.147 28.7336C180.147 27.8281 179.546 27.3301 178.596 26.8484Z" fill="#E5E5E0"/>
<path fill-rule="evenodd" clip-rule="evenodd" d="M193.1 27.0972H190.804L190.983 26.0095H193.447C193.765 25.3552 194.259 24.7956 194.875 24.3735H190.844C189.95 24.3735 189.19 24.9788 189.055 25.7979L188.268 30.5769H190.23L190.553 28.6254H192.882L193.051 27.5648C193.059 27.4062 193.075 27.2504 193.1 27.0972Z" fill="#E5E5E0"/>
<path fill-rule="evenodd" clip-rule="evenodd" d="M207.679 24.3735C208.202 24.7731 208.526 25.3318 208.595 26.0095H210.235L209.482 30.5769H211.444L212.198 26.0095H214.016L214.285 24.3735H207.679Z" fill="#E5E5E0"/>
</g>
<g clip-path="url(#clip4_612_1578)">
<path d="M285.033 27.7879C285.033 24.3851 283.385 21.7002 280.235 21.7002C277.072 21.7002 275.158 24.3852 275.158 27.7613C275.158 31.7621 277.417 33.7824 280.66 33.7824C282.242 33.7824 283.438 33.4236 284.342 32.9185V30.2601C283.438 30.7121 282.402 30.9912 281.086 30.9912C279.796 30.9912 278.653 30.5393 278.507 28.9708H285.007C285.007 28.7979 285.033 28.1068 285.033 27.7879ZM278.467 26.5251C278.467 25.0232 279.384 24.3984 280.222 24.3984C281.033 24.3984 281.897 25.0232 281.897 26.5251H278.467ZM270.027 21.7002C268.724 21.7002 267.887 22.3116 267.422 22.737L267.249 21.9129H264.325V37.411L267.648 36.7066L267.661 32.945C268.14 33.2907 268.844 33.7824 270.014 33.7824C272.393 33.7824 274.559 31.8684 274.559 27.655C274.546 23.8003 272.353 21.7002 270.027 21.7002H270.027ZM269.229 30.8582C268.445 30.8582 267.98 30.5792 267.661 30.2336L267.648 25.3022C267.993 24.9168 268.472 24.651 269.229 24.651C270.439 24.651 271.276 26.0067 271.276 27.7479C271.276 29.5291 270.452 30.8582 269.229 30.8582ZM259.752 20.916L263.089 20.1982V17.5L259.752 18.2045V20.916ZM259.752 21.9262H263.089V33.5564H259.752V21.9262ZM256.177 22.9097L255.964 21.9262H253.093V33.5564H256.416V25.6745C257.2 24.651 258.53 24.8371 258.942 24.9833V21.9262C258.516 21.7666 256.961 21.4742 256.177 22.9097ZM249.531 19.0419L246.288 19.733L246.275 30.3797C246.275 32.347 247.75 33.7957 249.717 33.7957C250.807 33.7957 251.605 33.5964 252.043 33.3571V30.6589C251.618 30.8317 249.518 31.4431 249.518 29.4759V24.7573H252.043V21.9262H249.518L249.531 19.0419ZM240.546 25.3022C240.546 24.7839 240.971 24.5845 241.676 24.5845C242.686 24.5845 243.962 24.8903 244.972 25.4352V22.3116C243.869 21.873 242.779 21.7002 241.676 21.7002C238.977 21.7002 237.183 23.1092 237.183 25.4619C237.183 29.1303 242.234 28.5455 242.234 30.1273C242.234 30.7386 241.702 30.938 240.958 30.938C239.855 30.938 238.446 30.4861 237.329 29.8747V33.0381C238.565 33.5698 239.815 33.7957 240.958 33.7957C243.722 33.7957 245.623 32.4267 245.623 30.0475C245.61 26.0865 240.546 26.7909 240.546 25.3022Z" fill="#635BFF"/>
</g>
<defs>
<clipPath id="clip0_612_1578">
<rect width="32.5" height="20" fill="white" transform="translate(0 17.5)"/>
</clipPath>
<clipPath id="clip1_612_1578">
<rect width="33" height="21" fill="white" transform="translate(48.5 17)"/>
</clipPath>
<clipPath id="clip2_612_1578">
<rect width="55" height="55" fill="white" transform="translate(97.5)"/>
</clipPath>
<clipPath id="clip3_612_1578">
<rect width="52.6829" height="20" fill="white" transform="translate(168.5 17.5)"/>
</clipPath>
<clipPath id="clip4_612_1578">
<rect width="47.8505" height="20" fill="white" transform="translate(237.183 17.5)"/>
</clipPath>
</defs>
</svg>
