<svg width="48" height="49" viewBox="0 0 48 49" fill="none" xmlns="http://www.w3.org/2000/svg">
<path d="M18 20.5L25.2581 25.9436C25.6766 26.2574 26.2662 26.1957 26.6107 25.8021L40 10.5" stroke="#098CEC" stroke-width="3" stroke-linecap="round"/>
<path d="M42 24.5C42 28.261 40.8219 31.9275 38.6312 34.9846C36.4406 38.0417 33.3473 40.3358 29.7859 41.5447C26.2245 42.7537 22.3739 42.8167 18.7749 41.7249C15.1758 40.6332 12.0092 38.4415 9.71964 35.4577C7.4301 32.4739 6.13269 28.8479 6.00964 25.0889C5.88658 21.33 6.94406 17.6269 9.03355 14.4997C11.123 11.3726 14.1396 8.9785 17.6595 7.65369C21.1794 6.32889 25.0259 6.13992 28.6587 7.11333" stroke="#098CEC" stroke-width="3" stroke-linecap="round"/>
</svg>
