<svg width="48" height="48" viewBox="0 0 48 48" fill="none" xmlns="http://www.w3.org/2000/svg">
<g clip-path="url(#clip0_3108_1749)">
<path d="M35.2568 12H4.744C2.128 12 0 14.128 0 16.744V33.656C0 36.272 2.128 38.4 4.7432 38.4H9.6V46.4C9.6 46.7304 9.8032 47.0272 10.1112 47.1464C10.2056 47.1832 10.3032 47.2 10.4 47.2C10.6208 47.2 10.8376 47.1088 10.992 46.9384L18.7536 38.4H35.256C37.872 38.4 40 36.272 40 33.656V16.744C40 14.128 37.872 12 35.2568 12ZM9.6 28.8C7.8352 28.8 6.4 27.3648 6.4 25.6C6.4 23.8352 7.8352 22.4 9.6 22.4C11.3648 22.4 12.8 23.8352 12.8 25.6C12.8 27.3648 11.3648 28.8 9.6 28.8ZM20 28.8C18.2352 28.8 16.8 27.3648 16.8 25.6C16.8 23.8352 18.2352 22.4 20 22.4C21.7648 22.4 23.2 23.8352 23.2 25.6C23.2 27.3648 21.7648 28.8 20 28.8ZM30.4 28.8C28.6352 28.8 27.2 27.3648 27.2 25.6C27.2 23.8352 28.6352 22.4 30.4 22.4C32.1648 22.4 33.6 23.8352 33.6 25.6C33.6 27.3648 32.1648 28.8 30.4 28.8Z" fill="#FFB800"/>
<path d="M43.256 0.799805H12.744C10.128 0.799805 8 2.9278 8 5.5438V10.3998H35.2568C38.7544 10.3998 41.6 13.2462 41.6 16.7438V27.1998H43.256C45.872 27.1998 48 25.0718 48 22.4558V5.5438C48 2.9278 45.872 0.799805 43.256 0.799805Z" fill="#FFB800"/>
</g>
<defs>
<clipPath id="clip0_3108_1749">
<rect width="48" height="48" fill="white"/>
</clipPath>
</defs>
</svg>
