<svg width="48" height="48" viewBox="0 0 48 48" fill="none" xmlns="http://www.w3.org/2000/svg">
<g clip-path="url(#clip0_3108_1761)">
<path fill-rule="evenodd" clip-rule="evenodd" d="M37.8004 28.577H27.2868C28.1544 25.9738 28.6154 23.7826 28.6915 21.9144C28.8708 17.5069 26.7898 15.7625 25.0124 15.0743C24.9381 15.0451 24.8608 15.0243 24.7818 15.0124C23.4047 14.7948 22.9144 15.4427 22.5896 16.1749L22.5469 16.2709C22.4993 16.3761 22.4682 16.488 22.4548 16.6026C22.0153 20.3625 20.4098 23.8904 17.8634 26.6915V47.6962C18.1475 47.8002 18.4376 47.8868 18.7322 47.9554C18.812 47.9742 18.8936 47.9843 18.9755 47.9855C19.8556 47.9949 20.9047 47.9997 22.1146 47.9997C23.3216 47.9997 24.6882 47.9948 26.2048 47.9855H36.1093C36.6884 47.9856 37.2571 47.8319 37.7573 47.54C38.2575 47.2481 38.6712 46.8287 38.9561 46.3244C39.241 45.8202 39.3868 45.2494 39.3786 44.6703C39.3704 44.0912 39.2085 43.5247 38.9096 43.0288C39.5706 42.528 40.0164 41.7944 40.1563 40.977C40.2961 40.1596 40.1197 39.3195 39.6628 38.6275C40.3043 38.0835 40.7111 37.3129 40.7986 36.4764C40.8861 35.6398 40.6474 34.8018 40.1324 34.1368C40.584 33.6776 40.8899 33.095 41.0116 32.4624C41.1332 31.8298 41.0651 31.1754 40.8159 30.5813C40.5668 29.9873 40.1476 29.4802 39.6111 29.1236C39.0745 28.7671 38.4446 28.5771 37.8004 28.5775V28.577ZM15.6654 9.72031C15.5988 9.51516 15.4747 9.33345 15.3079 9.19678C15.141 9.06012 14.9384 8.97426 14.7241 8.94941L11.6529 8.59607L10.3685 5.78619C10.2793 5.58966 10.1353 5.42299 9.95382 5.30611C9.77236 5.18922 9.56108 5.12706 9.34523 5.12706C9.12938 5.12706 8.9181 5.18922 8.73663 5.30611C8.55517 5.42299 8.41121 5.58966 8.32195 5.78619L7.03757 8.59607L3.96642 8.94941C3.75216 8.97401 3.54948 9.05967 3.38254 9.1962C3.21559 9.33273 3.0914 9.51437 3.02477 9.71948C2.95814 9.9246 2.95186 10.1445 3.0067 10.3531C3.06154 10.5617 3.17517 10.7501 3.33407 10.8959L5.61051 12.9866L4.99767 16.0163C4.95533 16.2275 4.97449 16.4465 5.05285 16.6472C5.13122 16.8479 5.2655 17.0219 5.43978 17.1485C5.61406 17.2752 5.82102 17.3492 6.03609 17.3618C6.25117 17.3743 6.46534 17.325 6.6532 17.2195L9.34495 15.6997L12.0373 17.2195C12.2251 17.3255 12.4393 17.3752 12.6546 17.3629C12.8699 17.3505 13.0771 17.2766 13.2515 17.1498C13.426 17.023 13.5603 16.8488 13.6385 16.6479C13.7168 16.4469 13.7356 16.2277 13.6928 16.0164L13.0799 12.9867L15.3564 10.896C15.5151 10.7503 15.6286 10.562 15.6834 10.3536C15.7382 10.1451 15.7319 9.92536 15.6653 9.72041L15.6654 9.72031ZM44.9748 9.72031C45.0414 9.92525 45.0478 10.145 44.993 10.3534C44.9383 10.5619 44.8248 10.7502 44.6661 10.8959L42.3895 12.9866L43.0023 16.0163C43.0451 16.2276 43.0263 16.4468 42.9481 16.6477C42.8698 16.8486 42.7355 17.0229 42.5611 17.1496C42.3867 17.2764 42.1795 17.3504 41.9642 17.3627C41.749 17.3751 41.5347 17.3253 41.3469 17.2194L38.6551 15.6996L35.9632 17.2194C35.7754 17.3254 35.5611 17.3751 35.3458 17.3628C35.1305 17.3504 34.9233 17.2765 34.7489 17.1497C34.5745 17.0229 34.4401 16.8487 34.3619 16.6478C34.2837 16.4468 34.2649 16.2276 34.3077 16.0163L34.9205 12.9866L32.6441 10.8959C32.4852 10.7501 32.3715 10.5617 32.3167 10.3531C32.2619 10.1445 32.2681 9.9246 32.3348 9.71948C32.4014 9.51437 32.5256 9.33273 32.6925 9.1962C32.8595 9.05967 33.0622 8.97401 33.2764 8.94941L36.3466 8.59607L37.6316 5.78619C37.7208 5.58968 37.8647 5.42302 38.0462 5.30614C38.2276 5.18926 38.4389 5.12711 38.6547 5.12711C38.8705 5.12711 39.0818 5.18926 39.2632 5.30614C39.4447 5.42302 39.5886 5.58968 39.6779 5.78619L40.9628 8.59607L44.0332 8.94941C44.2475 8.97421 44.4501 9.06006 44.617 9.19673C44.7838 9.3334 44.9079 9.51514 44.9744 9.72031H44.9748ZM31.5726 5.50335C31.5059 5.29795 31.3818 5.11592 31.215 4.97877C31.0482 4.84162 30.8456 4.75507 30.6312 4.72935L26.6774 4.27822L25.023 0.655534C24.9328 0.460107 24.7885 0.29461 24.6071 0.178615C24.4258 0.0626192 24.2151 0.000976563 23.9998 0.000976562C23.7845 0.000976563 23.5738 0.0626192 23.3925 0.178615C23.2111 0.29461 23.0668 0.460107 22.9766 0.655534L21.3221 4.27794L17.3684 4.72906C17.1543 4.75419 16.9519 4.8402 16.7852 4.97691C16.6185 5.11361 16.4945 5.29526 16.428 5.50031C16.3614 5.70536 16.355 5.9252 16.4097 6.13375C16.4643 6.3423 16.5776 6.53081 16.7361 6.67691L19.6673 9.3696L18.8781 13.2696C18.8354 13.4809 18.8544 13.7 18.9326 13.9009C19.0109 14.1017 19.1453 14.2758 19.3197 14.4025C19.4941 14.5292 19.7012 14.6031 19.9164 14.6155C20.1317 14.6278 20.3459 14.5781 20.5336 14.4721L23.9998 12.517L27.4659 14.4723C27.6536 14.5782 27.8678 14.6279 28.083 14.6156C28.2982 14.6032 28.5054 14.5293 28.6798 14.4026C28.8542 14.276 28.9885 14.1018 29.0668 13.901C29.145 13.7002 29.164 13.4811 29.1213 13.2698L28.3323 9.36978L31.2635 6.67691C31.4222 6.53149 31.5357 6.34352 31.5905 6.13541C31.6454 5.92729 31.6393 5.7078 31.5729 5.50307L31.5726 5.50335ZM15.6134 28.7805C15.4153 28.4655 15.1406 28.2059 14.8149 28.0259C14.4892 27.8459 14.1232 27.7514 13.7511 27.7513H5.98598C5.40225 27.7518 4.84256 27.9838 4.42974 28.3965C4.01691 28.8092 3.78467 29.3689 3.78398 29.9526V45.7971C3.78447 46.3811 4.01659 46.941 4.42941 47.354C4.84222 47.767 5.40202 47.9994 5.98598 48.0002H13.7511C14.1231 48 14.489 47.9056 14.8147 47.7257C15.1404 47.5459 15.4152 47.2865 15.6134 46.9717V28.7805ZM6.62938 31.8837C6.62938 31.5853 6.74791 31.2991 6.95889 31.0882C7.16987 30.8772 7.45602 30.7587 7.75438 30.7587H8.58004C8.87841 30.7587 9.16456 30.8772 9.37554 31.0882C9.58651 31.2991 9.70504 31.5853 9.70504 31.8837C9.70504 32.182 9.58651 32.4682 9.37554 32.6792C9.16456 32.8901 8.87841 33.0087 8.58004 33.0087H7.75448C7.60673 33.0087 7.46043 32.9796 7.32393 32.923C7.18743 32.8665 7.0634 32.7837 6.95892 32.6792C6.85445 32.5747 6.77157 32.4507 6.71503 32.3142C6.65849 32.1777 6.62938 32.0314 6.62938 31.8837Z" fill="#FFB800"/>
</g>
<defs>
<clipPath id="clip0_3108_1761">
<rect width="48" height="48" fill="white"/>
</clipPath>
</defs>
</svg>
