<svg width="48" height="48" viewBox="0 0 48 48" fill="none" xmlns="http://www.w3.org/2000/svg">
<g clip-path="url(#clip0_3108_1765)">
<path d="M8.25 19.5C8.66421 19.5 9 19.1642 9 18.75C9 18.3358 8.66421 18 8.25 18C7.83579 18 7.5 18.3358 7.5 18.75C7.5 19.1642 7.83579 19.5 8.25 19.5Z" fill="#FFB800"/>
<path d="M18.75 30C19.1642 30 19.5 29.6642 19.5 29.25C19.5 28.8358 19.1642 28.5 18.75 28.5C18.3358 28.5 18 28.8358 18 29.25C18 29.6642 18.3358 30 18.75 30Z" fill="#FFB800"/>
<path d="M43.5 7.5H31.5C31.1022 7.50008 30.7207 7.65818 30.4395 7.9395L28.5 9.879L26.5605 7.9395C26.2793 7.65818 25.8978 7.50008 25.5 7.5H4.5C3.30653 7.5 2.16193 7.97411 1.31802 8.81802C0.474106 9.66193 0 10.8065 0 12L0 36C0 37.1935 0.474106 38.3381 1.31802 39.182C2.16193 40.0259 3.30653 40.5 4.5 40.5H25.5C25.8978 40.4999 26.2793 40.3418 26.5605 40.0605L28.5 38.121L30.4395 40.0605C30.7207 40.3418 31.1022 40.4999 31.5 40.5H43.5C44.6935 40.5 45.8381 40.0259 46.682 39.182C47.5259 38.3381 48 37.1935 48 36V12C48 10.8065 47.5259 9.66193 46.682 8.81802C45.8381 7.97411 44.6935 7.5 43.5 7.5ZM4.5 18.75C4.5 18.0083 4.71993 17.2833 5.13199 16.6666C5.54404 16.0499 6.12971 15.5693 6.81494 15.2855C7.50016 15.0016 8.25416 14.9274 8.98159 15.0721C9.70902 15.2167 10.3772 15.5739 10.9017 16.0983C11.4261 16.6228 11.7833 17.291 11.9279 18.0184C12.0726 18.7458 11.9984 19.4998 11.7145 20.1851C11.4307 20.8703 10.9501 21.456 10.3334 21.868C9.7167 22.2801 8.99168 22.5 8.25 22.5C7.25544 22.5 6.30161 22.1049 5.59835 21.4017C4.89509 20.6984 4.5 19.7446 4.5 18.75ZM7.5 31.5C7.20337 31.4999 6.91343 31.4119 6.66681 31.2471C6.4202 31.0823 6.22799 30.848 6.11448 30.574C6.00098 30.2999 5.97127 29.9984 6.02912 29.7075C6.08698 29.4165 6.22979 29.1493 6.4395 28.9395L18.4395 16.9395C18.7224 16.6663 19.1013 16.5151 19.4946 16.5185C19.8879 16.5219 20.2641 16.6797 20.5422 16.9578C20.8203 17.2359 20.9781 17.6121 20.9815 18.0054C20.9849 18.3987 20.8337 18.7776 20.5605 19.0605L8.5605 31.0605C8.27926 31.3418 7.89779 31.4999 7.5 31.5ZM18.75 33C18.0083 33 17.2833 32.7801 16.6666 32.368C16.0499 31.956 15.5693 31.3703 15.2855 30.6851C15.0016 29.9998 14.9274 29.2458 15.0721 28.5184C15.2167 27.791 15.5739 27.1228 16.0984 26.5984C16.6228 26.0739 17.291 25.7167 18.0184 25.5721C18.7458 25.4274 19.4998 25.5016 20.1851 25.7855C20.8703 26.0693 21.456 26.5499 21.868 27.1666C22.2801 27.7833 22.5 28.5083 22.5 29.25C22.5 30.2446 22.1049 31.1984 21.4016 31.9016C20.6984 32.6049 19.7446 33 18.75 33ZM28.5 33C28.2033 33 27.9133 32.912 27.6666 32.7472C27.42 32.5824 27.2277 32.3481 27.1142 32.074C27.0006 31.7999 26.9709 31.4983 27.0288 31.2074C27.0867 30.9164 27.2296 30.6491 27.4393 30.4393C27.6491 30.2296 27.9164 30.0867 28.2074 30.0288C28.4983 29.9709 28.7999 30.0006 29.074 30.1142C29.3481 30.2277 29.5824 30.42 29.7472 30.6666C29.912 30.9133 30 31.2033 30 31.5C30 31.8978 29.842 32.2794 29.5607 32.5607C29.2794 32.842 28.8978 33 28.5 33ZM28.5 25.5C28.2033 25.5 27.9133 25.412 27.6666 25.2472C27.42 25.0824 27.2277 24.8481 27.1142 24.574C27.0006 24.2999 26.9709 23.9983 27.0288 23.7074C27.0867 23.4164 27.2296 23.1491 27.4393 22.9393C27.6491 22.7296 27.9164 22.5867 28.2074 22.5288C28.4983 22.4709 28.7999 22.5006 29.074 22.6142C29.3481 22.7277 29.5824 22.92 29.7472 23.1666C29.912 23.4133 30 23.7033 30 24C30 24.3978 29.842 24.7794 29.5607 25.0607C29.2794 25.342 28.8978 25.5 28.5 25.5ZM28.5 18C28.2033 18 27.9133 17.912 27.6666 17.7472C27.42 17.5824 27.2277 17.3481 27.1142 17.074C27.0006 16.7999 26.9709 16.4983 27.0288 16.2074C27.0867 15.9164 27.2296 15.6491 27.4393 15.4393C27.6491 15.2296 27.9164 15.0867 28.2074 15.0288C28.4983 14.9709 28.7999 15.0006 29.074 15.1142C29.3481 15.2277 29.5824 15.42 29.7472 15.6666C29.912 15.9133 30 16.2033 30 16.5C30 16.8978 29.842 17.2794 29.5607 17.5607C29.2794 17.842 28.8978 18 28.5 18ZM42 34.5H36C35.6022 34.5 35.2206 34.342 34.9393 34.0607C34.658 33.7794 34.5 33.3978 34.5 33C34.5 32.6022 34.658 32.2206 34.9393 31.9393C35.2206 31.658 35.6022 31.5 36 31.5H42C42.3978 31.5 42.7794 31.658 43.0607 31.9393C43.342 32.2206 43.5 32.6022 43.5 33C43.5 33.3978 43.342 33.7794 43.0607 34.0607C42.7794 34.342 42.3978 34.5 42 34.5ZM42 28.5H36C35.6022 28.5 35.2206 28.342 34.9393 28.0607C34.658 27.7794 34.5 27.3978 34.5 27C34.5 26.6022 34.658 26.2206 34.9393 25.9393C35.2206 25.658 35.6022 25.5 36 25.5H42C42.3978 25.5 42.7794 25.658 43.0607 25.9393C43.342 26.2206 43.5 26.6022 43.5 27C43.5 27.3978 43.342 27.7794 43.0607 28.0607C42.7794 28.342 42.3978 28.5 42 28.5ZM42 22.5H36C35.6022 22.5 35.2206 22.342 34.9393 22.0607C34.658 21.7794 34.5 21.3978 34.5 21C34.5 20.6022 34.658 20.2206 34.9393 19.9393C35.2206 19.658 35.6022 19.5 36 19.5H42C42.3978 19.5 42.7794 19.658 43.0607 19.9393C43.342 20.2206 43.5 20.6022 43.5 21C43.5 21.3978 43.342 21.7794 43.0607 22.0607C42.7794 22.342 42.3978 22.5 42 22.5ZM42 16.5H36C35.6022 16.5 35.2206 16.342 34.9393 16.0607C34.658 15.7794 34.5 15.3978 34.5 15C34.5 14.6022 34.658 14.2206 34.9393 13.9393C35.2206 13.658 35.6022 13.5 36 13.5H42C42.3978 13.5 42.7794 13.658 43.0607 13.9393C43.342 14.2206 43.5 14.6022 43.5 15C43.5 15.3978 43.342 15.7794 43.0607 16.0607C42.7794 16.342 42.3978 16.5 42 16.5Z" fill="#FFB800"/>
</g>
<defs>
<clipPath id="clip0_3108_1765">
<rect width="48" height="48" fill="white"/>
</clipPath>
</defs>
</svg>
