<svg width="24" height="18" viewBox="0 0 24 18" fill="none" xmlns="http://www.w3.org/2000/svg">
<path d="M23.469 2.93016L23.499 3.12517C23.2095 2.09611 22.4249 1.30256 21.4303 1.01304L21.4093 1.00854C19.5387 0.50001 12.0098 0.50001 12.0098 0.50001C12.0098 0.50001 4.49882 0.491009 2.61021 1.00854C1.59464 1.30256 0.811597 2.09611 0.52658 3.10417L0.522079 3.12517C-0.176963 6.77639 -0.181463 11.1627 0.553581 15.0734L0.522079 14.8754C0.811597 15.9044 1.59614 16.698 2.5907 16.9875L2.61171 16.992C4.48082 17.5005 12.0113 17.5005 12.0113 17.5005C12.0113 17.5005 19.5207 17.5005 21.4108 16.992C22.4264 16.698 23.2095 15.9044 23.4945 14.8964L23.499 14.8754C23.8185 13.1773 24 11.2242 24 9.22754C24 9.15403 24 9.08053 23.9985 9.00702C24 8.93802 24 8.85702 24 8.77601C24 6.77789 23.8185 4.82477 23.469 2.93016ZM9.60663 12.6522V5.3588L15.874 9.01152L9.60663 12.6522Z" fill="#4C4959"/>
</svg>
